<mxfile host="Electron" modified="2023-06-06T14:08:01.802Z" agent="Mozilla/5.0 (X11; Linux x86_64) AppleWebKit/537.36 (KHTML, like Gecko) draw.io/21.2.8 Chrome/112.0.5615.165 Electron/24.2.0 Safari/537.36" etag="WgdzPgBVPDkWwy4eDydH" version="21.2.8" type="device">
  <diagram name="Seite-1" id="m6NCagOTgKgYr5Nz06iL">
    <mxGraphModel dx="1508" dy="578" grid="1" gridSize="10" guides="1" tooltips="1" connect="1" arrows="1" fold="1" page="1" pageScale="1" pageWidth="827" pageHeight="1169" math="0" shadow="0">
      <root>
        <mxCell id="0" />
        <mxCell id="1" parent="0" />
        <mxCell id="3SCOILTZdXTUn76-UnPr-1" value="Artikel" style="shape=table;startSize=30;container=1;collapsible=1;childLayout=tableLayout;fixedRows=1;rowLines=0;fontStyle=1;align=center;resizeLast=1;" parent="1" vertex="1">
          <mxGeometry x="410" y="340" width="180" height="360" as="geometry" />
        </mxCell>
        <mxCell id="3SCOILTZdXTUn76-UnPr-2" value="" style="shape=tableRow;horizontal=0;startSize=0;swimlaneHead=0;swimlaneBody=0;fillColor=none;collapsible=0;dropTarget=0;points=[[0,0.5],[1,0.5]];portConstraint=eastwest;top=0;left=0;right=0;bottom=1;" parent="3SCOILTZdXTUn76-UnPr-1" vertex="1">
          <mxGeometry y="30" width="180" height="30" as="geometry" />
        </mxCell>
        <mxCell id="3SCOILTZdXTUn76-UnPr-3" value="PK" style="shape=partialRectangle;connectable=0;fillColor=none;top=0;left=0;bottom=0;right=0;fontStyle=1;overflow=hidden;" parent="3SCOILTZdXTUn76-UnPr-2" vertex="1">
          <mxGeometry width="30" height="30" as="geometry">
            <mxRectangle width="30" height="30" as="alternateBounds" />
          </mxGeometry>
        </mxCell>
        <mxCell id="3SCOILTZdXTUn76-UnPr-4" value="AID" style="shape=partialRectangle;connectable=0;fillColor=none;top=0;left=0;bottom=0;right=0;align=left;spacingLeft=6;fontStyle=5;overflow=hidden;" parent="3SCOILTZdXTUn76-UnPr-2" vertex="1">
          <mxGeometry x="30" width="150" height="30" as="geometry">
            <mxRectangle width="150" height="30" as="alternateBounds" />
          </mxGeometry>
        </mxCell>
        <mxCell id="3SCOILTZdXTUn76-UnPr-5" value="" style="shape=tableRow;horizontal=0;startSize=0;swimlaneHead=0;swimlaneBody=0;fillColor=none;collapsible=0;dropTarget=0;points=[[0,0.5],[1,0.5]];portConstraint=eastwest;top=0;left=0;right=0;bottom=0;" parent="3SCOILTZdXTUn76-UnPr-1" vertex="1">
          <mxGeometry y="60" width="180" height="30" as="geometry" />
        </mxCell>
        <mxCell id="3SCOILTZdXTUn76-UnPr-6" value="" style="shape=partialRectangle;connectable=0;fillColor=none;top=0;left=0;bottom=0;right=0;editable=1;overflow=hidden;" parent="3SCOILTZdXTUn76-UnPr-5" vertex="1">
          <mxGeometry width="30" height="30" as="geometry">
            <mxRectangle width="30" height="30" as="alternateBounds" />
          </mxGeometry>
        </mxCell>
        <mxCell id="3SCOILTZdXTUn76-UnPr-7" value="Name" style="shape=partialRectangle;connectable=0;fillColor=none;top=0;left=0;bottom=0;right=0;align=left;spacingLeft=6;overflow=hidden;" parent="3SCOILTZdXTUn76-UnPr-5" vertex="1">
          <mxGeometry x="30" width="150" height="30" as="geometry">
            <mxRectangle width="150" height="30" as="alternateBounds" />
          </mxGeometry>
        </mxCell>
        <mxCell id="3SCOILTZdXTUn76-UnPr-8" value="" style="shape=tableRow;horizontal=0;startSize=0;swimlaneHead=0;swimlaneBody=0;fillColor=none;collapsible=0;dropTarget=0;points=[[0,0.5],[1,0.5]];portConstraint=eastwest;top=0;left=0;right=0;bottom=0;" parent="3SCOILTZdXTUn76-UnPr-1" vertex="1">
          <mxGeometry y="90" width="180" height="30" as="geometry" />
        </mxCell>
        <mxCell id="3SCOILTZdXTUn76-UnPr-9" value="" style="shape=partialRectangle;connectable=0;fillColor=none;top=0;left=0;bottom=0;right=0;editable=1;overflow=hidden;" parent="3SCOILTZdXTUn76-UnPr-8" vertex="1">
          <mxGeometry width="30" height="30" as="geometry">
            <mxRectangle width="30" height="30" as="alternateBounds" />
          </mxGeometry>
        </mxCell>
        <mxCell id="3SCOILTZdXTUn76-UnPr-10" value="" style="shape=partialRectangle;connectable=0;fillColor=none;top=0;left=0;bottom=0;right=0;align=left;spacingLeft=6;overflow=hidden;" parent="3SCOILTZdXTUn76-UnPr-8" vertex="1">
          <mxGeometry x="30" width="150" height="30" as="geometry">
            <mxRectangle width="150" height="30" as="alternateBounds" />
          </mxGeometry>
        </mxCell>
        <mxCell id="3SCOILTZdXTUn76-UnPr-72" style="shape=tableRow;horizontal=0;startSize=0;swimlaneHead=0;swimlaneBody=0;fillColor=none;collapsible=0;dropTarget=0;points=[[0,0.5],[1,0.5]];portConstraint=eastwest;top=0;left=0;right=0;bottom=0;" parent="3SCOILTZdXTUn76-UnPr-1" vertex="1">
          <mxGeometry y="120" width="180" height="30" as="geometry" />
        </mxCell>
        <mxCell id="3SCOILTZdXTUn76-UnPr-73" style="shape=partialRectangle;connectable=0;fillColor=none;top=0;left=0;bottom=0;right=0;editable=1;overflow=hidden;" parent="3SCOILTZdXTUn76-UnPr-72" vertex="1">
          <mxGeometry width="30" height="30" as="geometry">
            <mxRectangle width="30" height="30" as="alternateBounds" />
          </mxGeometry>
        </mxCell>
        <mxCell id="3SCOILTZdXTUn76-UnPr-74" value="Preis" style="shape=partialRectangle;connectable=0;fillColor=none;top=0;left=0;bottom=0;right=0;align=left;spacingLeft=6;overflow=hidden;" parent="3SCOILTZdXTUn76-UnPr-72" vertex="1">
          <mxGeometry x="30" width="150" height="30" as="geometry">
            <mxRectangle width="150" height="30" as="alternateBounds" />
          </mxGeometry>
        </mxCell>
        <mxCell id="3SCOILTZdXTUn76-UnPr-69" style="shape=tableRow;horizontal=0;startSize=0;swimlaneHead=0;swimlaneBody=0;fillColor=none;collapsible=0;dropTarget=0;points=[[0,0.5],[1,0.5]];portConstraint=eastwest;top=0;left=0;right=0;bottom=0;" parent="3SCOILTZdXTUn76-UnPr-1" vertex="1">
          <mxGeometry y="150" width="180" height="30" as="geometry" />
        </mxCell>
        <mxCell id="3SCOILTZdXTUn76-UnPr-70" style="shape=partialRectangle;connectable=0;fillColor=none;top=0;left=0;bottom=0;right=0;editable=1;overflow=hidden;" parent="3SCOILTZdXTUn76-UnPr-69" vertex="1">
          <mxGeometry width="30" height="30" as="geometry">
            <mxRectangle width="30" height="30" as="alternateBounds" />
          </mxGeometry>
        </mxCell>
        <mxCell id="3SCOILTZdXTUn76-UnPr-71" value="Bild" style="shape=partialRectangle;connectable=0;fillColor=none;top=0;left=0;bottom=0;right=0;align=left;spacingLeft=6;overflow=hidden;" parent="3SCOILTZdXTUn76-UnPr-69" vertex="1">
          <mxGeometry x="30" width="150" height="30" as="geometry">
            <mxRectangle width="150" height="30" as="alternateBounds" />
          </mxGeometry>
        </mxCell>
        <mxCell id="3SCOILTZdXTUn76-UnPr-66" style="shape=tableRow;horizontal=0;startSize=0;swimlaneHead=0;swimlaneBody=0;fillColor=none;collapsible=0;dropTarget=0;points=[[0,0.5],[1,0.5]];portConstraint=eastwest;top=0;left=0;right=0;bottom=0;" parent="3SCOILTZdXTUn76-UnPr-1" vertex="1">
          <mxGeometry y="180" width="180" height="30" as="geometry" />
        </mxCell>
        <mxCell id="3SCOILTZdXTUn76-UnPr-67" style="shape=partialRectangle;connectable=0;fillColor=none;top=0;left=0;bottom=0;right=0;editable=1;overflow=hidden;" parent="3SCOILTZdXTUn76-UnPr-66" vertex="1">
          <mxGeometry width="30" height="30" as="geometry">
            <mxRectangle width="30" height="30" as="alternateBounds" />
          </mxGeometry>
        </mxCell>
        <mxCell id="3SCOILTZdXTUn76-UnPr-68" value="Beschreibung" style="shape=partialRectangle;connectable=0;fillColor=none;top=0;left=0;bottom=0;right=0;align=left;spacingLeft=6;overflow=hidden;" parent="3SCOILTZdXTUn76-UnPr-66" vertex="1">
          <mxGeometry x="30" width="150" height="30" as="geometry">
            <mxRectangle width="150" height="30" as="alternateBounds" />
          </mxGeometry>
        </mxCell>
        <mxCell id="3SCOILTZdXTUn76-UnPr-63" style="shape=tableRow;horizontal=0;startSize=0;swimlaneHead=0;swimlaneBody=0;fillColor=none;collapsible=0;dropTarget=0;points=[[0,0.5],[1,0.5]];portConstraint=eastwest;top=0;left=0;right=0;bottom=0;" parent="3SCOILTZdXTUn76-UnPr-1" vertex="1">
          <mxGeometry y="210" width="180" height="30" as="geometry" />
        </mxCell>
        <mxCell id="3SCOILTZdXTUn76-UnPr-64" style="shape=partialRectangle;connectable=0;fillColor=none;top=0;left=0;bottom=0;right=0;editable=1;overflow=hidden;" parent="3SCOILTZdXTUn76-UnPr-63" vertex="1">
          <mxGeometry width="30" height="30" as="geometry">
            <mxRectangle width="30" height="30" as="alternateBounds" />
          </mxGeometry>
        </mxCell>
        <mxCell id="3SCOILTZdXTUn76-UnPr-65" value="VerfÃ¼gbar" style="shape=partialRectangle;connectable=0;fillColor=none;top=0;left=0;bottom=0;right=0;align=left;spacingLeft=6;overflow=hidden;" parent="3SCOILTZdXTUn76-UnPr-63" vertex="1">
          <mxGeometry x="30" width="150" height="30" as="geometry">
            <mxRectangle width="150" height="30" as="alternateBounds" />
          </mxGeometry>
        </mxCell>
        <mxCell id="qlqJOS4uyU8F7BAGSJQI-38" style="shape=tableRow;horizontal=0;startSize=0;swimlaneHead=0;swimlaneBody=0;fillColor=none;collapsible=0;dropTarget=0;points=[[0,0.5],[1,0.5]];portConstraint=eastwest;top=0;left=0;right=0;bottom=0;" vertex="1" parent="3SCOILTZdXTUn76-UnPr-1">
          <mxGeometry y="240" width="180" height="30" as="geometry" />
        </mxCell>
        <mxCell id="qlqJOS4uyU8F7BAGSJQI-39" style="shape=partialRectangle;connectable=0;fillColor=none;top=0;left=0;bottom=0;right=0;editable=1;overflow=hidden;" vertex="1" parent="qlqJOS4uyU8F7BAGSJQI-38">
          <mxGeometry width="30" height="30" as="geometry">
            <mxRectangle width="30" height="30" as="alternateBounds" />
          </mxGeometry>
        </mxCell>
        <mxCell id="qlqJOS4uyU8F7BAGSJQI-40" value="Hersteller" style="shape=partialRectangle;connectable=0;fillColor=none;top=0;left=0;bottom=0;right=0;align=left;spacingLeft=6;overflow=hidden;" vertex="1" parent="qlqJOS4uyU8F7BAGSJQI-38">
          <mxGeometry x="30" width="150" height="30" as="geometry">
            <mxRectangle width="150" height="30" as="alternateBounds" />
          </mxGeometry>
        </mxCell>
        <mxCell id="3SCOILTZdXTUn76-UnPr-11" value="" style="shape=tableRow;horizontal=0;startSize=0;swimlaneHead=0;swimlaneBody=0;fillColor=none;collapsible=0;dropTarget=0;points=[[0,0.5],[1,0.5]];portConstraint=eastwest;top=0;left=0;right=0;bottom=0;" parent="3SCOILTZdXTUn76-UnPr-1" vertex="1">
          <mxGeometry y="270" width="180" height="30" as="geometry" />
        </mxCell>
        <mxCell id="3SCOILTZdXTUn76-UnPr-12" value="FK" style="shape=partialRectangle;connectable=0;fillColor=none;top=0;left=0;bottom=0;right=0;editable=1;overflow=hidden;" parent="3SCOILTZdXTUn76-UnPr-11" vertex="1">
          <mxGeometry width="30" height="30" as="geometry">
            <mxRectangle width="30" height="30" as="alternateBounds" />
          </mxGeometry>
        </mxCell>
        <mxCell id="3SCOILTZdXTUn76-UnPr-13" value="KategorieA" style="shape=partialRectangle;connectable=0;fillColor=none;top=0;left=0;bottom=0;right=0;align=left;spacingLeft=6;overflow=hidden;" parent="3SCOILTZdXTUn76-UnPr-11" vertex="1">
          <mxGeometry x="30" width="150" height="30" as="geometry">
            <mxRectangle width="150" height="30" as="alternateBounds" />
          </mxGeometry>
        </mxCell>
        <mxCell id="qlqJOS4uyU8F7BAGSJQI-1" value="" style="shape=tableRow;horizontal=0;startSize=0;swimlaneHead=0;swimlaneBody=0;fillColor=none;collapsible=0;dropTarget=0;points=[[0,0.5],[1,0.5]];portConstraint=eastwest;top=0;left=0;right=0;bottom=0;" vertex="1" parent="3SCOILTZdXTUn76-UnPr-1">
          <mxGeometry y="300" width="180" height="30" as="geometry" />
        </mxCell>
        <mxCell id="qlqJOS4uyU8F7BAGSJQI-2" value="FK" style="shape=partialRectangle;connectable=0;fillColor=none;top=0;left=0;bottom=0;right=0;editable=1;overflow=hidden;" vertex="1" parent="qlqJOS4uyU8F7BAGSJQI-1">
          <mxGeometry width="30" height="30" as="geometry">
            <mxRectangle width="30" height="30" as="alternateBounds" />
          </mxGeometry>
        </mxCell>
        <mxCell id="qlqJOS4uyU8F7BAGSJQI-3" value="KategorieB" style="shape=partialRectangle;connectable=0;fillColor=none;top=0;left=0;bottom=0;right=0;align=left;spacingLeft=6;overflow=hidden;" vertex="1" parent="qlqJOS4uyU8F7BAGSJQI-1">
          <mxGeometry x="30" width="150" height="30" as="geometry">
            <mxRectangle width="150" height="30" as="alternateBounds" />
          </mxGeometry>
        </mxCell>
        <mxCell id="qlqJOS4uyU8F7BAGSJQI-35" value="" style="shape=tableRow;horizontal=0;startSize=0;swimlaneHead=0;swimlaneBody=0;fillColor=none;collapsible=0;dropTarget=0;points=[[0,0.5],[1,0.5]];portConstraint=eastwest;top=0;left=0;right=0;bottom=0;" vertex="1" parent="3SCOILTZdXTUn76-UnPr-1">
          <mxGeometry y="330" width="180" height="30" as="geometry" />
        </mxCell>
        <mxCell id="qlqJOS4uyU8F7BAGSJQI-36" value="FK" style="shape=partialRectangle;connectable=0;fillColor=none;top=0;left=0;bottom=0;right=0;editable=1;overflow=hidden;" vertex="1" parent="qlqJOS4uyU8F7BAGSJQI-35">
          <mxGeometry width="30" height="30" as="geometry">
            <mxRectangle width="30" height="30" as="alternateBounds" />
          </mxGeometry>
        </mxCell>
        <mxCell id="qlqJOS4uyU8F7BAGSJQI-37" value="KategorieC" style="shape=partialRectangle;connectable=0;fillColor=none;top=0;left=0;bottom=0;right=0;align=left;spacingLeft=6;overflow=hidden;" vertex="1" parent="qlqJOS4uyU8F7BAGSJQI-35">
          <mxGeometry x="30" width="150" height="30" as="geometry">
            <mxRectangle width="150" height="30" as="alternateBounds" />
          </mxGeometry>
        </mxCell>
        <mxCell id="3SCOILTZdXTUn76-UnPr-14" value="User" style="shape=table;startSize=30;container=1;collapsible=1;childLayout=tableLayout;fixedRows=1;rowLines=0;fontStyle=1;align=center;resizeLast=1;" parent="1" vertex="1">
          <mxGeometry x="-260" y="150" width="180" height="300" as="geometry" />
        </mxCell>
        <mxCell id="3SCOILTZdXTUn76-UnPr-15" value="" style="shape=tableRow;horizontal=0;startSize=0;swimlaneHead=0;swimlaneBody=0;fillColor=none;collapsible=0;dropTarget=0;points=[[0,0.5],[1,0.5]];portConstraint=eastwest;top=0;left=0;right=0;bottom=1;" parent="3SCOILTZdXTUn76-UnPr-14" vertex="1">
          <mxGeometry y="30" width="180" height="30" as="geometry" />
        </mxCell>
        <mxCell id="3SCOILTZdXTUn76-UnPr-16" value="PK" style="shape=partialRectangle;connectable=0;fillColor=none;top=0;left=0;bottom=0;right=0;fontStyle=1;overflow=hidden;" parent="3SCOILTZdXTUn76-UnPr-15" vertex="1">
          <mxGeometry width="30" height="30" as="geometry">
            <mxRectangle width="30" height="30" as="alternateBounds" />
          </mxGeometry>
        </mxCell>
        <mxCell id="3SCOILTZdXTUn76-UnPr-17" value="UID" style="shape=partialRectangle;connectable=0;fillColor=none;top=0;left=0;bottom=0;right=0;align=left;spacingLeft=6;fontStyle=5;overflow=hidden;" parent="3SCOILTZdXTUn76-UnPr-15" vertex="1">
          <mxGeometry x="30" width="150" height="30" as="geometry">
            <mxRectangle width="150" height="30" as="alternateBounds" />
          </mxGeometry>
        </mxCell>
        <mxCell id="3SCOILTZdXTUn76-UnPr-18" value="" style="shape=tableRow;horizontal=0;startSize=0;swimlaneHead=0;swimlaneBody=0;fillColor=none;collapsible=0;dropTarget=0;points=[[0,0.5],[1,0.5]];portConstraint=eastwest;top=0;left=0;right=0;bottom=0;" parent="3SCOILTZdXTUn76-UnPr-14" vertex="1">
          <mxGeometry y="60" width="180" height="30" as="geometry" />
        </mxCell>
        <mxCell id="3SCOILTZdXTUn76-UnPr-19" value="" style="shape=partialRectangle;connectable=0;fillColor=none;top=0;left=0;bottom=0;right=0;editable=1;overflow=hidden;" parent="3SCOILTZdXTUn76-UnPr-18" vertex="1">
          <mxGeometry width="30" height="30" as="geometry">
            <mxRectangle width="30" height="30" as="alternateBounds" />
          </mxGeometry>
        </mxCell>
        <mxCell id="3SCOILTZdXTUn76-UnPr-20" value="Name" style="shape=partialRectangle;connectable=0;fillColor=none;top=0;left=0;bottom=0;right=0;align=left;spacingLeft=6;overflow=hidden;" parent="3SCOILTZdXTUn76-UnPr-18" vertex="1">
          <mxGeometry x="30" width="150" height="30" as="geometry">
            <mxRectangle width="150" height="30" as="alternateBounds" />
          </mxGeometry>
        </mxCell>
        <mxCell id="3SCOILTZdXTUn76-UnPr-21" value="" style="shape=tableRow;horizontal=0;startSize=0;swimlaneHead=0;swimlaneBody=0;fillColor=none;collapsible=0;dropTarget=0;points=[[0,0.5],[1,0.5]];portConstraint=eastwest;top=0;left=0;right=0;bottom=0;" parent="3SCOILTZdXTUn76-UnPr-14" vertex="1">
          <mxGeometry y="90" width="180" height="30" as="geometry" />
        </mxCell>
        <mxCell id="3SCOILTZdXTUn76-UnPr-22" value="" style="shape=partialRectangle;connectable=0;fillColor=none;top=0;left=0;bottom=0;right=0;editable=1;overflow=hidden;" parent="3SCOILTZdXTUn76-UnPr-21" vertex="1">
          <mxGeometry width="30" height="30" as="geometry">
            <mxRectangle width="30" height="30" as="alternateBounds" />
          </mxGeometry>
        </mxCell>
        <mxCell id="3SCOILTZdXTUn76-UnPr-23" value="Vorname" style="shape=partialRectangle;connectable=0;fillColor=none;top=0;left=0;bottom=0;right=0;align=left;spacingLeft=6;overflow=hidden;" parent="3SCOILTZdXTUn76-UnPr-21" vertex="1">
          <mxGeometry x="30" width="150" height="30" as="geometry">
            <mxRectangle width="150" height="30" as="alternateBounds" />
          </mxGeometry>
        </mxCell>
        <mxCell id="3SCOILTZdXTUn76-UnPr-24" value="" style="shape=tableRow;horizontal=0;startSize=0;swimlaneHead=0;swimlaneBody=0;fillColor=none;collapsible=0;dropTarget=0;points=[[0,0.5],[1,0.5]];portConstraint=eastwest;top=0;left=0;right=0;bottom=0;" parent="3SCOILTZdXTUn76-UnPr-14" vertex="1">
          <mxGeometry y="120" width="180" height="30" as="geometry" />
        </mxCell>
        <mxCell id="3SCOILTZdXTUn76-UnPr-25" value="" style="shape=partialRectangle;connectable=0;fillColor=none;top=0;left=0;bottom=0;right=0;editable=1;overflow=hidden;" parent="3SCOILTZdXTUn76-UnPr-24" vertex="1">
          <mxGeometry width="30" height="30" as="geometry">
            <mxRectangle width="30" height="30" as="alternateBounds" />
          </mxGeometry>
        </mxCell>
        <mxCell id="3SCOILTZdXTUn76-UnPr-26" value="Adresse" style="shape=partialRectangle;connectable=0;fillColor=none;top=0;left=0;bottom=0;right=0;align=left;spacingLeft=6;overflow=hidden;" parent="3SCOILTZdXTUn76-UnPr-24" vertex="1">
          <mxGeometry x="30" width="150" height="30" as="geometry">
            <mxRectangle width="150" height="30" as="alternateBounds" />
          </mxGeometry>
        </mxCell>
        <mxCell id="3SCOILTZdXTUn76-UnPr-81" style="shape=tableRow;horizontal=0;startSize=0;swimlaneHead=0;swimlaneBody=0;fillColor=none;collapsible=0;dropTarget=0;points=[[0,0.5],[1,0.5]];portConstraint=eastwest;top=0;left=0;right=0;bottom=0;" parent="3SCOILTZdXTUn76-UnPr-14" vertex="1">
          <mxGeometry y="150" width="180" height="30" as="geometry" />
        </mxCell>
        <mxCell id="3SCOILTZdXTUn76-UnPr-82" style="shape=partialRectangle;connectable=0;fillColor=none;top=0;left=0;bottom=0;right=0;editable=1;overflow=hidden;" parent="3SCOILTZdXTUn76-UnPr-81" vertex="1">
          <mxGeometry width="30" height="30" as="geometry">
            <mxRectangle width="30" height="30" as="alternateBounds" />
          </mxGeometry>
        </mxCell>
        <mxCell id="3SCOILTZdXTUn76-UnPr-83" value="Telefon-Nr.:" style="shape=partialRectangle;connectable=0;fillColor=none;top=0;left=0;bottom=0;right=0;align=left;spacingLeft=6;overflow=hidden;" parent="3SCOILTZdXTUn76-UnPr-81" vertex="1">
          <mxGeometry x="30" width="150" height="30" as="geometry">
            <mxRectangle width="150" height="30" as="alternateBounds" />
          </mxGeometry>
        </mxCell>
        <mxCell id="qlqJOS4uyU8F7BAGSJQI-44" style="shape=tableRow;horizontal=0;startSize=0;swimlaneHead=0;swimlaneBody=0;fillColor=none;collapsible=0;dropTarget=0;points=[[0,0.5],[1,0.5]];portConstraint=eastwest;top=0;left=0;right=0;bottom=0;" vertex="1" parent="3SCOILTZdXTUn76-UnPr-14">
          <mxGeometry y="180" width="180" height="30" as="geometry" />
        </mxCell>
        <mxCell id="qlqJOS4uyU8F7BAGSJQI-45" style="shape=partialRectangle;connectable=0;fillColor=none;top=0;left=0;bottom=0;right=0;editable=1;overflow=hidden;" vertex="1" parent="qlqJOS4uyU8F7BAGSJQI-44">
          <mxGeometry width="30" height="30" as="geometry">
            <mxRectangle width="30" height="30" as="alternateBounds" />
          </mxGeometry>
        </mxCell>
        <mxCell id="qlqJOS4uyU8F7BAGSJQI-46" value="EmailAdresse&#xa;" style="shape=partialRectangle;connectable=0;fillColor=none;top=0;left=0;bottom=0;right=0;align=left;spacingLeft=6;overflow=hidden;" vertex="1" parent="qlqJOS4uyU8F7BAGSJQI-44">
          <mxGeometry x="30" width="150" height="30" as="geometry">
            <mxRectangle width="150" height="30" as="alternateBounds" />
          </mxGeometry>
        </mxCell>
        <mxCell id="3SCOILTZdXTUn76-UnPr-78" style="shape=tableRow;horizontal=0;startSize=0;swimlaneHead=0;swimlaneBody=0;fillColor=none;collapsible=0;dropTarget=0;points=[[0,0.5],[1,0.5]];portConstraint=eastwest;top=0;left=0;right=0;bottom=0;" parent="3SCOILTZdXTUn76-UnPr-14" vertex="1">
          <mxGeometry y="210" width="180" height="30" as="geometry" />
        </mxCell>
        <mxCell id="3SCOILTZdXTUn76-UnPr-79" style="shape=partialRectangle;connectable=0;fillColor=none;top=0;left=0;bottom=0;right=0;editable=1;overflow=hidden;" parent="3SCOILTZdXTUn76-UnPr-78" vertex="1">
          <mxGeometry width="30" height="30" as="geometry">
            <mxRectangle width="30" height="30" as="alternateBounds" />
          </mxGeometry>
        </mxCell>
        <mxCell id="3SCOILTZdXTUn76-UnPr-80" value="Login-Name" style="shape=partialRectangle;connectable=0;fillColor=none;top=0;left=0;bottom=0;right=0;align=left;spacingLeft=6;overflow=hidden;" parent="3SCOILTZdXTUn76-UnPr-78" vertex="1">
          <mxGeometry x="30" width="150" height="30" as="geometry">
            <mxRectangle width="150" height="30" as="alternateBounds" />
          </mxGeometry>
        </mxCell>
        <mxCell id="qlqJOS4uyU8F7BAGSJQI-41" style="shape=tableRow;horizontal=0;startSize=0;swimlaneHead=0;swimlaneBody=0;fillColor=none;collapsible=0;dropTarget=0;points=[[0,0.5],[1,0.5]];portConstraint=eastwest;top=0;left=0;right=0;bottom=0;" vertex="1" parent="3SCOILTZdXTUn76-UnPr-14">
          <mxGeometry y="240" width="180" height="30" as="geometry" />
        </mxCell>
        <mxCell id="qlqJOS4uyU8F7BAGSJQI-42" style="shape=partialRectangle;connectable=0;fillColor=none;top=0;left=0;bottom=0;right=0;editable=1;overflow=hidden;" vertex="1" parent="qlqJOS4uyU8F7BAGSJQI-41">
          <mxGeometry width="30" height="30" as="geometry">
            <mxRectangle width="30" height="30" as="alternateBounds" />
          </mxGeometry>
        </mxCell>
        <mxCell id="qlqJOS4uyU8F7BAGSJQI-43" value="PasswortHash" style="shape=partialRectangle;connectable=0;fillColor=none;top=0;left=0;bottom=0;right=0;align=left;spacingLeft=6;overflow=hidden;" vertex="1" parent="qlqJOS4uyU8F7BAGSJQI-41">
          <mxGeometry x="30" width="150" height="30" as="geometry">
            <mxRectangle width="150" height="30" as="alternateBounds" />
          </mxGeometry>
        </mxCell>
        <mxCell id="3SCOILTZdXTUn76-UnPr-75" style="shape=tableRow;horizontal=0;startSize=0;swimlaneHead=0;swimlaneBody=0;fillColor=none;collapsible=0;dropTarget=0;points=[[0,0.5],[1,0.5]];portConstraint=eastwest;top=0;left=0;right=0;bottom=0;" parent="3SCOILTZdXTUn76-UnPr-14" vertex="1">
          <mxGeometry y="270" width="180" height="30" as="geometry" />
        </mxCell>
        <mxCell id="3SCOILTZdXTUn76-UnPr-76" style="shape=partialRectangle;connectable=0;fillColor=none;top=0;left=0;bottom=0;right=0;editable=1;overflow=hidden;" parent="3SCOILTZdXTUn76-UnPr-75" vertex="1">
          <mxGeometry width="30" height="30" as="geometry">
            <mxRectangle width="30" height="30" as="alternateBounds" />
          </mxGeometry>
        </mxCell>
        <mxCell id="3SCOILTZdXTUn76-UnPr-77" value="ist Admin" style="shape=partialRectangle;connectable=0;fillColor=none;top=0;left=0;bottom=0;right=0;align=left;spacingLeft=6;overflow=hidden;" parent="3SCOILTZdXTUn76-UnPr-75" vertex="1">
          <mxGeometry x="30" width="150" height="30" as="geometry">
            <mxRectangle width="150" height="30" as="alternateBounds" />
          </mxGeometry>
        </mxCell>
        <mxCell id="3SCOILTZdXTUn76-UnPr-27" value="Bestellungen" style="shape=table;startSize=30;container=1;collapsible=1;childLayout=tableLayout;fixedRows=1;rowLines=0;fontStyle=1;align=center;resizeLast=1;" parent="1" vertex="1">
          <mxGeometry x="-30" y="150" width="180" height="180" as="geometry" />
        </mxCell>
        <mxCell id="3SCOILTZdXTUn76-UnPr-28" value="" style="shape=tableRow;horizontal=0;startSize=0;swimlaneHead=0;swimlaneBody=0;fillColor=none;collapsible=0;dropTarget=0;points=[[0,0.5],[1,0.5]];portConstraint=eastwest;top=0;left=0;right=0;bottom=1;" parent="3SCOILTZdXTUn76-UnPr-27" vertex="1">
          <mxGeometry y="30" width="180" height="30" as="geometry" />
        </mxCell>
        <mxCell id="3SCOILTZdXTUn76-UnPr-29" value="PK" style="shape=partialRectangle;connectable=0;fillColor=none;top=0;left=0;bottom=0;right=0;fontStyle=1;overflow=hidden;" parent="3SCOILTZdXTUn76-UnPr-28" vertex="1">
          <mxGeometry width="30" height="30" as="geometry">
            <mxRectangle width="30" height="30" as="alternateBounds" />
          </mxGeometry>
        </mxCell>
        <mxCell id="3SCOILTZdXTUn76-UnPr-30" value="BID" style="shape=partialRectangle;connectable=0;fillColor=none;top=0;left=0;bottom=0;right=0;align=left;spacingLeft=6;fontStyle=5;overflow=hidden;" parent="3SCOILTZdXTUn76-UnPr-28" vertex="1">
          <mxGeometry x="30" width="150" height="30" as="geometry">
            <mxRectangle width="150" height="30" as="alternateBounds" />
          </mxGeometry>
        </mxCell>
        <mxCell id="3SCOILTZdXTUn76-UnPr-31" value="" style="shape=tableRow;horizontal=0;startSize=0;swimlaneHead=0;swimlaneBody=0;fillColor=none;collapsible=0;dropTarget=0;points=[[0,0.5],[1,0.5]];portConstraint=eastwest;top=0;left=0;right=0;bottom=0;" parent="3SCOILTZdXTUn76-UnPr-27" vertex="1">
          <mxGeometry y="60" width="180" height="30" as="geometry" />
        </mxCell>
        <mxCell id="3SCOILTZdXTUn76-UnPr-32" value="" style="shape=partialRectangle;connectable=0;fillColor=none;top=0;left=0;bottom=0;right=0;editable=1;overflow=hidden;" parent="3SCOILTZdXTUn76-UnPr-31" vertex="1">
          <mxGeometry width="30" height="30" as="geometry">
            <mxRectangle width="30" height="30" as="alternateBounds" />
          </mxGeometry>
        </mxCell>
        <mxCell id="3SCOILTZdXTUn76-UnPr-33" value="&#xa;Datum" style="shape=partialRectangle;connectable=0;fillColor=none;top=0;left=0;bottom=0;right=0;align=left;spacingLeft=6;overflow=hidden;" parent="3SCOILTZdXTUn76-UnPr-31" vertex="1">
          <mxGeometry x="30" width="150" height="30" as="geometry">
            <mxRectangle width="150" height="30" as="alternateBounds" />
          </mxGeometry>
        </mxCell>
        <mxCell id="3SCOILTZdXTUn76-UnPr-34" value="" style="shape=tableRow;horizontal=0;startSize=0;swimlaneHead=0;swimlaneBody=0;fillColor=none;collapsible=0;dropTarget=0;points=[[0,0.5],[1,0.5]];portConstraint=eastwest;top=0;left=0;right=0;bottom=0;" parent="3SCOILTZdXTUn76-UnPr-27" vertex="1">
          <mxGeometry y="90" width="180" height="30" as="geometry" />
        </mxCell>
        <mxCell id="3SCOILTZdXTUn76-UnPr-35" value="" style="shape=partialRectangle;connectable=0;fillColor=none;top=0;left=0;bottom=0;right=0;editable=1;overflow=hidden;" parent="3SCOILTZdXTUn76-UnPr-34" vertex="1">
          <mxGeometry width="30" height="30" as="geometry">
            <mxRectangle width="30" height="30" as="alternateBounds" />
          </mxGeometry>
        </mxCell>
        <mxCell id="3SCOILTZdXTUn76-UnPr-36" value="" style="shape=partialRectangle;connectable=0;fillColor=none;top=0;left=0;bottom=0;right=0;align=left;spacingLeft=6;overflow=hidden;" parent="3SCOILTZdXTUn76-UnPr-34" vertex="1">
          <mxGeometry x="30" width="150" height="30" as="geometry">
            <mxRectangle width="150" height="30" as="alternateBounds" />
          </mxGeometry>
        </mxCell>
        <mxCell id="3SCOILTZdXTUn76-UnPr-37" value="" style="shape=tableRow;horizontal=0;startSize=0;swimlaneHead=0;swimlaneBody=0;fillColor=none;collapsible=0;dropTarget=0;points=[[0,0.5],[1,0.5]];portConstraint=eastwest;top=0;left=0;right=0;bottom=0;" parent="3SCOILTZdXTUn76-UnPr-27" vertex="1">
          <mxGeometry y="120" width="180" height="30" as="geometry" />
        </mxCell>
        <mxCell id="3SCOILTZdXTUn76-UnPr-38" value="" style="shape=partialRectangle;connectable=0;fillColor=none;top=0;left=0;bottom=0;right=0;editable=1;overflow=hidden;" parent="3SCOILTZdXTUn76-UnPr-37" vertex="1">
          <mxGeometry width="30" height="30" as="geometry">
            <mxRectangle width="30" height="30" as="alternateBounds" />
          </mxGeometry>
        </mxCell>
        <mxCell id="3SCOILTZdXTUn76-UnPr-39" value="User_Id" style="shape=partialRectangle;connectable=0;fillColor=none;top=0;left=0;bottom=0;right=0;align=left;spacingLeft=6;overflow=hidden;" parent="3SCOILTZdXTUn76-UnPr-37" vertex="1">
          <mxGeometry x="30" width="150" height="30" as="geometry">
            <mxRectangle width="150" height="30" as="alternateBounds" />
          </mxGeometry>
        </mxCell>
        <mxCell id="3SCOILTZdXTUn76-UnPr-57" style="shape=tableRow;horizontal=0;startSize=0;swimlaneHead=0;swimlaneBody=0;fillColor=none;collapsible=0;dropTarget=0;points=[[0,0.5],[1,0.5]];portConstraint=eastwest;top=0;left=0;right=0;bottom=0;" parent="3SCOILTZdXTUn76-UnPr-27" vertex="1">
          <mxGeometry y="150" width="180" height="30" as="geometry" />
        </mxCell>
        <mxCell id="3SCOILTZdXTUn76-UnPr-58" style="shape=partialRectangle;connectable=0;fillColor=none;top=0;left=0;bottom=0;right=0;editable=1;overflow=hidden;" parent="3SCOILTZdXTUn76-UnPr-57" vertex="1">
          <mxGeometry width="30" height="30" as="geometry">
            <mxRectangle width="30" height="30" as="alternateBounds" />
          </mxGeometry>
        </mxCell>
        <mxCell id="3SCOILTZdXTUn76-UnPr-59" value="Artikel_ID" style="shape=partialRectangle;connectable=0;fillColor=none;top=0;left=0;bottom=0;right=0;align=left;spacingLeft=6;overflow=hidden;" parent="3SCOILTZdXTUn76-UnPr-57" vertex="1">
          <mxGeometry x="30" width="150" height="30" as="geometry">
            <mxRectangle width="150" height="30" as="alternateBounds" />
          </mxGeometry>
        </mxCell>
        <mxCell id="3SCOILTZdXTUn76-UnPr-40" value="Kategorie" style="shape=table;startSize=30;container=1;collapsible=1;childLayout=tableLayout;fixedRows=1;rowLines=0;fontStyle=1;align=center;resizeLast=1;" parent="1" vertex="1">
          <mxGeometry x="-190" y="540" width="180" height="120" as="geometry" />
        </mxCell>
        <mxCell id="3SCOILTZdXTUn76-UnPr-41" value="" style="shape=tableRow;horizontal=0;startSize=0;swimlaneHead=0;swimlaneBody=0;fillColor=none;collapsible=0;dropTarget=0;points=[[0,0.5],[1,0.5]];portConstraint=eastwest;top=0;left=0;right=0;bottom=1;" parent="3SCOILTZdXTUn76-UnPr-40" vertex="1">
          <mxGeometry y="30" width="180" height="30" as="geometry" />
        </mxCell>
        <mxCell id="3SCOILTZdXTUn76-UnPr-42" value="PK" style="shape=partialRectangle;connectable=0;fillColor=none;top=0;left=0;bottom=0;right=0;fontStyle=1;overflow=hidden;" parent="3SCOILTZdXTUn76-UnPr-41" vertex="1">
          <mxGeometry width="30" height="30" as="geometry">
            <mxRectangle width="30" height="30" as="alternateBounds" />
          </mxGeometry>
        </mxCell>
        <mxCell id="3SCOILTZdXTUn76-UnPr-43" value="KID" style="shape=partialRectangle;connectable=0;fillColor=none;top=0;left=0;bottom=0;right=0;align=left;spacingLeft=6;fontStyle=5;overflow=hidden;" parent="3SCOILTZdXTUn76-UnPr-41" vertex="1">
          <mxGeometry x="30" width="150" height="30" as="geometry">
            <mxRectangle width="150" height="30" as="alternateBounds" />
          </mxGeometry>
        </mxCell>
        <mxCell id="3SCOILTZdXTUn76-UnPr-44" value="" style="shape=tableRow;horizontal=0;startSize=0;swimlaneHead=0;swimlaneBody=0;fillColor=none;collapsible=0;dropTarget=0;points=[[0,0.5],[1,0.5]];portConstraint=eastwest;top=0;left=0;right=0;bottom=0;" parent="3SCOILTZdXTUn76-UnPr-40" vertex="1">
          <mxGeometry y="60" width="180" height="30" as="geometry" />
        </mxCell>
        <mxCell id="3SCOILTZdXTUn76-UnPr-45" value="" style="shape=partialRectangle;connectable=0;fillColor=none;top=0;left=0;bottom=0;right=0;editable=1;overflow=hidden;" parent="3SCOILTZdXTUn76-UnPr-44" vertex="1">
          <mxGeometry width="30" height="30" as="geometry">
            <mxRectangle width="30" height="30" as="alternateBounds" />
          </mxGeometry>
        </mxCell>
        <mxCell id="3SCOILTZdXTUn76-UnPr-46" value="Bezeichnung" style="shape=partialRectangle;connectable=0;fillColor=none;top=0;left=0;bottom=0;right=0;align=left;spacingLeft=6;overflow=hidden;" parent="3SCOILTZdXTUn76-UnPr-44" vertex="1">
          <mxGeometry x="30" width="150" height="30" as="geometry">
            <mxRectangle width="150" height="30" as="alternateBounds" />
          </mxGeometry>
        </mxCell>
        <mxCell id="3SCOILTZdXTUn76-UnPr-54" style="shape=tableRow;horizontal=0;startSize=0;swimlaneHead=0;swimlaneBody=0;fillColor=none;collapsible=0;dropTarget=0;points=[[0,0.5],[1,0.5]];portConstraint=eastwest;top=0;left=0;right=0;bottom=0;" parent="3SCOILTZdXTUn76-UnPr-40" vertex="1">
          <mxGeometry y="90" width="180" height="30" as="geometry" />
        </mxCell>
        <mxCell id="3SCOILTZdXTUn76-UnPr-55" value="" style="shape=partialRectangle;connectable=0;fillColor=none;top=0;left=0;bottom=0;right=0;editable=1;overflow=hidden;" parent="3SCOILTZdXTUn76-UnPr-54" vertex="1">
          <mxGeometry width="30" height="30" as="geometry">
            <mxRectangle width="30" height="30" as="alternateBounds" />
          </mxGeometry>
        </mxCell>
        <mxCell id="3SCOILTZdXTUn76-UnPr-56" value="" style="shape=partialRectangle;connectable=0;fillColor=none;top=0;left=0;bottom=0;right=0;align=left;spacingLeft=6;overflow=hidden;" parent="3SCOILTZdXTUn76-UnPr-54" vertex="1">
          <mxGeometry x="30" width="150" height="30" as="geometry">
            <mxRectangle width="150" height="30" as="alternateBounds" />
          </mxGeometry>
        </mxCell>
        <mxCell id="3SCOILTZdXTUn76-UnPr-53" value="" style="shape=image;verticalLabelPosition=bottom;labelBackgroundColor=default;verticalAlign=top;aspect=fixed;imageAspect=0;image=data:image/png,iVBORw0KGgoAAAANSUhEUgAAAggAAAGQCAYAAADLIZjQAAAAAXNSR0IArs4c6QAAIABJREFUeF7snQeQZFd19897PT15NmftSrsr7a4ySiwLChiBSJJINmADxhgjC1Nlgl2UKbtKdrko63O2STY2wYDBJliACTJCSCARJLQKKIfVarU5zO7O7OzE7n7vq9+9fabf9HZ4nadn7t2amtnuF+479757/ud/wvWGhoZCcc1JoEUSSKfT8vTTT8sjjzwil1xyiWzatKlFPXG3dRJwEnAScBKISsBzAMFNiFZJYHJy0oCDI0eOGHCwaNGiVnXF3ddJwEnAScBJIE8CDiC4KdF0CYRhKOPj47J7924BJLzgBS9oeh/cDZ0EnAScBJwESkvAAQQ3Q5oqAcDB0NCQ7N27VxKJhJx77rlNvb+7mZOAk4CTgJNAPAk4gBBPTu6oOkng4MGDxq2wePFiueCCC+p0VXcZJwEnAScBJ4F6S8ABhHpL1F2voARgDp5//nl58sknZdWqVXLRRRc5STkJOAk4CTgJzGIJOIAwiwdnrnQNcABr8Mwzz8iZZ54p55xzzlx5NPccTgJOAk4Cc1YCDiDM2aGdHQ8GOCCFcd++fbJlyxbZuHHj7OiY64WTgJOAk4CTQEkJOIDgJkjDJAA4uP/+++X48eOGNTjttNPE87yG3c9d2EnAScBJwEmgfhJwAKF+snRXikgAcHDffffJyZMn5bzzzpPly5eL7/tORk4CTgJOAk4CbSIBBxDaZKDaqZuAg+3bt8vw8LCpcbB06VIHDtppAF1fnQScBJwERMQBBDcN6ioBwMEDDzxgqiNeeumlsmzZMudWqKuE3cWcBJwEnASaIwEHEJoj53lxF8DBww8/LLt27ZKXvOQlxq3gmpOAk4CTgJNAe0rAAYT2HLdZ1+sgCOTxxx+Xp556Sq644gpZuXLlrOuj65CTgJOAk4CTQHwJOIAQX1buyCISyGQypsbBo48+KpdffrmsXr3aycpJwEnAScBJoM0l4ABCmw9gq7sPONixY4cBB7gVHDho9Yi4+zsJOAk4CdRHAg4g1EeO8/IquBWokPjYY485cDAvZ4B7aCcBJ4G5LAEHEOby6Dbw2QhIJN7giSeekG3btjnmoIGydpd2EnAScBJohQQcQGiF1Nv8ngoOnn32WbnssstcQGKbj6frvpOAk4CTQCEJOIDg5kVFEgAcEJC4d+9es12zS2WsSHzuYCcBJwEngbaRgAMIbTNUs6OjJ06cMFs2sysjFRJdcxJwEnAScBKYmxJwAGFujmvDnmpiYkJSqZT09/e7CokNk7K7sJOAk4CTQOsl4ABC68fA9cBJwEnASaBpEmADtfHxcecebJrE2/dGDiC079i5njsJOAk4CVQsgeeee04OHTokL3rRixwLWLH05tcJDiDMr/F2T+sk4CQwzyVw+PBhAxDOOuss6enpmefScI9fSgIOILj54SQwDyVANornefPwyd0j416g+ingAJDgmpNAMQk4gODmhpPAPJNAOp02Ra4INF27dq0kEol5JoH5/biM/0MPPST83rp1q/i+P78F4p6+qAQcQHCTw0lgnklgcnLSPDG7b65bt06WLVs2zyQwvx+XEunUMhkdHZXzzjtPurq65rdA3NM7gODmgJOAk4CVAAAB90JnZ6cTyTyUAO4lwCHz4JJLLpmHEnCPHFcCjkGIKyl3nJPAHJEAigF6Gcuxo6NjjjyVe4xKJMAeKmNjY3LxxRc7F0MlgptnxzqAMM8G3D2ukwDg4ODBgzIwMCALFy50ApmHEmD8h4eH5YwzzpDu7u55KAH3yHEk4ABCHCnNomNY3GnO8ptFg9JmXclkMvLoo4+a2IPTTjutzXrvulsPCZDJcPTo0VkLEomTIBWTAEpKurv1rh6jXvk1HECoXGYtOwPfIS8N+yGQnuSij1s2FG19Y+bRD37wAxOgSJCaa/NPAhgae/bsMamOq1atmlUCYH7u27dPqNewevVqU/Fx7gOEMOYYNDc12QGEmMMyWw4bGhoyvkNeagcQZsuotF8/vv71r8vGjRvl0ksvbb/Oux7XLAEs9IcfftgAhC1bttR8vXpeAGZj586dsmbNGvPTfvU6Civ7/fv3ChnFy5YtNr89LyMi/EyJSEo8L5X9Oy2eR6YR/w+yovUlkzlbRHAJNg8kOIBQz5ntruUk0CYS+Pa3vy3r16+XF7zgBW3SY9fNekvgvvvuM4GqbNs+W5Qw7AE1OkjBvPDCCyWZTNb7sSu4XjmrHnev/bHKHWWuyp7fVsl73oT5fMeOJ6W3F8Zmhfi+J57H8fqjYIHfgXge1+Vv7UNC0umrJQzXOIBQwQi6Q50EnASqkMBPfvITQ99u3ry5irPdKXNBArt27TKpjgDF2VILAXaUfvX19ZkAyvq0fEWv/+d3VMmrUka5U2nUKnurxMezFj8Kn8/5UQWuSp7e6meq6PnO/j00dNwUJePZSrO/MAS+hCEZRgCkhIRhtwTBCyUMlzqAUJ9J4a7iJOAkUEwCTz/9tMlgWLlypRPSPJUAgYr4+RcvXiwLFiyYFVKAPQAgvPSlLy2SXXGqsg9DpetR2lGL3ipxzxvLfj5mLH1L3/PDsVyv0A/iACQoxc/v6HH6eRyxoeA7JAioWNohnkdhKqpX2t9h2Csi1CTpljDkM/bHILMEoKA/HMdnza166lwMccbXHeMkMMckgJ8Xq5Fyy67NTwmQzfLII4+YIMDWZLNElX0oxEWwR8SxY4dl27aLs9S9WuoU90K5o+xR7hPT1L217lVhR9kBq+RzNH0+EKjfuIchitta/p6HtZ8UtjoJQxgAW8oa5sG6IqIxBKPZTgAABoTrhOEKCcNNEoatB20OINRvjsyaK/Gi7d+/37z0+PRcMOOsGZpZ0xGsR36ohdBaP++sEcm87Mgdd9xhAgHPPpsAuFrbTIVvr4biRimi4JWyV9/8yayP/qRR/GE4LseO7ZNMJh2D2SoXH1Drs7Tu/DBcJJnMJRKGp7euE9k7O4DQ8iGofwfw4918881y/fXXy7PPPivbtm2TDRs21P9G7optK4FUKiW//OUvTbqsczO07TDW2PHQ7Mng+wk5/fTTI0BRffPRy0ctcah5G4Rn6XoNzEPRE5CHsj8p6fSodHSkY28GNjExIYODg8bd0RiXR9Ryrw/AgIXBCIubhsmxFKiizDkZJIWCQy1AuCgLEFq7kZYDCDW+YrPxdCbtXXfdZSYfaWxYiitWrJiNXXV9apEEWKg+85nPyBVXXCHnnHNOi3oxH2+bT4Ejg3LKqtLv1V+u17bK3dLwquitr35iQmTv3mOycuUyGRjAx83n+OqfzNLhOkZE1kORj0kQAAKkKDPJ+kOlxmPHjpk6G+UYzFQKEOEbxblv3wGTdmlZLVXoUcWe+ywM7d85Jaty4vOozAgS9AzdHwQZSaenJAwDSSRQ7GQTFE4bZN3kOypNwsryEwUCfA9TS6Dnpk2byjJxyAWZPPfcc3LuuecWce91ShguMT9BsN64G1rZHEBopfQbfG+YhF/96lfG1+w2ZWmwsNvw8t/5zndMihtR7HOjRa3c3BPBlgwOHpLe3l5ZuHBRrEdFkVBzBIWwYMFAJFgspzDtX+r7JhhO76+KOP+3Kmws7uh1oOCLNRQ73xcDCXyuKXJ6DJa9rbiao/f5Dr99SsKQ721f0+lF8vOfH5Kzzlokq1cnsj7+0oCEYm2sKQS55ivXIBA5cmRQDh06LFu2nC1dXblgO6vQsYhzv1OpUHbtek6SyR45cWJEjh0blquuepl4HhH8NiAvDPHri6BgKSTb1dVhfPX2e4AL14yyHlxfMxL4G0CTkiAYkaNHD8jQ0BFzrUWLFsmSJUsKBkNOTU2ZaqO8G8TpjIyMmL5Q1ZEGKIB9ISOBgmOlGATAONc7cOCAPPnkkwY04f4tDJw0g6EnyyKcFWu+NuogBxAaJdlZcF3ounvuuUcuuugiQ2nhb4bWcs1JAAlgybD4seiVs/Jqk1hU4eRHhUetWhb7/JSxaLS4Kj1VzCjGaNOUspm+cCoGPvTQL03a3IUXxqn7EJpqpffff7+sWbNKzj77TEmnQxOJbhUBSpu+qH9drWv9DIVkv7PFcFDwpUBAbdK1Z6vSRaFiFVtq2irlXCS8/RvFyvf8TstPf/qorFvXJ6efvsjk5+u1rGLG8uZYq9j5+4EHHpLly1fK6acDLDU4jyj9UA4ePGaqIG7efK4sWLAoe3+9nyp2ZMi1fZmYCEzWwuHDQ/L887ukq6tTrr321UZp+77Kd0rS6THZv3+XpFIjsnkzvnlkPC5BMG6egfTBUk2rM2LBY+1zvFL9rIvR+c+xKHKeHYDAOgqjoa44vt+9e7dR+oCDUntZpNMZOXnypClrzTlLliyVLVvOla4uMhd0DOg7jEkyG9RINkO/hOFawyS0sjmA0ErpN/jeUGC67zuKANQKYnatXSUQpVBrfwZ8vjBMuBji+3zzlb1abqrosaRRimkJw7QEwaRkMlis0LNYqBSViZ5jc8TtD9/ZH2sRagS7BQTW361NK9CVlgMlhakYSEGockpk+sqZjJAGyl4VRPjDxKlvHKuzmc1GwZMCp5a3pctzSh5l0hdRNihxa13bKHpVzpxvI+rDkOuhpEmpS8uRI4/JyZP7Ze3a5dLVpXn3PCXX0OvZ+weBJ/fdt11Wrlwj69dvMArNgrouGRw8KOwSefrpa+SMM9ZlxzQjQZCSyckx6ejwJZnkOnYsmQdhCKsRSBim5OjRQ7J3724566zTpbe3e3q8GEOUK/FUKHeUNkoaqx7li/GDJa/GD64A+h1lN7gGxtJll11mFDr/P3LkiAGCVKVl/uvxAAfmDKwraaCJRIecfjrPYxvXZ10lPXTFCspUMx4dcvjwESOfpUuXy/j4lIyMjMvo6LgBl729fTI4eExWr15j6o/kQFufBAFrsqY4KuOCnBinqKulmTMvCzuHhobKObia3yt3RyeBeSsBfR3VerLWp+dhKWE1dRnLoh6Nhe7Tn/60vO51r4uV5uZ5R8XzjmetYQsCoopd/4byHhkZlMOH95pANQACyj6Z7DAR84DVZlXuAwShXCopCIXSIN2OrZChoqGGUUQE8qGImtnIi7d58lZZWyZCi+iQEneaBAExJHHy4xkzDSzUsr4pSadHZPv2x+Tcc9fJwoX6fNatYcEec9ICOJT944//SpYuXSRr1izPKnsAwLj84hc/kf7+PqOEtaHIsdoZB8adH6x1lDPgS+cBx+HSQfZr1641coetYY7CAPHD3DnzzDPNObiNGCPcRvwADrg2QA7lDysWzc7hs1/84hfykpe8ZAZQ5LrcA+OJ+9EPUj9xofDDNfJTQDl+797D0tu7UJYsWZl1h3TI008/JQcPHpLFi5eJ56HY7Vbqa9asla6uHtm163lZsWKJLFuGy8pmddixJZ1R3UScYQEgLAKllYOAOATGpXkllnX8HIPQzLfd3WueSyAfi6NgUf65qHAbIAYYiKaFRQHCIlNyVRefWgV6++23m5K20cW62DU974D4/kPi+4PZBa343VEABKqxyGK5s+CzsKIAsOabVbmPfrDwY+3FaSiIhx9+RDZu3GAUzvHjx00gGvtWoIhObTYgDveDZUZY2NXa52gYleIxBNyvOrCEZY9C2yiZzNYCAMHONVtECFYGS/158bxj2bmlbg9bXOiHP3xcLrhghaxaNWCYh2KNccR6honUwGfG9fHHHzfKFdodl6ayNZRMxgonXgFwhcIFCDA3SK1Uap9zNfWWvzkHS5/5QuN+KGq9Lgof1wRjAtPDGHMvWAbYAMBcNC5ArX6+gzFQmTM/AC88C3OS48juYb7AFhXK8EGmo6OT4vvd0t3dN30tWJLDh/cbxon7AFK6uixjQszC3r17zXXjs7jMJWIRSHmkqmQcEBhnlsc/xgGE+LJyRzoJlJBATvnnKrup8o+yAERGa7EXLfNqrXGrSGyVt5zlphYFiz0RzoslCC6VMMR6q71h3UELk+1Sypdq75SSROIe8bw9WUobC4kfS7Hm3AKjkk5PGIUB/ctizoKMMmBRZ1F+4QtfWKVirOyZH3zwQeNCKf9s2SdMpYw8CN7ESmVRR9GgcAo3jZjXxVt99vq5xivMBIea7oayRMnlZxnp9z09C6SzE0sSupnxx5KEVYCS5rPeSPldGwthCwcxx/jhbwUIz0Ro65lPs2sXzJDIunULTUZBscZYPv/880Z5ogDpJxsroWRhaYg/AAwoIOP/fIdbAOWOAn7ssccMG4CijIIjBZEcDzBgvgDO8PPnA1juy3EAOJQv/eIcxhkwVyjWCsUNY8B1kTf3IzYAIAgQ4HOuCwsBWIjvdis/J7ku/dP0xvJn5LI1MpkXSRAQrOgAQnm5uSOcBFoigZmBbzOLv7Aoa2U3XZxJCVP/utKHyhgABKIbsUQfCAWDbxhrtUeCAPqRn76sP5lAJhRGIWu2csGwYH/sYx+Td73rXWbRL9esBYrimRmNjoXq+w9mU+RsLXttWrVR6Xm2mn7lK1/Z4MBIAFUo3/zmN+X1r3997PgDwAHKAuWF8sZaxiJWuloVNyAHS1TdJSipfFYE2QIyUEQoHRQqMuAaKD6UGv8HpFkXCBajjQHYvXuf/OpXj8lll22VNWuorKfuBQVlsAd8lgvitAyGun60ap8GRwIS9pk5VSh1bnIyLfffv08uueQ06e621HihRp9R+ihPQIC6Y2ADADr8Hyv+4ovJ4xcDJpABsQM8N/9HEUfZgGL3Qm7KPhRmb8TIEOYA5gIZA04AH4Ua9+dYYhe4Nv0ASHDtxjJa0dRMW27Z/qgbgvRL+77bFi3DDCjEGHAuhnJrk/veSaCBEogyABqVPpkNokL5jxqrzNL/KEhV+jN3Y8tt4Vq+VrulolmwefkXGHaAIik2eMwGmlmFkfNnNkIAUKr4djWFq7J7YCEfEd/fJ77/yAyFpdfBh88irIFgd999t7z4xS+OXVymsv7kjkZBs2vlG9/4xliX4Pjvfe978trXvtYoM2IXAABRKh0Fh4Ih8h1AhULCksWKPv/886fvo1Hz0OZq7VKUCjmgpFCySoMDFixDYTMRJiYm5ZFHHpVUKmOYjP7+HkNbd3UlpmWG0kV5ElAHxT6TgdC5rEBUY0WYkwTBLcvGMuTSLenjLbc8Ji9/+VmyaBHHFAcIsCo8NzJ47LHHTQCfMgbKugCeUL6kRKK4kRVKXMEQ55Zras1zbDkGCPkAROlXOctfgRvsBcCvOhdP4d5bVgcQzzus7zQAXwNDFVhHUz55zzVtk+uemg5aTlaN+t65GBolWXfdWSwBXUC1KAyKnx9Kvw6JyInI9q02QMtGakcj7uM+nrUecpuw9EsQAAJYPMipxhLUNDLN/VZrkXvicigWRwxwwOqojXpEiVE06b3vfW/ZYi/5T03gYiJxR2Qv+1PlglJl0UZJsOh/97vfNVU+67kwR+/KPfjBSgT8XH755ad0iu9RKPxGueFGgAWAQYAxQOFs377dFJJS6hn3COAAZc65MA3Q5jAiL3vZy4xy0gb1jQJXZQT4QomjkAiWs4qfVDZqEaRnyJ0UO2RGbAjn8DdBkvRD0+7oH9dUhiK686HnHTRz2e4GqAAUpa/zTOsGzJxXO3Yclc7OhHEzFBsb+gpAYDyJI+CZicqPxhIgR54LgMAYAIjoJ8+u/Y5b3lst/XJzBVkjIwIcofFb16JpogOSyVyYjR/Qz1vXs2ru7ABCNVJry3NKJavkf2cjluM39UGrQlN/Ogs1LyvWQm1KLH5fZqiK7H+0X7AAKH+i8QfNIprz9Wuktv62FHW5hYljDOY3kV24B1iIWZT5jZ8YVoDKaEShU6TGpvlZHzGAgwIs0J264YzdO962cglGvmQyF2Sj2GuLcMbShvaPXyfD9s33H5ZE4sEs04HVhExnjhYKT9kJKHtiAuIGDVYz7lj+KHoNBkMZ51ugKDkUF4oeeh8rHEWsOxuiyLiO7lGAuwGrH184PwAFlBxpoli4VMaLRuTjgsB6RoFyDxS9KtI777zTAA8NoovOMfpEwJ8G09EnKHOuw/25L2XTu7t7JQi65MQJWIJeWbKE1D/m2ULx/fvE9w9kRRetg1BamhMTadm+fa+8+MVnSCJReD4BEHgu+gkQgHkqRP9H3x19R1D2yBW3StyU07jjD3iDoagkWyXutas9DlegDTDcWO0lWn6eAwgtH4JaOpDvF9fcca2NrtufEvSmaXK2mhr/RzlSchSl2ahGGk8mc02WOm/UXfKvCyAYMiCAhdL3D5lgrXJKN7qoYVWrtVOs1yx4bE+bSvly4YVbTcqSDQjjXvyomyF/sS2n+OPKibz0VRKGa0zddpRDtY3n/fjHPy4f/vCHy4IikeGsTA9IIrG3bBEgZISyhmpG0ZI+WI4yjvMcqnhyAC13ltL6KA3+jsZXMK7krKOoRkZOyLJlq42Sv/POu2TbthdLd3ePDA4eke7u0ChqWADqIqAcqYKnaXakw3GtrVu3zrBasZYBBShSzsey1Sh8eoi1S7AcDeBAEB4N/z2KjmtyDxgGwMBMBewZqzQILjDX3b+f1LkVsmgRcSm2emBHx08FFsGCcg0ijSNRkX//9/vkne+8xFQrLARQmfOAIvpINkocV4HeWdmEygFC7v2xTBwN5o3MEd9so7xz5y5Tb2DLlvPqmA6oQcTxZJd/FBkIdlfGwjER1V21uWc5gNBceVdwN5RIvlWLxanBcNYvjgXq+yNZehyKvF7Kp4KuRg5lMdZCJZaa7ZZM5ors1qU2ACv3U909Sp2Fhd7R8T3xfRuVXfpYAoB6jPzGx0dNcZQXvehFRqFgYeJXZl/6Qk03O0I5sFA30iIu/xzki2+TIEDRRIvoVMYqfOUrXzEsAtZ0qYZLwfdRcPHmGgCBa6IkkS07CF555ZVlA8OYRygiLO0ooNB0ScYIHzwWNhR7fjVIzkUpRZUYhM+zz+6SyUlPBgZWGEp92TJSMQO55ZZbTEAj18G9wNjSADYode6hMQQABuh+xh4FH2UBUPT6zBxDvj4MQH6mAiwDVji0eKWNAEX2FMCSp08zaXUbDEsLguWSyZAWG2/Tn6eeetawSKefvsG8R9btlguys/3U/5ca/1PPoQwzsgH4JBIwbIAQ+9v64Hkfre9eCwfZ/7NuaOVB2wPeP0AWzBSyZzyYI9E4kEpl6o4/VQIOIMyKWZErRGLz4nm5oWqxQvl9XDwPi7j+AGAmRV67MLBECURiUc4PFrK+9kUSBBslCAjKqv9+52E4JZ2dXy2bpx99UhTOgw8+ZFL9WPzYPAaFQNnZ1auplEbLLYYcD21O0BnKCwVSaDMsLE4WMhbvelOqBV5lw2DAIoThagnDZdlo9fiuHZTVJz7xCXn/+99fMhYhkcBC3Z/N+7e18nOBVcxdwGtOXtD90PK6mGtsAGCsWIln5iU+bih2rPFXvepV04VzDhzYbwrSRPPtC81cxgWlgULSpvOTqHWCJwEuUP/06ac//el0zAGWvO6AiquBQELYA0AH56H4GXuUU6niSTwH9+TYqBJnDuFquOqqqyqO+6jsLU1KKvXmbJBc+TMJuLSxFy8R339SfP/prLsMVyHplZphA/Not2vOvRuAAuv/1/gHq9xxtWlaJt+i7Pm8+qYxJNTxoM+MI2C+Ekaj+rvPnzMdQGjZWFu/uEbFW580QOCQ+D6BcuWj4Gd2PWot2sWZRQglVSpoBwsIX2o90nx4aUH16XQgGzeeGbFaNNJflQa04BmSyRS2zmsZEjaiSSZvjWxDm1+v/9Srs8Dcc8+98tKXXmMWruHhEya97bLLLsoWutEARXsuihQFQupWMQWHwoFiZr8D/Njqgwc85RdK4VjaqSDCBpXZtMZigVf5WRTWvURLp19W8Z7yBPXxTIClYvEXNtUREGDlEQT0zwKRROJe8bzdM+IQ2NOAtDaC+vSayIG5WWyXUVwRsANEw992222G2WCO4jJQwNHZ2SWdnUlj8RYKesNnj9yj7AOAA+aB62J5a/477wrUORZo/rWwejUtkXeJZwEU0EfuXc27w7kAGEBmfZvGHNjIeOsHf3XswlrI4Ytf/KK8/e1vN5UvbauMiarv87irtVICDiC0RPpUV8M/vtP4Cm0MQDy6tlB3dXOWbLxctrZ5YBYwFmICiaINiwalxOJGzrLWIq9VFACDHTv2mMDEs8+m/Kvm/RN4RzS+Bj4SzLcmCxCgF20RmLg0aLF+2jLAR8X3j4nnDYsIvzX2oPjTYRFiZWJ9sEDCHuBeoCxroQag0PSyqFLXPGu+R5FB/+rmMEqvo+ywhq1iDaarx/X09EpfH5kNWnvfWl3IJQg2ZzdtUdAYdT8hW2oQ2AwM4i2sAmd72g0VgzD6/YUvfMFkGTAvKmnIP5GAlp4Z4EoNfCL/sdQVIAAOKGIEECkEsgAqUPdYhliJ11xzzXRQH+cyZihtlDyyxcWTHywHEOCeOkawOVDRgDsCF3m+fKue5427cVW17BvnYaXjw58J3gGDhSzraGVGVdjRDZc4Tzf+sfPHlmim5gJ1/8vXt4iO87333mvcHvklhiuZC+7YuSEBBxBaMo6Tkkg8LL7/WNG7ozy0TGw1+emcD0ULPbpt27YZ90FpsViyqGrVuLiLYm5jHWtVW2WAxcre8ik5dGhcensXyPLl5PbjFiFOQmlIW3bURvuvkiA4N0KLn2Ei/qtvoSQSd4nvP18R+8JiTewBCgMZwA5Q6Q3lUargCsAKUEHwm1qoXAtgAYsC+JqaSsmZZ2409DpWKd+j+KDWtfIbIILvVq0i0BD6lsAmsj5wFfD/qPWmRW8ACARDarYJrIFN06RgkZUvZWPPNzKutAGQUBIAmUpSxgC6icSd09X7FBDeey87KZ4uK1dS4tb2Blkwv1Hu+VvlAnh/+cv7ZPnyFaYWgOcl5KyzNkcYDc0Txxc9ZZia8fFJWbMGy560T+SjrhVb0yIMiaC3QYC8G7A6cVPtKpWDI/KlAAAgAElEQVRfqeMZd0AY84c5F23UwIBZO7WMtoIBPVpBtfXbWx++buxT++Y+uFFgfYgTcW1+S8ABhJaMf3mAAP2IlYqljyUVP/0stwCTiw1AwFdbqLFQYsmwuUoOIEStUy0GpHERtnQwi60FB3ZHPRszEcjJk6MyMTElS5asyG5gooFRqsi4NrnfWDeAARQhi1s0X7jaAbHBiZZFiN9QVOSlqz8cmUM1U8insHK0yolgSCxYxgXZaZQ84AuFpecCNNRHDcND8NrKlSuMcgSgAS4q85uqckS2WkPB7sxHwKUtvQuwYJc4lE3lOeEosPvuu89Y3silXKpnTtqpbHodoJCUUoJnA3niiUdk+fKlsnSpzgsLEFDqiQQBdnaXQVWMbBtMjEcmw1wLZfPms802wHbzIK3SaGtS8P/R0ROyd+8eWbZshSxZgrXM50qPa2CvBbIoPxg0xqvxcSGnzkNYPQDkhg0bs7ER6kYCQK6TTIY4mMrHLP6ML38ka87XvvY1eetb3xqbTSl/VXdEO0rAAYSWjBrKlfS750wVOk0z5MVkF7AgSMpjj22X8847x9DUMAFbtmypqKcofwAC5+fqyM9MiwwCaN775OKLL5BEQpW9pkaq3z3KEkzJ2Bj5zxPS0ZGUgQEWY7XUfHO/sbFxWbOGAESlOrUSIAsg1CcR8lDpWMgABA1gomhQLpisooc1BwMQiD2AXo/vrkFp33//drn4YvKVE/KrXz0qq1evNT/22bQqGgqHbWmh83Ff2GIwyILxgW1QXzRWL8+aTPJ8ACJ+LFg6fnxIxsYGjRVJzfjSzaZy2QYwiJZizWWD2AhwGzxmQULxUrlx5YoiAyQw707dh0A3ktLthHNR7bm6EihkqghOycGDu2VgoFf6+0kDRQ7IZ9LMTRR/ZyfPabfo1cydqakJmZgYl74+tv215yhAYOfAI0f2SU8PYzMpR4+ys16XGYN8NqLQ88apbzHzvFxEvo5jLltEv2MMcv5/e75WwuRvWw3z+PEx2bVrj1xwwSWSSGjFTM7jWbR4VryMg7hjWc1xP/7xj008RrmMlmqu7c5pHwk4gNCysbK5+onEoyYWgUUL1qC/f6mMj/fJ5ORuWbVqmaGicQNQVS1+s6mGBFf19rIAs3jlNgNiL3b+jxX8xBOPytKli2XVKhQ0x2hZVrsTXK75htFAsWF5UbDljDM2Za1pKO2kHDw4LCdOpGXTJmoCkKGAwhrI1kDA5QBAQHnppjP42ONH2Zd+fqzLvZEaBNp5u/d8rrEQR5Vut+zZs0+efvoZWbBgsfh+QjZtAoz5RqnZehHEiJwwyujQoT0yMrJfUikb25DJBLJ4MbvgkRampZJ5dlwFttKhVdo5V8HExHAsRujU8qvNsyyZPwT5EdRHnECUwfL9HdkNm1DaUf94rsiUyhu2iRTSoaHjkkySWtgvXV1U1BuWnTuflfPP35y15KPb3ZYeadxjzEVYGq13AEsTzVZQeefGWn30Wk1Q00HtrohWgSsI4zOl73N18XMAIAoKbF9n7uCYA812fuu9EpJKiUxNpY0brn5zP/7KEPdI3Y0z3w0S9/z846I1K2JdI+JZy/3pgiVjya6OBzmAUEdhVn4pKNkd2Rr2Y4YmXbRoqQwOjshppy01lhWsAm4CTbmK3oOFEnrbVj3LbR0chuMyPg7VPi79/Shhu3Cn05MyNDQofX1d0tuL5R6aKPve3r7stqbQ1LowEjFuFX9nZ68MD4/I0aNkWXTJ4OBJ2bz5IhkYWGeUPxYyRUqefXaPjI2l5KKLXmIsaGje3OLbLKvI+udzTXfTiy7kUVDSYWIFkAPAZ/XqJdLVNSpheEB6egAGROuTYcLuhBk5eXJMJifJEECuiyWTWSoLFpwmPT2wBbauQj0CLiufS/U/g2DLhx56yMRl4I9WN5Tv3y+JxJNlCyTlQILdJIfrwLYAXO22t0tl+fJlBVwYVhHYuahWuSrw3O6RubnKd8xd9cNrfn10Z0W9TqHfUdBgr283QtJ7aT/qL+PZekXGnhLSr3vd6ypwMZ36NJkwJWPp4zIZjEgQls7M8sSTRNY1RNyJLx3iewnxxJcTJ0ZkcnzK/M1lmDt9vWy17JvP+JluWRwxE044cFHNXHMAoRqp1XxO1DSHriWt8YDs2fMLWbrUkz17dsqmTWdNW0iDg0eND9cqPv2ZlMOHd0tfn8jAAFSltdSgbH1fjIV/7NgRWb/+9OmcdPyvLNL9/QukowPrvlN27Ngvq1Ztkj17jprMA7swJmRiwpNnnz0oR46MSX//ajlxwpNnntlr0sa2bdsqq1bhT6YvuCS6ZXxc5OBBsgEWy9Kl7EyHwmwWKKh5QAzjEgQj0t19d/aZAAY8GzSxMiEU+iGyX4u72Nzw2WwJ1ioZ3EaPPvqoSUdUN5fn7TIuMutOiN9gWwCQFCnq7u6Svr5+E7QIiIxWyMvJNEftn2q9W+Yit49FdJ8Btdjj980dOVMCMJdk3FBboFSdh3JySwXjMjS1T8YyGCynuv408wc2iLRVQAJNS5dL6BkWy6S4ThLftNTujnnEuunWr99gYng4DzDhe4CKDgMYEl5SfP75SfGzLr4ciMh+b44HhDgAUWgsHUAoN8Pr+j0vCMFbO8X3d5lNPKxPnj0L2BHuUVmyZExOnnxI1q5dIskkCnhCRkePyoIFSi/nggjxE3d2dsvkJNuiHpXVq0+T/v5FZuFOpYblyJH92VQllFyXDA8TZLhI+vtRctY6evzxJ2Xz5nNk7979RvlrwBxVz7CsU6lAfL9DxsenzP/trnwDZmG3UfQ2KwG/O1YHi34YbjYR9Hahb58WhsOSTH7bgBs2UgqClSICMINt0SC62qPE20ciNpgQdgX3F5H/tviVLelbSaxH7pnzU/aMOsir1hf9fztJa+70lXEnCBeDonysTPHnzoRpGUkdkkw4KZ0+aZeBnEgfFJgFGsr+5z//uQGfhWpi0A9AKoCF9Y7US9xdsKewUvSRKpV8jnswCy+sws+mzBRW/nwKY9ElCzvXSE+i/kXb5sJscAChqaO4Rzo67jTgIJE4HKFQbSeIgE8mUebsmLZHMplQurqIcidGgDK6GvhnKc/jx0HR5J6Py8KFfYZxsEFgXTIxIbJ79zE566xLs9sJi6HHeYlwKWijSh2pZryoRFfrNq35YomT863BX0Gw3mxS0ohKiY0dLt3LgmUmSju3yroIrQ5OjYlk0iI91e+1UIvcmBs//OEPjSXJzojxU2Jruas7t9USwBUEe1SsHkic/oUSZMEARpAIgOHo5E5Jh6TjYoRMmQqWv/Zrv1ayqiY1Myh1zVoV3RSLjBTqXfAZ9V4qnZsJr1MWd54ufR1L4jzOvDvGAYSmDvkuSSbJEydf/NlsVLz14WPRg5BTqTCbNrdUfN8qrNHRwzIw4Ge3JLb+dV62oaERyWQ6ZMGCFZJI6HVQIp6x5kHY1dRQqIdI2BcgCAAnlRVpqce92/YaGhUapMSbGhVv5JD4w/vM39LRKaktFFhqDVjBYqM0MBkNusNh28rZdTyWBHBTEofw67/+61XHIYxlhuT45POSDqOBwrnbs04RhM0GXsUa7j/qchTb5AuQQUAtdS3i7msBMOhNLJKuxIB0JxYYd4Rrp0rAAYSmzornJZm8Q9gNL5F4OutDpZ47jAB54SdMHAHBcgMDC7JouEPSaQIRbbVBu0MYVF2v7N9/2Fh10Z3qLHgITSBYdH/6Sh5To+/tOQT5gfa1SE+8K1HBLZN5YbYCYLxzWnkUVnLJvHiUN9FR1IBIT4pkiE/wRXqrKO7EdYKMSCZlr9XRZX5740Pinzws3thR8YK87ba9hGRWnSvBkg0tExO+YKLbKTFd7dxqWefdjSuWAIqXracBhfnlweNezAKE3dOMQf55msadX+01ehzuBS2DXaysNUyoluYutP10/n27/D5ZlFwnSV9Th+0RMLDEJLiWlcfQ0FD8pHEntZokQGBXInFPtsiQVr3T8qoJSadFHn/8AZNhsH79Runo0KpwhaN/KcjDy1BZoZ2aHmHGyTpxTrVp2Yb4tCyDUIUCrV8XY10J6xgqFcU3I1Uuq8i99JSh+b3x4+KPHBRv4oQBC2FHj6S3XBPJB81KZDo/FFCRjRkhqCMMxQtSIhPD9jojh8XjOkRim+JTBZrnS5jslaB7oYSL1kk4sCLWMzXqoO9+97vGV0zxrUqqLDaqP4Wuy3jyQ4NypjYC4C9+wadm9nb23kv9/8SfbN5M4HHlbTwzLMen9kgqIBPo1IZb01YSLV7Wm+BqdsSEuSo25zQtl+/ZX6Nc04wJ65IVCcKMZMKMLOlcL/3JpTOzIspdbA5/7xiEWTS4TPLbbvueJJPDcuWV50h3N1UKycNXC95mMGgxmqmpSbPjYEdHrqxsvR8nFI+6dNRNlLT4kpaE+Qk8T1KSEC/0pFfSMmBSmGxRJLtzGy6G9W0QqBhKGIRy910/Nrs4vvzqlxnr3ktPiEyNiT8+JN7Jg+JNUh1wJpYOE12SWXeZiLH2Q8sKoOgBAvzm/wAD2IEs6+CTflom3Ss6hmFXv6Q3XCmSmB0UKNbcN7/5TUP3ErxWqc+31vkJ00OsDkCuUHVRLFKsXo2HQfnodsg2wHaBiYh3YCHeSGCZU9WS2JNq2kTmhByf2i1TRQACJZ0B5vk7v0bvBWul22oXK4SlwbQAhPJuhulcCXMbG9Bo/9J4hBlpk9U8+Bw5xwGEWTaQbEJDLAK7vOVqxWNdwjhQuhZFZQGDBQq5wkb279oIIXNFzzPJi1Oex36TMikdMiEdMiZdctLrlhPSLYHx2Xnihb6cFqbkkgyVBXPVEWeZWG13DK0/JYYRwJLPKnQvS/c/9fTTsuWsjSKpCfFHB8WbYgOk1raws0/SZ75UxK+9OmK9ngQFTZVFyjDjamimsoVG/tGPfmQC5wpZnT/72c9M0NqrX/1qw6xxPD5uPmNPDCoD4pLjN2Wum9n3esm/mddhLYLeZz+XanatLBWDgFJnLAlQLFUBk/gC3B2UnC92HMCRMWZMLYNgsxSsu8D8lXWX2r/tj2dWS3Ok50mH3y39Hcul07gdWhPr08yxjXMvBxDiSKmOx1Re5rWON49cSpMlbSUDT8Y9T8Y8u+cioGDM82TE84R6gaHusFOgK7x2pwWBXEyU/WxulPIdHRT/xAHDBnjpMREDFGL22++Q0E+IQEkiD1XYuBCCtGUIKmAGyokq9JMiyW4JFp9ufoT/z6LGplMEsV111VVN2/RIq42iMIrtL8JOlOTuE/Ger/yJeIeqRulhsQIwAAqt2JNhFg1lya5oAKBujV1pvyczJ2UkfUhSAUZNaBRyOpgQk92QychPfvITufrqq0telvGCyWBMiwEEYq4ArrlUbVt0abomAsymBw+aiy+gN7gWbKq2SH/HCunrWOpiECKj4QBCpTO+huNZUNnFrdjiVsOly56qgADP7ITnyYksCJjyTK1AOel5MurhTsg1cqBZVJWijd4EYNAThrI4DGR1EMrqOirHsg9TzQGZlPhHd0jiyDPxzzb+/x4J8f93LxRJdNiYAgIU01M2uwDgASuR/Tv+xQsfGXYvkLBniYSdvYJ7IexdOmvcC9Ee4w679dZbzXbKl1xCSmvjGwCB3RhhBortEQBAeNnLXmaszWLsAD5trgN1zf4NKJ7ZGk/ReKmWvoPuuonyrSZ7xfr2p0x6I9cKJSNDU3slFY4bVgB2h22vSzXcWqr8C4E51igqdCp7ULnby7INC5KrZUFylQMIDiC05rUjqPBb3/qW3HjjjQ3vgDoawMewAyPiybDnGXAAlocdmPQsxVao8TLj7uDlY7FlAU2GoakhuCAMZHEYSk8osjAMpLfhT1PDDbIK3Rs7Lv7xXSZLQFshNiedyciBwSHpWbJaFp+2UYgzIMWQYEJvcsS4H4ybYvKkeCkAQm0unRlPBkBbvlkySzZaMDLLaU4txwv9HCcwrIZRNKcCSqC7169fb0o1F2pf+tKXDINQCiBwHmNPVgaKhb7jt27F9s+1yqQZ57MOUCyLHU5rdckAEQAIMAsTU+Py5JNPGHcqtVkoZV4sHZKxz1f8fIbRpbuqUiyp8jH0pCex0KQ6dvn90pnoc1UVHUBoxmt16j1QtuTz4nNrRFNVBUsAIDju+3LCAAF2ZbBuhLjFcScnJmTo+HFZ3NsrawYGZFEYUl9QukOR3jCUviy0mLk/pCXrop/l72TfiOc+5ZqqtFNj4pMpMEY8wai18ok3yFZwwyrBH92R7LSpht0DcjLskh3P7pSBvl45eeKYbNm4XroSnnEheGzQVCzboIYHC3FXAAhwY/SvkDDZJ8GClSLJWQ29zBOjPO644w5505veFGsDqhrEZAACQW3sS1KMQSCAku3LUfhxlBlV+h555BFjHROjEOecWp6hHc/lPQFMUe0wTgphuWdMB5OGUcgEKRk8elQWZgNHcT2cMFUXWcFCc4ytDZMy7ADKH5AAozA+PiGDg0cMQGA/jxUrVpbsG64F39NYBFIZ+emQDq/buBW6Ev0OGBQYOOdiKDeb6/i91h2fuetc7TcIQjFswIgnctjzDTtAgCFsQeHyJMXvCUsAABjdt0/848fksnPPNbvTd4Wh3e+OzD3P7sDAPbk+8Qq4JwAhuTBJG/6DitsSZKS7npZ2KZGRQTA5Iv7wHoE1IBPBZCTktdHRMXl+3wE5Y9PZ0rN4lalU6GUmzYKz89lnZdOGdbJ/93OSSU0ZC7OYxVrr6MFQhF19Ni4CeOVTSVMks+YFBixoudha79PI81GwbOr09re/vaFZDQAEKGmURbG8eQr7nHPOOQYgxKWasUB5BuIpCmVGNFJ27XBtXAGHDx82CrqRTBHuCPZu4PdEMCKjqaMyOn5SDh8+ZEp9T4yzPwpZW0lZMLBAFi5cbObCksVLpDPZze4L2f0Y7EZPgIIE+zCYGCqCEmnWncB7RaAiIIFYBZe1UHgmOoDQDm9ogT5iqaOcj3ueHPR9Oen500o7LktgXhfjKgiFSuTLs64DPwzl8YcekkN798q1111n7gP7ABsx7PkGDGhoD/0wlfmznwEL8PGyqACEFiUSsjWTlv5GAwSjVSclcXSnrS9AeeJiAYiAqdExGR4akhUrV0myu9e4EChcNDx03AREkcKH5cKzABooSNUQkECcAzXkTZBnjnsBHBiQkJxZyGU2TleCzQAIyAl6v1FWuLq9cAsUi3sgKh7wQHGfuAAB4PFv//Zv8pa3vKXqgkCzcVzq1SfkA4hifAFfzWiGYQinjCuIdG7cWek0QYa2tgUuz67uHulIaJaCKv0sAMgCgelNn5rR6Tl4DwcQ2mRQNcgQy/2Y58t+35chlLJnEh5nBBeWe6QOWAIRWREEJriwKwRfh5IIQ6Pox0KR7Tt2yBNHj8oLrrjC1FDk/goCSm/aan3FvNi8yOzp+MI8gMD5mTCUhGdxe00JRQAD6H9Yg8FnxR8/FiszgbxqWIQlSxZP+y3pM2lxAAPoZhqf4RoCNAAQ6s3+zBgrLyFhR5cJiAwWrrVFkcicaING/YF77rlHzjvvPGNlNgIkaBYD259feumlBaVCzj5jRPBkJdkJX//61000fatKk8/2Id65c6cQQ0UcgmvzRwIOIMzisVZ7EoIcpmCvn5Cjvm/AQL6vv9RjoIBxHSwIbbbBijCUzpBEI1vrgMoKRzxPnhufkOGJCVm4aJEcHxoySnzZ8uU2+hjqHlquRMpjfh8AItyLe4/6BEd6MppmI6q9cmJkRDavXSvbFi6Q1RQTitu05HFqXPyxo+IP781WNswWKopZB8IChFFjMWpgkwIEFEx+OhUggeNJj6tXxLtJH+2wWRLBwEqbsdDRmU2lzKZTxpVLi49Ddiju//u//5N3vvOdDaHquQf+cJTVC1/4woJPjJXL/IJFqGScbr75ZrnhhhuKxjZUIl4YFUAm86oSkFLJPZp9LBkfAATiP2rZ/rnZ/Xb3q00CDiDUJr+KzsayxhKNWqeqfLmQUcC+b8x10g8BBc8kEnI8Ww60kpsBCgABS8NA1gWBLDUpRjalkWyGfb4ng35iRtAiaY1PP/20KX7DIoA1ZfZeHxw0vl+ihFkg8pUn7gTykLGwdUEstPsjz/+LX/zCVE7j2ODkSdk2MCDr4qZIEidwYp90HHlSJFVpdMVM6RUCCPSP58jf20KZBBQTSgfrtFRhl1LjFFIRsatfgt7ltr5B5+wPRIw775AfJau3b98u73rXu2JT/HGvz3HMRXLn2UCoUGMOf+9735NXvvKVsdkeAhV//OMfm3NqVX4AFHa+pJDUhRdeaAo2NcQ1VYnQ6nAsgYEABN7vUmWR63Ard4lZJAEHEJo4GCxeX/nKV+Rtb3uboeGpifDUU0/Jww8/LKlMRi7e+iI5d9s2mVyxQg4kk7EzDngE3ZyYYMCFYShrg4zJPCBwkKDFQwAC4hTKFD3CzTA1MSFjo6MGKDz53HPiJRLGp6v17PNZBKw6grzwP2tjoaQoDcFiRJwTKHTwwAHjS9y4YYNxafQFoWwJAlkZEyB4U2OSOPCweJFURXu/7N7vPJvx6dsiQ6aoEamJNMonR2ISCgEEwBD58fkBcAp2+I2FTAXB0lS09scXAwiSPRJ0D0g4sEbC/mW1OlWaOGMrvxWWMzQ/sRtY+XHjAOLeCYDw5S9/WT7wgQ8UPIUxgg0glTi6NXD+wRxHXwHsFH2iMqMC97h9yT+O+fPMM8+YeX/dddcZhcp85x1odyaB9YpUR56x2n0ZqpWrO691EnAAoYmyB4XfddddcuWVV5q7/vyee2TPgQPyqjf9ugx3JuXB40Nyb3b3NPK4yy0qgIKObOohQYCrgsCkIrItypDvy/5sQGGcRxwbGZGV/X1CRsTh8XHji6e0KgsDC6cWTCHKGwo+ChJYtMlPf/nLX25uxbEENXE+AWUb16+Xdb098tAvfynbLr1UFvq+AS8AmUrqA3pT4+IfesyUQTb0PGVUE0kJoeU7uiXsWShB33KRLiIfIi0zJf7R5yRx5KnpD4sxCAAEAhS18SwoO8YOZQeNDosyI91rGpiQrtgpYbJbwq4FNmWR3R5nUZnkOHOh1mOgo1GSzGEKEdUTJHDtT33qU3LTTTcVdXeR6giIg+3JT4dEweEuYn4D0JmnvI/0sxL3WSEZcc3vfOc78oY3vCE2e1GrrJt5PiwigIdCb7XKqpn9dveqXgIOIFQvu4rPRNkSyLV+wwZZtHyFPLxnt9y7e4/0k4O9dq25Hn5uKFqKhxRatHAdWFBgaxIADFC0xMAP+r4czsYoqKJGseECAGxAi0epcT7HikKRk1/OokrT0qacw/e4BHBQHDl8xFhcM/eJsLQvUeyveMUrpgEClhSMCYDijLVr5apEQg4//pgkfN9YVCjYihUHLga2Qk6NG8ucqoOGoi+6PauNS/BSE8Y1kTjy9HRho2IAAUCD3PMbIIHnARwlO4kTSFh2gDRFAAGVD3uX5uIIKp4dc+sEXA3kzm/dutUo6XopFNwB//7v/y5/9Ed/VNTNw9gyjgCBCy64wIA7XEd8zm/mMN+fe+65Jiq/WndR/oiRCnjnnXfKW9/61rk1mNmnoeYF8qPyJOmFrs19CTiA0MQxVoDQjY//ggtkl+fLM3v3GgsVWluD5VjYsMgpQap52bAFxBRQj6CLuuFU9hNPjpJ+GAEFUcsXtM+ixQKJJQzlqvu6o/ixnvgcSwtgAhCgoQg5l2MAC2zvi2JEoUOb5tevx6p78MEH5ZprrplWBEcHB2XPrudk5eLFsmHlSjmru1vOyGTkB//3f4ai1A1zGiL+IBAvPS4yccIWSBo7ZliHaNqjAgQUl3GBEPtRtHl2H4asu4Dtly1LMCBh3zLjQnBtpgSYV/jhkTOFi0rt1leJ7HhXfvrTn5rNg3g3ALGFxo7jlOXB3QVgBbDwLnBu3EJKcfum8Re8S9WUJI57n1Yex7rA+89aoOtIK/vj7t14CTiA0HgZT9+BReTnP/+5THR3y+SLX2JiDFDA0NakhkWLkLAhDdbS+eefL9QlgIrvEVvemJgCahGUKvLLQsg1UIC80FDnWMYEGLF4sw87dCvuAwIHSfFSlwafcz6WlZZbVvaB6+WnkMEg8Fym5O6KFTKQ3aMBhqMzNSU94+OyvLfXsAc0mAtABUGP9W6AAQokeZPD4p04OCPuIHovQBjyYdEDsJxSopWCRYlOo/zDzv4sS9AnYc/iLGtRClDU+6na83qMM8ARRY2Mq9kNMP/JeYcYN+IcmIcwAOVccZxDq5ixqkDsPCvMBhkc7BUxFxvrAnEIsAflt1SeixIo/kysqawlAMRGzrNmS9UBhCZK3DAI995r6hekrrjSKGpeOvavR4lHg+NQ0NCVWOUEDqKOUhWkGGK5YTXhL0SB82LjE2ZR5dq4BKhpD8MAQCHaulCjj1hgULI0zs+PQYB94F4rli+XM9eskTODjJwRBJF905okZGor7P5ldr+FfPjk5fY3CNKSSacM+GExx7o1FDiljoll6F1sNkoycQ1smERMwzyLI6jXiEFJ61yrpLphqftzTVx1gF0yBWZDg7H4u7/7O/mzP/uzsoBlNvS3mj6wFhCMDNAD8NXLbVRNX2bTORqYyzoI2xqNYZpN/aymLw4gVCO1Ks8BIDzwwAOy8/hx6Xz1a0ygFMoaBczLFt3vnJfxscceM37SShGpFpRhwuIvBCDARqjvnwlNnAPKEWsANoEd8KptphpjJiMrfE+WBOzwmNurodprVnVeGErHM7fbGAUUPgwAsQowAMQr4AoI0uIP7xNvfMjGEHT0SNCz0AY2+kkJkxQqWmSzIFyriwQIBsRlRinjYnso1OVGLbwIoIX0xmLply3sWl1vDRPJ+tGqHTCLZRrV9SEruBjMEewpoAm5sI5rEHoFl5m1hzqA0MSh0d3ontq7V9a94Q2yZ2LSuFNRDSAAACAASURBVBhQ3kw0ouOjOfj4TPH1VUpZaklarsXExW8I/cX1afQDip/JzPVZwNmIpZKGg4MKjEsCW3gJ9weuhVarVf/EfhOYGJL6iNVP7ABuAhQ+/8+kxR/Zb8oqmzLGZB109rk4gkoGv8JjmY+k8uIaYKOyemz4U2EXGn447xNsHJUk53LD6OBZWTfqFVfCeqRuIAymYgGQxEXhDoXFnA1xHvT5Zz/7mek7pb+pz0FqbyP3q2j23HIAoYkSZyKxUD67e7e84A1vlCcSCZmcmjIAAbYAylQrwLGo4r+FQq10C1PO5ZqgfcCFFjcptjBr1bdyoiAWggDJxZRojmRS9Fp13D4tk8IhXSL7oX0epV16ytwnuBAGgcW9UlZstj8n7yqKoVAGzGzveyX9Q4FjUFD8CTq91sZaBbCCTWVOaOZJ9Lpa4ZRiVgRuAxBmQxYFqbwUT6PsN+stf0cDtWuVzWw43wGEJo6CAoTnd++Wra9/g9zX0WHurnEIAAFQMtY+LyKLaaWWvT4O1yQOgeBCAEK1LxTlkmEFlpp9G/jblk7ms7YCBU0cZ3erwhLAT/9f//Vf8sY3vtEomLnkw6b2AuxInKqJvNulLOVS84c1BIWKMm3F9tSancK9lZGsZb4rq8rzEBNEqnVUhtyPtFTSZomZwrXRiHnDfXATsQaTHVPuHqyvt956q0n5pmgaTAJuWorLzaXmAEITR5OXAabg6LFjcs6vvUzuzQIEfQmIgOVH6TYma6XsQa2Pg9InlRJ3warQlmhOhrb2AnDGgYJaJTy/z2ex/+d//mf58z//87YO5uOdjSqRz372s2Y3yELuQJQJ77TWW6AaJ8A/P5gNJg8LGjDPOpBfrlxjmHRPCqo/Vup+rMfsI+gU9wIKu1YmiGf+xje+YaqwUuY9uhuoPieWOcCgHCAqVN6d5+VzAFl0LWVMMMYYE2SN+0v3m6AP5bb9BswQXA5jREYNYwGjUg5Y1EP+zbyGAwhNlDYTFXrOTKjrr5cHEh0yls1MKDa587uHgiarIfAq28Gx1GPiOjC7O2b3behj8cuCAZfM18QJMk9uxWZKBHa9+c1vbtsFlXcYlyCKEiX5T//0T/L7v//7p8RXEACMQsXSpM4IiolAZQBCfi0BYo5QPFDWsH5kaqh/G9BAXQmUJMHMlDdHwaE4m90AeVjbPH85RVqub7BKX/va10xpapgRgrK14XZACQOkCilf1kxiIlD+jAOB1/x98cUXz+gXn1EFkqJZythS4h6XF8fi8kL2pF3jKiJdO+qO1Wqq9BWGAEABY8A53P/aa681bo+5Bg6QlQMI5WZwnb/npWbRWL9pkzzv+fJUImG2UW5mM3uqh6H0SyirMoFsCAPpbGYH3L3mvQS++tWvmoWYPT4avbCqBUkgMPcicBelXst9udbnP/95o1xQMp/73OdOAQi4CgFDpAVr4BpKH9cfVmo+O4gy5HgqkqLQAAmkDyMn0pRRkljtmqWEkrviiiuaPpd4dq3dUiuDAQhA2QIMAE+a6o0yRlkDhpgjhRqAAnCBTKiHQRl7YhQYj+jYAhBwUZDyjewoEEf/AQHK2AC8AAiAMK4Xrf5JH8lQAQzhAuH5/+d//scABbJW5mpmjgMITX+1Zt4wJSLP+b48k+iY3phJoUKpIkiVdls3ciJ2gNLMy7NMAQGHrtVHAixuZKSweGBNNLvpFsPtUqgFoPy3f/u38qEPfaih+xagEAgmY48ELdSEoiXaHIVQzoWHckHRo6w5Px9UMN6f/OQnjcL50z/90xkbPvEZcwLmAOVCX6DT+T/Bx/n0PKAA4wFLFxCBhY6fG+uYugP4/PX+ZCZhAbPvQ7lCUfWei8qCoEhr3eCKEu/Q/DASsCqMDfLWNGxkUQjIabojbgHABcwsfwMC8oMnuR6MFTECpJRzLKwE46PAQSvZapn7aDYZ48a12SWU4zmWz3ArzPV9KRyDUO+3p4Lr4V540k/IXt83hZAopUzwH8CB76oFCVwrIWKCCU08gYSyNAiNC8GBggoGKOahLFYs7PhKUTy1WlUxbzt9GEqKQlZQ19QaaJcyuCy6FAMjaLGcoq5UJtHjUQpQwShalDzKF9qfrZ1JSyxGk2PForTxjcMAkMoGxVxIYVFFEZdJVLFwHvfWTCTG6d577zXVUQsFM8IewApwDcALAIE+cD9cDNH7ci3dEI3jamFDqpEt44bbpNaS1Z/4xCfkN37jN0xsFkwJ44P7hjGKlprP7yNyvf322w3bAlgiwwHmgDHKl4UCBNgWQAGACnCDsif2AFZAxw2AwPiUC+q+++67zXXy3RnVyHI2n+MAQgtHZ9zzZAf7G3i+UeTscAg4OJhImM2X4jYFBLpXAzsDEGQIIOCarlUmAWhHFqA4aVxYEizsUMAo52Y3grwAJiyKpNASSd8ulCdKDlDDYlzIoq6XLKPBbljiKHmYAbZ5BszhJsgHKGrF4m/Hx4wyRmnlb1SmfYShQAFFFT/zglgBzgGEcC1cBiiVQgpIXSFcMw5ggvqGZscabjaLgEIHYAEQqt3sijEAINxwww1yxx13yOWXX24YOOIwcC2UmsfIkpoIVIDFFUE8wCtf+cqCtRkYS2oUwEbwrnAfGp8T4xEFiMxHQGO5suAADcAcDEKtLEq95nkjruMAQiOkGvOagIBjnieDnm9+s+lSHGBgt3m2jENPtkgRezQABpaGgfnOteokwILBYoM/+LWvfa1ZQFC+xaK1WaiwFF/84hdXd8PIWSyYMAGAExqUcilLRoNeOYdFGqUC3Vpr4FjND1LBBWARfvSjHxkrrh5pc4VujVxZ0BlHwIEyLLAKVHjkvlErHLmy+MMyYN1q4TEAAoqrEEPEfEFRRJUFbhQFb7AXzBWUHveqNfq/AhE35FBcJ4wd8ihnbRfrAPJEyROPgTVPA+gwPly3WGM8sPyp80KQJi4kZEocAmxe/vsK6LjlllvMsSj/UgWeAHCwC+UAGnOKbBTcDYDOZgO0hgxqgYs6gNAsSRe5D4zBTj8hzyYAB4WDFY27IFu5kAwDQAGuAv5enHUbNDfMscVCa+DtefEBCAADLDOsQFqhaHEtswolWcjaKZaZwiKEH5p74HvVGu6wECgUGgsd18TaJK6gUIM9oDY+FCsLFPRqu7AH+jzICOWNgsUCb4R7BkWNsmecCBiMNlwI0PhRYIVlSRAaABFlQhEc5AzwwmIsZF0yhjqO0evjekKRMj7EpgDkoLPbHSAw92ERmMf5Mo37enI+yhzFznuAomf+lsvMUIDA+RxPX2D7+Jvv6E+U1dCKh7Ad5UAooCXuVvS4QgAp7FZKLYRmu3niyrmW4xxAqEV6dTr3uOfJ44mEHPVsLAI1BzpDCwDINKCkcafZyTGUBVlwUKdbu8vkSQBlgjWjkdBEnbMAQd1HG4sOEc8sJpo+xWcoE90EivN0K29dRFnAqAPwwQ9+0CyKBGmhhFAaAAeUGAsZ1/qXf/kXecc73lG0+AoKiUUKgEB/WxEcWY8JhEIGIPCbGI56W2Ms+rfddptxFeQrd4DY//7v/xoGCCuUBiPDHMC/zRgxLrqDYbFCOFrgrFShHMYU9xVAo90BAs9CDADKsdqYl09/+tPyW7/1W1WVbGauAKaJDcHa5z3Tmgb5m8nVY44WugYyAHjC+OGmgj1q93HNf04HEBo1eyq4Lts+H/R8OUEKFpUKTYChBQiUMYZBiNtQUCyCc7HefVwZ1HIcCuH73/++/OZv/qa5DBHPLEb55YFRGviAWSBpSkOj6FDwKAzYCKhYgq2UegY0fOpTn5I//MM/NH5trEv81lwLJRStMU+UOjnx+S4D7oXS01xuKM6Xv/zlZf2mtcil0ecCcvD/ktKGNV9PawzZfvnLX5Ybb7yxIPggMI2gQJQNCzz+avqAVQiDBAgDgPH/YgoAZcG41BvcNFrutVwfip25XW2Q5F/8xV8IP+3cGHfmB2Cdv2E/dA+c6HPVcz43U14OIDRT2iXuBUggnBAwUMpdgILB6imkNFAYGjVdLshmljz2rOsGAOs///M/jQKnoYih/lEOWmcfKxAlQtqUyhkLhoUCihy/JMwACgN/JlalHsf4kHJFoBS/8b9yfc7PD44CXGghHvrCAgQ7ARVLHwAigBCABm4IwEo0in7WCbdEh5AVFiEKGTnU01VCoCDW6kc+8pGCwIMxxq0EXY4cYYZoWKIARPoDcJlPyj/O3IFlwRBBKVYjG4Dy+973vji3mtXHaBokxgXvK3OY95MgTp1HrB3taLQ5gDCrp97MzjERsVyJXIYS1WAcDaoiCAprshFRtUx4wAmLZjWLQbuIma2xWbhuuukm02XAGClUvPjQ3yhpIq5RJtEiPywKMA/vec97DOOARYzSIYId61QbAAHLixxqlDvfESjH2BGFHW35AEErxwFiaFi8KDT6zPjgh21nYEhMBcoZqhjLtF7PgnwoZPTHf/zHBecuY0x9AmIOAHiANUCDupsYl2oj9dtl3lfTT5gZYixYc4rFyZS6Lu8MIHcuNeYS7ydrgAY6Ipv8uIh2eWYHENplpLI0NlYqViQgABYBBYQi+da3vmVSftSPWuqxUDSVUF4oH/yNKKBiQVptJMaSXQV8/fVf/7X8/d//vTkOWVHpDfQPzcz3RFATK6CLIscQrES1Ncrt8j3H4ZtlnKKWA0rwL//yL01an0bIE2yFEoORiDYUVZyNY+aK7HkOlI4CMCz3SuZpMTkAvj72sY8ZtxHFePLdBIwfxY6I94gyMPQFQI6bpx79mEvjxLNgMJCFsHXr1rbKnJlr49DI53EAoZHSrfO1WciIugZ5g05BpSitH/zgB8ZnCtWHhQulWmxjExZLlBfIHQqMY7kWFnKhRRArlwpiLAYosLkaratDheX///7f/5N//Md/nB49lTe0N5Ym0fZQhiovTY0kH5uiP/jSiXonsBEXQ7QxhlhdxB1grfJ/Ap2I5H/9618/41isEEDIfFNOjAFAmDldDzYMRf/f//3fBkAD5GAnogWPAG2kwRHEGI3IZ+5zLiCtHenhOi8/p1yOef/1r399mnlp9P3c9ZsvAQcQmi/zqu+IMiEIDp81ygUlgzUEFYq1hTL54he/aIACFLhWOeM8FkGYBixVqFuUD39zDXy/VDHTevHaQRYAvmNR5frVBiNV/cAtOBHl9PGPf1w++tGPTt8dSx7WRv3RUXCgB6Hg2coYJUQBHlwH/F0oqC2fweHajA3pXq5Z1gbLFKWMTGp1NTCPmev4iAHFxIfgJmNOMz4wRLiPCu1OWCxV1Y2TlcB3v/tdU8OiHkDOyXT2ScABhNk3JkV7pAAB2hO6n6h3lJYubvi8iXxnA5H/+I//kHe/+90GNOAiQPER3AZoADxgCbNIYjXBIHzmM5+R9773vdP3xnoixY8UMI4hmG4+NFLc2EjoAx/4wIzHhaWhEVxYLO8boKbBSciP8ZlraU/NmgMo9X/91381cRkEfdabRdGATxgCALUGlDXr+ebKfTBWmOu4Ous9RnNFRu38HA4gtNHoARCgrnEz8EKi8LGw+EHZU9wFihuLFMpUlRzWKZ9BleIiYDFECV599dWGNeC6VAPEP6sN1gAqnHPxpWMlzIdALdwv1CmAQXALXmtfDi1Y9KpXvcrMW9dmnwQAxLCauDodGJ5941NrjxxAqFWCTTwfRY5/m6A26FEYA6rnQY2C4m+++WaTngdlShCdViSDWoVpYJEl8p5IWwACufPqViDyttAGMqTQAURgLKAR8d3OZaCARckWshRwqbZCXBOnxKy6FfMThQGTUm3xnPwHgi0jBgTmpppI+VkloBZ2hrHhva/3u4vrkqyc17zmNXW/dgvF5W6dlYADCG00FXjJ2Q0OxA5AQOHDJNB4+XETEIBFjv6f/MmfTD8ZL7EGI7JwcyxsA0F0cTYkIkARkICbgiwGIr3nqnWNjIk5gIJuRNnfdphu+TESzB+UPgq6VDwAqYG4uJAdKYP1aPSFAEMKSM31rXXrIa9C12A8yKyhmE+0EFc97sf4fOlLX5K3vOUtVe/JUI9+uGs0RgIOIDRGrg25Ki86cQEEDl5//fUGsUd9pyzQ/GDFlas5rgu+owUbMlRtd1FAIAAA8Mj8gi0iswWXCxY88RS4sQi+LLTZDecTnMmxbHtcz1oZAJTPf/7zZs63aznpVk0ImEXckjAxGAeUj653Iy0VgyU/yLne93HXa74EHEBovsyrviMAAQYB14KWAi5mMTjFX7WY5+SJpaLx+Y5UVmhi4k5gqGCncFGxhTSNWgBUfsSdpXtPqKAAFbi9KHIEOCi1W161wgWoULDquuuum3cph5XWLVEZYywADHAvAhSuueaahsRy4IaEocSt6drckoADCG00ngAEUrRYxN/0pje1Uc9dV1spASxwQCVKVmvFAyC1XDfWPxtD/cEf/IGJTUGRoFRIDaQWAVkvNKh+MgrImtEGE0UlSH4DDAhWa1S7++67TaoiQGY+AGCAF249FDCyZXdRWENNWyb7qJCrj/NgcgB6sAa4FRjX3/u936srsxOdA4wN88a1uSUBBxDaaDw1i4GMBCK7XXMSQAIARxQCyiA/sBLLEUCJ/xnXE4GoAAZ+a9VNyj+jeHELAAwAEXfeeaexCKMKn2qdfEcsAA0AQZEn3BHQy9QtKLWbYa2jRb+pVkmgbbtZq5WyAIwphbcAAZxLPIzuecBY4jYgeykqb84hyJbzdJzZn4OiU4BAHbdaxyH/fACJplXP1dikesusXa7nAEK7jFS2nyzkWGtxggvb7NFcd2NKAIXBj1rRWPBQ/ASd6oZSeinSVFH2WN0oGxQ6n7GXh1YHJMUVpUt8C1UisVixCHFjRWMJvv3tb8u6detM7X2YLO5PdUksVLJg7rrrLhMnUM/4g3yRcB+ydMhqKJR1E1OETT0MIAXdDyAjliNOg/Gh+BYgIFq9VIEDwA93D8CMz9gVFNAA08A9+A5QgcIG2FEFtZHgDYBAoKKrOBlndNvnGAcQ2mes5nVPZ0tFuzj90CI8BP1phTk9D+WMAq3ETw8gjCoWlAM1AghQ5W9NBSTlNVovgH6g/GEVCC6kqA3Hcly08h3xBwS1ci7AE38y1ycgMGoREq2OFUtf6D/HAxA4BuseyxUGgvTZYqW+a53EWKvUAQEQsZdFI8FItK+FGACemYwXFHExlwfWPn0FICD3Qrttch1ABM+i40JhLgAFe3ZEr82x7ExJthLsAG4iwAHnAwABTVphVfv/V3/1V/LhD394evOgWseg0PkEqDJ38kuLN+Je7prNk4ADCM2TtbtTlRJACZK6iRLDD9vKhqL45je/aSr8FaqTgAIjJRSljvUHSOAcmB+2kcb6RvleddVVRUECx0MJs+CzdwYW4A033DD92HynPn9y0Ek9BACgUKLAA2XCJkUf/OAHjTVKECEKJz/VjevjtuIe+LhRevzOrztADALy53zASb5ypl/0F+DQyJoFussizwcT0ugGYAL8oLwJ0AQQMYbIHhDFmFOqPJ9eB6Bt377d/BC3gezz00SRNd/DBAAikC1KnwqmKNt8twDPjrXO/GF+cU/dAp5rFwIqbDxGfEkjrXuYHYAbu5S6Nnck4ADC3BnLOfskAAQi6FEGuoVqKx8WS1x97vlWJuAAZYvCUHCA0mSPDAJLUTJ8T1Dghz70oYLb3aL4brvtNqOMCVJDsUQLD/E9likKGvcC3+EiQEFE5cNxf/M3f2OCx4g/QKFwbH6xHJQUx+qGXVyb6+QreaxE+l8uhbYZY4PVjG+dZ4LFqHcDAKB8kRVVRQFYADDGHRaAPQi4N6XLGXNAUX4KJkGhnAvA4Njo9uDEfTB+xFQwV1DsuBWoZgojASChD8RaaCozwJF+fOc73zEKP27RI9xBCiDrLSe9HiAFAPnOd76zUbdw122BBBxAaIHQ3S0LSSA0H4ahiOed+j1W2kyLtcBBTRIsizsKnN0Xo4s0il83vtK+snB+4QtfMIwDCgKww0JPoSr2t0Cp55cRxpLEIiP3/33ve98pChBZPPXUU2ZzKCxaqPZiFDf3py/0mWvGUe7FAuqwiFGasyEQTa1zFDDAK66yjDNFuDZuAWRKBofS948++qhhjcj5J04DpYu1j4yx6mFgorJhwynGmYBi4kOi4I35AyAgLZTYAIAgY0pJc1w4jDExHbr7JH0BNHBvAMnb3va2OI9ijmnWuLELKq6MZrl9YgvAHVi1BBxAqFp07sS4EgglNJo/RKeHIoGgJAP7I4EEYVrS4RRLmQRhIB7/CqEEc0NPfK9DOrwuq6ykQxJeQnwvYb5rRkPJs1/D+9///ulFH6sbf7+Ws7ZgJ5Tbb7992tLM7xv++i9/+cty0003zfgKKxFw8Lu/+7sGVBRqlQarwhCgyObSpkSMA9Yxv6G26wVcGDdiRWBWUOoat0HaoAaI4m+HPVBliDIn40Orb6KUKSAE0/G6172urNyZC7iAAHulwA7j+MlPftLss1Kv563XO/P973/fyMAVs6qXRFt/HQcQWj8Gc6AHBgJkFT4R9qr4MxJKRjIAgGBcJoNRmcqclIyk6/bMJprfS8iK7s3SnVhQt+uWuhCLP3te/MM//INhALD2UCK4HsgW0Aatj9VHOez8rBOUGuVvOTc/rgLLElfAfC31XMkgIkMAFfUZ6hkYCdvCeOJOAISwQyrMDiwRzAAxANFxg6GBPYLRAVjACJAxQhxBnI2MAB9kjtx4440lH5/5cuuttxr2abbND3ZCJd2W4EnX5oYEHECYG+PY4KewAADz31pQgQReIGGQkSAEBASGFUgHkwYEpILRLCMQp1uwANqiDIAn4mWZh+zd9SgWycnJCZmaShkrij6tW3S+DPSw45+BKtlDfUn6XXE6UdEx3I9IcgrPYO0RY8Dizk6a0YYVquWwo9YeAIPFlH0LSA1zrXoJMBZY71jWsAj1CsQjboD0UBQ+QYRQ+sw7GCECZn/nd35nxu6nsDMUI8KdQIAh/SDuAIABcCm38RcAkxgP7lOKGeB5qWvBHJptGQOwaARuAqZcmxsScABhboxjHZ4iCwIAAFmqH+o/kIyEYcb+5vMgLWmZlFRmQqaCMQMMijer/DNBICdPnJRFixaL73dYF4L49se4ElDylnUwP2FovuNkrp8JcD/YxiJNMRgULJYaFjzW2xlrzpJVK9dId2+niJcxxya8blnZndvCug5CsjApDM1CSFwBCzUlgPNTDDkOi5PFHLeD5qAThY6VxXMQfOha7RKAjQFswdIQ5FcPHzgMAlkn1157rYkNUGYItwEW/Lvf/W4DAKLzktRESlJzfKUBtTqnYZvK9Z9jCU6FxZhNjaBKXGPvec976hoTMpuecb71xQGEeTPiWes/a2Fj+aP0ze8wbVwB8AAoP/6fCackFYxLKpww/y/drOVv1L6XEI+fLC8A3EhNTckTTzwpZ525WRYvWGpiCBICUPAl9LhfRtLBhKTCcUkHUwYkEBhGPnf+YolVDs0LvRtNGSNiHL88efoaDNbhdcvqnvPF9/y6jjIyIqWLlDSCyLAoiRfIbxyHQsGaJENAsxqgrNlO2rX6SQC3DBQ/Uf/RGg/V3oF59tnPftbEBOh201yLufeJT3zCfB6tMslYo7hhCuoZMFmo/8xzMhne/va3V/t4Zc+Dg6s0ogfQSxwCgZaukFtZEbfFAQ4gtMUwleokKtgqf6XX05mMsbrRiwYESDrrCojGBwACUuYnHU7GAAHRPlgOgMa9c/DAk4TfKQkP5Z/Ixh9MSSZIy/DIkAmSy4/YL/RkPAtR3ldeeeUplDHR4ygCKv7lN5QEoEJrASS8pCzt2ig9iYV1H2X6wYKIa6FcRDkLOkwCEe9kEcy24LK6C6cFF2TOANQAYzAzcSsWFusq7A9KGGWHu0H96ow5KY4UKmoFxQ8DBWPGvGvEfiyYAsOeJyc9T9YFATxe7MYY8G4y3xu5J0fsDrkDa5aAAwg1i7B5F7BAIJDR8RFJBRPS0eVlrX+o+SxACEMZHRuVoRNHZdmKpZYhkJT5XVubaU9EAULO51/bHfTsUgABaw5/LaVj8xuxALAHWmIWkLIwuVoWdq6pT8ciV2GRZqdDlL0rDlN38VZ1QZTnj370I1NciJLTtQAx3FcoYS1GRIlpbfjaYa8azRQUEgL9gspnruOOqEcLRAQn3qDnG3BwDIDg+/KidEqWGMMj1wBIuNVg9gql1mo8zhve8IZ6dM1do8UScAChxQNQ6vZanhcGALp/InNCxiZOyvHho5LsSkhPf2dByx+qkyhqqvbNpsbzYJmh5KP+2/w+chyLM9XndMdBPYZzyQMnrzx/4SLNMOp6SHidsrx7k3T5fQ0RAzKmcI5rs0cC+P/JCKA4VLnAwFK9RgnjCoKNot5Bu+z7EGckUPmYC2PiyTHfkxGqMfK358kEQb9Z98KaIJCLMmkhgVgbmR2AhKgrL3pPXDPUfvjt3/7thlbTjPOc7pjaJeAAQu0yrPsVTKaAZAxLMJY+ZuIAiAmYyozLkcHDRsmSH9+RSGYD/WzAH/5/fo4dG5S9B3bL5rPrY2HU6wEJJkPx45+k4EuxxvOzPwAsQX7ePsGJpLVt3bp1+nRcF1TVIxAwmpue9HpkTe8F9eq+u04bSADrls2cqK5IwGK120JzHYAoaapYw/klkttAFDO6iNKHKRgVT474nhz3fJnk/5SNzoKC/GfqCUPZlk7LQCSLCPAFQEC2hcppw3Dg6iFo14Hndpslp/bXAYRZNIaTU5Pi+RkZD4cMW0BwICCBoD3a+NiEDB4+JquWr5MVi9eaQD8C+zg2FfK620DBoaHjcuDgftm8ZVNLnk6ZjyjFy2codyhIAA7lZasBCAQvEihG+pk2FiwsF6y9aLW6pN8ra3rOb4kM3E1bJwHqT1DZ8B3veEdNtQK4DvMVBqEWd0UzJFGoWqI6B1gZDvm+7Pd85gMCKgAAIABJREFUSXmejIsYUFCuwRxsyGTknCAzHbCIewWgD3Av5GLhXSRwFxYTkOBae0vAAYSWjp8NLiRQcDR9TJ567mFZuLhfevt7sq4Dz1QJTPr90uMtkF3P7ZEndjwqV718G7kB2fTAXDaCPgrKkqj+al0MhUrtFlL63K/QsShwFo9oNLluU4tVga+4lP+Ua5IyRhpXfl47ixM/pYLQfElIV2JAFnWulU6/t6Uj7G7eGgmgpEg/ZW+AalmE1vS88rvyPuFeg0E7/YwzzAVYHXAZ7PQTBgwQYxAHFOS/zwvDUC7NpKU/EotQbC3Q9YAAXqpCUop8tgOryqU9v85wAKFF4011wfHMsIymDxuWgBLDRwYPGQZg2ZJVsqBrufR2LDHpfyOpIzI8Omgi4dectkb6+nqyQYmndl7TrfDVEzEfpej5TmvzR9F/dFHA94qVoJsD8R2AgwUIpUxqn9KtWkEwujsgn1HHHsVOdTttXEc3oCEyvFSuN8dCZVIHP+6ugGQsdCcWSn9yuSnD7BuXS0eLRtfdttUSYA6RhUDAIgGGc1VR6Xt14uRJeeFLXiInkkl5zk8Y10HGAyjYmII4DcaEglMa5Ms5SRHZGGRkc8YGOZfnHcTsUwHAJw6hFYGccZ7VHRNPAg4gxJNTXY/ipQYcDE4+k1X0nnR4nZI62SHPPLlTNp2zXrr6PQMcaGQg6M5wKNdCjWvyckPtoaA5/rrrrpu2wPmeACNeXhS67oCHQifYjvrpUP/smgg4IECQc7DEsNjx7aOsscZ0seV+FKih7CvHovQ5loWGY/meFDF+UxIXRgFWo1whGPPMpFj5pZKsiLpISDLRLQPJldLjL5xRf6GuA+Yu1pYSAAx/5CMfkZtvvrntYwgKDQCOx4l0Wh5n18hkUnpWr5EwG08QFxTodXnfqEhJOifBnV4YSreInB4EsogiZp4nC8JQevOyGgr1izWI6pPEGbEDpmvtKwEHEJowdrADthARKULEFYzJWGZIxjNDM+6OcqXcKi+WVt7jAKx68ouxqIshcqx8SsNS3Y/rwDZQNIaG8gYYcB1+qEWghUzwsbJLnZ5DARiN/kaxAxDw66P0SevjbwAB1+B7Ss+SE07gIHEFXIdWH8tBkynZvAk40CEdfo/0JhabfRc6/M4mjJ67RTtLgPfiG9/4hql82G6uBt5bgv5g7hRUY8fjPhgKQ9mR6JA9ExPGKCDLIj/jp5Jxw00BiD9j3TpZkkxKAubQ96fZB4DB2UFG1gY2HqpUYw1gPaAaJZUlXWtfCTiAUMex0zoFtlwwOxNaUDA8tV8mguGydwLFP/DAA8bK1mI/LBJY4VD8lG+NIn4sJJpa9vodC4ZuE8tnKHdcDnxOelKhSnMABwDGq1/96ul7cG92mSPnHwYB1wIsA+wExWhYCL71rW/JueeeOw1Gyj5kwQNs4SVAgMnGEJuNkfR7DBDoTgwIKYtztZXy6VbyzCaeJbst9lyl1CuRB8cijx/+8IfG3UXcSzvJhXfyh7ffLpdu2yb9y5YJfOJOz5e9QWDYQFwBvJOAINwo0QDdSuVEFhCsIsA/KiPecVyOqwYG5JwwMAAhOl8LVVzkezJAcBOyk2U7ybxSuc314x1AqOMIAwzG0kMykjokU+GoAQmVNPW9U6FNYwew0qm7jkJWf7yCBgoG8RnHsymMWkj5AIEtZzkWuq/YQgIIAJzADsRt9I10RJiKSou2AAhQ+gniBQwY6JZuf4F0JfqzWzfH7UV7H8cCTOU5fjOGcWMu8p9aWSIWc2pB1IfBab5seQ6eAYsZy7keygVL9itf+Yopb62xNc1/snh31HTESfHkxNSkPPT009J11iYZHRjI5jKJmSsAfowIjARYQIwKZIXcKpUZMic1FKCfLx/m5o5nnpHLL7lEzggCWRYGMjE+Lh1BIF09PZL2fenLuiOiTwhAwM3ABmbtniIab+Tm5lEOINRxXAEIgIPh1AGzwZFNOsQyTtjyw15CpjKj02mLhRZ5XAlUgVO6kJefuIDrr79++nAUMwsEgYAgfpQ/zIBG/LPAwjoABnj5ofv4PwFbxRYPzmEb21e84hWxJQLjAfiw+c6F92S0F4uENnliYwf8blmQXNOQMsixH6DFBzI2pG2yrwPyZwxZpKtpgELq4KMocPm0I0DA2mc+wZZBmeNSq7VkMrJU8MT2yxRQqhaEVTMucc5RUDDueTJGASPPk0OeLwfSaTl87JhR2sX6rKnDrBm4Izi2UlcD7zHKnNgkZS6138wrSphHNxY7fOiQJMfHZfGqlXIylZblR4/KmhPDcuaGDdPjxboFg0CgNOyja+0pAQcQ6jxuWtyI/Q20eFGH3y0U7enwk3Jw4gmzLXKxhuJH6fOS8+KSLoTFcPnll0+fgrUP/YjFqf4+wECxhYGXXP2ULLiFqEiuwyJBEGRhEDEzHsC6ATqyP2zOZAMKc7s0RJ/Q7thovvc8swVzp98vnQ2qcFjnIa3L5fLTx7goCzouHFw+uIRwBRUqIV2uA8wTqv4xxsSB1FJBsNy9GvW9AlkCbGHCAJ2AnfxCWdXeHwAGQ8b1AMqzIR7BBBmavQ98GfNIS/RNEaN09l0hLgD3AetBMfcBgArwj5WO6w/2SAOQ48oKYKbKPDp3ohlRGs/ENZElqcz0iXVo/3PPyRnP7ZSLzjrLuEE1QJmqljyD7mMRtz/uuNkjAQcQmjgWFD46OPH4dHZCoVuTUYASx7+Ivx/3Ai9wtLQwCwKfsRCgYFC6AIRSlhHKhxebBVKBhC4AajUcOHDQXGPlipVmsyVSB60bwLIfWT7EMiLSKUmzMVOXJHwqOsZJgGqisGfRrVDgBHgC6GAJGC9lD/D9sikVQaUwQyzwlTbmDCwEDBIFpCq1ICu9X5zjmZ/MNwLfAJ9kyRTanVOvhSJEgSMXlArsAT+V0uWl+gb4JgiYKpyttmpPeJ4c9nwZ8UQOZgsY5fcdeh8QWQogAAp1DxLWBZgE1oVycuO6HE8wNPMln4WkL8UAAmP7yCOPGNcYwIFxPTOTkae+8XXDgFFGnXNhbBj/1772tbMCkMWZt+6YmRJwAKGJM4KYhBOpg3IifaDo5km8tDAEvOj48bAuWdR4ybThU0WZQCfyEmI98KJzThxq2Sp6LH5fjh8dln3PH5RztlwgmUwg92+/X17z6teYOACj/L1O6fCSJoDQteokwAKOAscq1kA5lCaKHUDGGDPmKEnGtBKrmYX4nnvuMYs17A8gpNENBYGCAZAUSlnFL44yBpTyN89KaXAUXaH5CYDCrUDgHc+uQKfevmv6jVWLpY2lW+/rl5O77rcKc/BIIiF7/OguB6eejfsJ2aHwi73XqugBBFrhMB+I5VdZZO3g2qauypo1JjYJRc78jLp0igEEroc7EvldeP75MtDVJeuDQFYeOyq33HKLyRihMedZw2DF2pHVKjee8+F7BxCaPMq4Fw5NPlnUzQBrwIvLggptjGsBtE7qo9KMhtbbv98wDDANLKi8tCia6IKdywzA598lSa9XEj5BgZot4EsY+LLjqZ3S37vQ1FBnEb3hhhuaLJW5ezsWWWIDUN5R6hfr+t5775Wrr77aPDxWMwsqCh6/bdzGeQAEzsN6q9W/zjxi/kX3tNC+qC8fvzeMFc9TiKrnOZizsF6aTlvqeZAFTBmgAqZBrdK4MqjkOM3RB1CTglfO0q7k2oWOBRSQ+EvhoqOeZwsYZUsfs0FSqcY7zvuMnKPvddRdBSjAzcDvgYEFEgQZsyboWsHngCIa+ycANABI/KC0OZa5A1gFwOWDJuRFDFO0tDnXemD7dlna3S0vPfNMWdKZlJVkN0xNyec+9zl517veZYAGhgwMGQCkkjldq8zd+fWTgAMI9ZNlrCvhZjiZPmoYBJaHyWBUxjPHp8/F4nr44Udk9Sq7RfFpa1cby5JFAMqVxgKh9OPixUukp7tnOkWQ4D/iHToTvSYYUDzLFuAmgA0gbqCQOwALlpcZ66PSjIRYDz5PDwLMUVWOLaGjAIHFk4Vb96RgIb/jjjsME1SsGFYhEVKdkrlA3XsW+3INAEgrZPlrSiDBarAe+TnsWINYnwBSFv1iFjjzCNcXrhMYgXKFsVBWFNxCUREf0OhMAxQe/UNhYkE3oiFl3Ai4D8xuiWyhTA2DIhsjaR8YA+YCCh6ghqKNAgQAIU0tfQV0MAm4r5hvyFyBItf69re/bdYOYjq4LvEDPD/Hs88EoEELmeWPKesCzA5BiqxXHWEoiyWUAw88IP1BINvOOccwCDT6TlYTRg1gQ+Oa6KPbEr0Rs6zx13QAofEyzrtDaMoqa5sMRuRk6oj5L0F7XtAp//WV/zKK4tprr5NROSSTqVE5fOiweNIhp69dPx0b0OF1S8K3Ct8ofc9WFwQEAAjiFUZtugDm1Q0BAoC+KL2u2R/K/iAQPvvqV79qxj3qTlJhAQq1DDaLOAs9P+yOicImECzfGs4PjESJADS5b74S5lgUCQoa5YIiisZDAAwAI7BUKJZSQX7aTwJsCb4kM4ZU3EJAAQuVCn6Grr7wwqZU3kORabwD96xHpoSOE2/2cbMHgi+j2eBDDTqMM/EZB60iCpAhPkCZGj6nqBlsYlSWxA8AEmGQmG8ALc1o4nowPrA0gAItpQww4EfjVRjv/Hoq9Bc30QG2Z1+7VjZ0dsqSMDAVFvfv2CHjJ08a0KHXQK633nqrXHHFFaYP3BuWDAMHpqxWdiuO/Nwx9ZWAAwj1lWfFVyM1ElaBRmAg2IHKb/gIb7zxRpFExtRT4OUjRqC7i9fTsgK2sJALDqxY6E06gQUSlgDfLsyMNiyr2267bQYQ4FisL5R3fi0KvQ5K7c1vfvN0uWsUAwqBtMZCgYkUCMJyw6JEQWhEPBZj/l4cKHMUPwDlpptuko9+9KMzFnT6gOuAPuK/pxR3KR8+x3M/FAyZCVybYkX5IAHwhHKDdYDmprBOLQV/4g4t8uBZsKxLpf/GvR7H4U444vnycCIhpCxWWu44/16kF+IGYO4AyFDisC24H6MN1wyxS8gXQIab5v+zdx9QkxTl3sBrF1BUzAEzolfATBAkKSAgKBkkCYIgKBgRLop6ES/mwFUwEATJIDlH4UNQQQmGqyLqFVFRTCgqigjsfudXu7X0zk7onumZ6Zm36pz3bHi7q6qfCs//ya0AMIG2pKGwX7r6q8zPbfCkBx4IT/73veERiy8eHjaLiDKvAXaAh7noS7/WEchUgyGts/nQhAAvQHJuk0WBDBAauF4uVQcuO/Y0cHEqTAmTlJ2SKpu0lpqL/vzzzw9bbrnlAmZI+hdm6rIlIRYbqdF+wADSngAgMQu+AJ1MCxgz/wQ2YX+nKlZhr7XZbyeffHJ8LoVbttqcvZOy6pFkmU1e/epXL5QSvBNpfO+FF14Yq3N28kkwByYWjE66cMykn6Q/FZYngiv0oUUork+VPorPgvk/nb1Y+D/JiiJimBtrGKAXBg2UVQE/1iJpENAi2fNbGTvG7FvQDOMG3ACETloe+9JP6+/VX1Cc6Ulz5oT/kAiJKSrMXQAKit/qewA64JdmgNMirQXAVXSy9RxfKiBHdENuk0WBDBAma73GMluXCebgkmpC/PhYiNDHoOgmg5+wuuQ/ohuq42OPPTaaHqjx2WxJYi56TKToq+D/qG2T5sD7mAEHNuGp1qSTHZ1JYZ999gnvfve7wzHHHBO1Au3U/JdeemnUNAAhJ5xwQnjHO97R03lP36olbrPNNqUiZ8TZY8Lm3MkxcJ6W7IHItFPiHuCKCYBUPIy9ZyyMzTiDRjUACLcstlj47azZQZlk5ZYlQxehYYyk+k9r8JC5c8MjaVpi5cV5oa9aog9AByAk52MJ02g7Wkugp6gS4MP+sb/Qq2wmSn4FT5g7Nyw/54FY1hm4KROzVDRhAUFa6xolMAnYMj0M2ym0j2OaX+lCgQwQ8vboSQEXECZCqmxVb/Z8eQY/4AI97LDDov01SeT+72tf+9qChEj+TRJz+dMEABNFJsovYeutt44XP5DGwQzDIY2TMElo7aR9ZGdv/sQnPhFe97rXRRNDeo4DIiaVJNH99tsv7LrrrrHw1r777tt2xZLU6YL34+I/6KCDwoEHHtjTtmzegMdGG21Ui6Re55byHYcffnhcIyBhEBACIPxs9mLhT7Nnhafe/0D43/vvD7/4zW/CknKLLL10uO+ee8LjHvGI8OTZs6KE/re5IdyIlkssETUnTAWAZDIXiezwnh80ZwaiXWoFCK30ACr159tED7QyZcxfMSbVGZed80BYWiXWOona0hewR0PEkbZKCO8Qp5S7LkmBDBBKEmomP4ahcFDDYOalVc6tDAUw1UMOOSQ66ZH8NMxSKNib3vSmRbrA7DkR8gNIZoMrr7wyOoJpgAHTwvbbbx//TZOgv3bFt/wesOPrIPrg7W9/e3wH0xAxkHIN0AR85jOfidIzTUMnFbi5GQ9QSVn79N8tmVFKemTv+B4MuImOar7tpJNOiv4PnWhZar3nRy78ctbscP/vfxeu/s1vw5//9tfwzKWXDquqr3L33eFRj350+PNDHhp+MXt2uOXnP49Oh4AT4IeJFs1LcpwINy2WZgf6qjpVJo0AjYWqjEvPnROeMWdueOjAXhJlqDJvnzKP8EMZVtRIuZnkp6pSIAOEqhSbYc+75NmvSbkkgKKz3QwjReXPbQcQOHaRUtvZ4l3+HNNI9kUzA4Am54ULtmpjk+bMmNLdAgiiBjB3oYqYt1BLFzifgm4hiUwiHCUxM/0WS4MX5+U7aCyEyHHS9D1yG1RlbFW/dZDnzVOoH3PPoKaGe++7L9z8k5+En/3qV+ExT35yeNTSS4c/LfGQcPdSS4UlH/nIhbQUANovbr013PnnP0czT9F51LqTuPuhG1DAf+Bhc0NYUmji3DnhWXPmhiVHBAqKa5E0kPxlCBnZzDDITh3tuxkgjJbeEzeaw33WWWfF3AgAQm7lKQAgfOELX4gJgzDIlDRpk002adtJSmELHIw7FXD5r1z0SdELIh7YwlMp8KYzheQvwicEYKoyX9b3WFdh1qxwTwjhjj//OfzoF7eFux/1qPAP1VaXXTaag6xrazEkYCr5DPQyHfRaE6aDJeZrCcQ6LTV3TnjmnLnhEWMABa1z5YDq+1ZaaaWBAVgvOuTf10eBDBDqo2VtPaWYd9Kev6ewtF4JZ3pNQF9U1GycZSMkqD15rFMlt3rX9xpvpv8evfkQkN4BLLTk2Lfddtu1JU3yDGdi8JPbaCmAWTP/UPnL29CtSYQEEPxdsrNZs8J9Mf/B7PCnWbPCr3//+2jWATacYaBA39a0XcrkVMoMg09go8yXx8RFkibNnRtLLjMZcHp88py54WFhnrNhUxqtE02WOySHOzZlVXrPIwOE3jQa+RPCwqh8OQSSKjH1VFaZ01E3Oy6mRG1MTdrK0PWl7js7YNlsiUwLbIgk2rKgYuQEa+iA1kIuAuFd6MemjO6dwhKtO8l1UBV3Q8kxEdPi3Cc1tvLqnUCaWAORCr+fPTv8cdasCBCKjRkpAQSgb4nFFw+PXmqp8KRHPzosVngWIBA18DAhh/PzKIh8+Pvs2dGJ0DgyMKZ8CvOqp8wDBN4DCh4SQgQFTAjz8hk2s6WMjnxxhOvmNhkUyAChgetE0pSBTKpaTIYKUsgTBo15cKTC5NupQT0vdIvdkjqv2NiEVRUEPNgDU/MO27dxMLKUQc//p/jm5GTXQHI1ekq33nprdPyzdrzQ119//Z6phxv9QTNgcs6eiAI5I9pJ/Bj2/83Pd0Bz0Nru/vvfw69/8YvwwD/+ER55333hRc9eNjz1iU8Kj1h8sTB7fiijd0QOiCRgDtD0peTzPbPm/S7WcJifCo2mgE8BgABQeO/hlXKlzocZbbM3pd/NLydljsIdHxCkOSfMXeyhISw+GPxIicDcL8xtZYrKzYCt1vhPzAChgUvkMJFkJDspggDAgS2TRsFBq1oAxbukVOrTYi53ki1pieMZ57lk/+ZAJckJlSBbcm7VKUCCpLWxnkIYAbMq9u3qI+Y3BqUAaVeCKw6Cska2Wy9Fl25abPHwV2Gf88MEMezHzZkTHjFnTvjn3/8W/v7HP4XHLDY7POMJTwhLPeIRlafF3AAkAAUpg+GinWDmrf/r/+ZEJu+Xc+c8EGY/cG8ID9wfwn3/CrMeuC8E/75fuajCy/Ofn/dfc+Lzfj/n4Y8Pc544rw7MII0Q4g4qWzdkkLHyu/VQIAOEeug4tF5SkqIUfsaWSX3Jtpmqs5UZXD880PkfJGaftBNSoSoQVAxx8ztSFFOHcXL+gzJUbv8M+opCYF6okkmv/xHzm4NSQC4BIAGok3SoDQsOd8w3Lyw5dx4Tf0iYF0Y4oKz94FBtGX8qGi2O9f4w675/hnDfPWGWn3//IwTMH4dvYfaz5twvxjWEOcDBA+EPv/ttuP/f94anPvUpPQDrrDD3kUuH+5+52qAkjTk7pJGnRRNBk1vzKZABQsPXiNbgjDPOCLvsssuCmfIJSJ7PZcrpRnlgzpwgpp79O1UQTJnzttpqq0XysvsdcOAH4q+qrWg4WfP0MgW6UsB5kXeCWUg4Z7taF/PqYs4zB3RtC5h1gbnHF+aGMCehACr9+ZK9X91Hwr83zL7/nhDuvTtEBh8ZfxppPgiIjP+BMEs9FxqCQiG4bnNyrxACekdOzApzHrl0eOAZq87TKqTxZ82OxeGqNOO5y4Q6yu0xqNN1lbHzs/1RIAOE/ug2srfEk0tk81//9V8LxpSDXyiZ1LVlM5MlvwbmgpRRjwOimHgAodUmqH9qcRoLXtjtpKiRESEPlCkwBgqkvA8chDfddNO+TEOz/v77MPvPvwiz7v/XfKm+04fMZ/hFMDF3TpiF4c8BRcqXflL/IT6+EBOfn8Y59lWxzV48zH3Iwxea/5ylnhzmPH7ZEJZIHhTl+mRi4E/FdNNPfodyo+Sn6qJABgh1UXJI/bQCBAz7Bz/4QdQIrLLKKh0dFU2naDvF8IUZYfR8DFK0A5u4+Ozis34ndz4AwRzRWh9gSJ+au80UaBwF+OU4C/yBmNqqttl/vi0s9odbQogOf4O1eYx/loIH8yq6inBY7CFh7kMfGRm4P8OSj4r/F7UKc+4Ps/52R1jsL7eFEDUQ9bUHHvX0MGfp54XwkIdV6hTo+tKXvhR22mmn7tUkK/WaHx4WBTJAGBZla+q3CBA4T4lC4KS44YYbdgQH7Kennnpq2GuvvRbMgtZBZjbggJkBCJC8BJJvVTOyl6dKbZ7zLhCRY/NrWtTczURRAEBgblhvvfUqnwHag3kAoV28A0F/fhaEyPTnS/2zFwtzl3h4mPuwR4eA+ce/PyaE2W2MGSkqgrbhvn+EWXf9Jsz+62/mRyDoMPkj1EvyBx49HyAsUQ0gmMWJJ54YfZ66pemud7a5t34pkAFCv5Qb0XsAwqc//elYlU/KY+pOFxX7nZDHVtOAKIVPfvKT4QMf+MBCM5RGNkUweBfj55OQigOlh2kmaBr4Hgjz8pywLzUYsh/CiBZ9RMOIUpFTI4ecdSe4M3D11VdHs95rXvOaavUk7rs3zLr379GZcO7iDw1zZ8tcIFbxkSHM7hybkGZEKCB1O5dU8ovPpkWYZ3aIjol//U2Y/bffzjNhlGi+RV9F+z9/I+P40//bDx39A2bNDnNnLx7mPP7ZYc5jl1n4G9oBmDZzcheJnNp4442zH0KJNRvnIxkgjJP6JcYmzauwJ6eBkr8keQcZWHDYV1hhhYUS68hbIPd9a+11IUbME8UESUAA7UDKAZ/CKz3LT4HHvf9jNxTH32qKKDH9/EiDKaAEtLVv3SsNnvLYpubsXH/99dFZ8SUveUntjM05iwqEBY5/c8O//vnP8N2bbghf+39XhEc8fMmwzpqrh5We9cSw2N9un++XMI8ci77bnkye4+BMA5kKgHlSWmxnnPnR70UYMD0SQBaKbAJwHvmUqNmYu/jDQph7f5h1z1+jE2VY7CFhzlNeNN/80X2Z0FIRM2XFeztJjm3J88D241133VXe+yWTbOQUaOekmC4FKBzTTkmPAAeXfmulQBfDz3/+8yiJFPMZ+PeRRx4ZS91ydnRwARISRLGEsDmwxbLDZseikW+BoQxIYlTC+8UvfnEOYS1JYZIv7RqQzUG433wWNHnOU6qM6nz+4+67wz/u/lt44mMeFRabe1+Yc/994bvXfzM8YfF/h2Ue//Cw+OwQC2AVnZJpAmiB9Ae49HJYNg4tiDNeTJTGGVkqZAnS9JMiOPxdlFS7CI5FSKaC5TKrh7mPeEIpajIzSEGewWkpco3toQwQxkb6cgN3Agje/u1vfxsROI2B5tKRS/5d73rXQp2nfAetGgQPiW449thjoxTiZ5tttlkkYsH/uxhdFmmscrPPTzWVAvYKXxVZOTPoK79Kkl7JSCpUuN+zINPpnXf+KWzymleHWf++J/z77rvCj3/0g/D3O38X1njBsuGh998d7vnnP6J2z/q0k7IxcWuIsbsjRCelDKidvsY5tubOfDEPgXtBzhMahLQXPMsPyfMSq/Us0z178fDAY58Z5iz9glLhj8CWPBM777xzeeLnJ0dOgQwQRk7yagMmgPD+979/kUgDpgAOh6n4CZMBLUK7okokDZdKrqdQjf7DfjoBs/Rn0g61qo1Jq37qih2XbEv4atk8GsOmw6T073ypr0FzR/vSk3EWP4z9f+6c8OXDDwuv32bT8LCHLBZm/f2P4e933Bp+esvN0YE4hRPT8HAqdmad79ZxnGdmAeDBnvCn57qZG8wdqLCPimXbAQRgABgp1gHxPOCgz17Fq+RKmPO4Z8/TIJTIj+D7Pvaxj0XzaS/Nx6TsjWmcZwYIDV9VaP/oo4+OzlHFIicuCGYDasp0ybswtF6HueGfPNXTA/hofkhmfvybCtcFT3rz45JOf/enC1wWOpIrG7HLlWrx53ITAAAgAElEQVR2kKiSyy+/PDKknEK7+nbDZL/xjW9EMxwazk4RCO264lB4/71h1r/+Fmb9+5/h/vvuDdd+9YLwihWXC4vNnhXXVr0O6wwcFIGAcYAE620c+wRzBxpoDpgLMHUmA5lOmQYxdXtFf63zYoogubsvigXDmBpTavdWIKJv94qIg25FxO5/4vPC3CdVS8d8ySWXxLkI186tmRTIAKGZ67JgVg48JyIHPjkYOug/+clP4oXg/9LB9awLIKdFbu6iYvLCS6l4kz04aXWsJybh8gYYMAQ/1htQ9DxJD8NQ8KYoBVb5YhLh6aefHgEnO3Bu1SngTAo55onfFqgpdvTPP4fZd/9+Xv2Df/01pkL+973/iqaD5MMA6H//+9+PAMBPq18DMEBTCBgmx2H7QcXWZZZZJu6LYggyZg94ptLSxf4we/cGDWPRrOQde8t+ak0Ffv8DD4S//OWuCDYe9/jHP6gdEIEhgZIiTqIaHvecMPeRT6xESGPyRXjb297Wtz9HpQHzw5UpkAFCZZKN74VkQ3RhYBIuiFxbfXzr0c/IyR/E2hUbxi8BllDSYZfDtXeAFEBSFExu1SlgHfkSAHycfBcJFZ07J8y+89aw2O9vDnNlNJzf/v2ve6LEnwqxYfwyC9IIdXMGpC0kCACWQMFll10W3wEo9ZWaMOhkjkqaqfQ7wIEZEiicJSQxmgLmaTHu+utfw2OesHRY/BGPCWGxJcJc+Q2WeJjkyuGPf/hj+OOf/hRB6bwmWdNiYe6sxWL0Qvz7Qx7RPk9DF9ICP4ceemhMI5/vsep7cBRvZIAwCioPMIaLyAF2KUjWQu1IAiBlZn+CAQjbsFdJhRdddFFUGb/iFa/oe3b2Sy/veipojIJ6N6fQ7pvUUZ1/4YUXRka9SNIfiYvu/mOY9a+75mU4BBL+/Y9w/29+FO7+y58W+AsIV6bWF3bYbd2AuhtvvDGCAVoHWgiM3r/nJVuKMZKxRguJ/zGPfWx48lOeGh6y1GPmlWpeYsnwh7v+Ea67/saw+dbbPZi4WcGpe+8Nf/rTneGJSz85PORhjwxzmUwWW2IeUJgbgmJjzCDrrrtu/8Tq8CZQLOxSbpfcmkeBDBCatyaLzAjSTg5G/o6J9GICE/BZeYoFCmDsKc6e81s/TaQJz3CRKN0kMmDTD+ewbnblfuYw095huz/qqKPC3nvvvaipQXpjHHYxCZFmhXDPX8MDP/9m+PMdv4rAzJmWrOzlL39520iF6HBIyp+1WKDqv+l/bw4rrLJmuH/xh8dkRY983NJh8SWWmNf3fMH+X/+6N9z7r3+Fh/JlWXLJMIsZIGoLFgt/vPMv4drrrgtbbLX1QsvExABYMHvQOvg3U0Pyd+Azg4mvuOKKtS8vbYpQa5FXXX05ah85d1iGAhkglKFSfiZTYAQUoG7GNNiCq0YrsGMDBS5ZuTAOOOCAjqWlOUZ6rlR8+wi+e9KHwFylNt9///27M7n77glz7rwtnHvm6WGLLTYPN33vR2H23PvDys98VHjIQxWJBgZmx/oGcx/++HDDLb8MT192ufCkpZcOP/7xLVHd/4IXvWSeSn/+s1UEBXuL9qHooIj2gEgCBfaFrJF8LLbffvvovOjvtAfD0FjSjJx11llh7bXXjgAlt2ZRIAOEZq1Hns0MpgBVLzMS1X9KolOGHC73iy++OGbb5Ntw/PHHx2I4nVIoAyIYwSBREGXmNVOewWB/+MMfLkiD3plpK+88J/zud3eEw794eNjtjW8MT3vqU8MSsfZSoXRy1BrMDvf869/hggsvjL4OtEo77rjjSDQ+9iGzJkdZGktMnKapChgpu/Zox7Ga02W/FTPLjpWfq06BDBCq0yy/kSkwFAq4iKmcOQ9WyTDHgY10B1i4xKlsd999944aBLHtVMhVQMhQPniKOsVQjzvuuLDJJptE80EvZkqaB9J6PYdBJ7+SaVXB01JI1vb2t7+9Wl6JKdo/Tf2UDBCaujIzaF4uQBdhmQtzmsmCBieddFJ0WJOpr2yjohX9sPLKK0dmwh7OO7yTfwEtBce4QfJllHGGLDv/aXmOnV7OEmF7w1DHTwudWr+DxoIDJtNazsvRrFXOAKFZ6zEjZ8MmLiaaynumX6wc3mgPOK6VaRj1EUccES/WddZZJ9qYxZZ30yCIhQce+gUIHMuMw4ThUu8lBZf5jml4JoWwMglstdVWWRouuajoRqv19a9/Peywww7ZWbEk3UbxWAYIo6ByHqMrBXhJU6/nBE8hnHvuuZFxl/UYp3U4++yzYx5+GoSbbropxso/9alP7ci4pVmmQeiX3t7nmMd2zC6ey0U/uL2BXdIwsMtvYFrNAnVfafI3XHHFFWGDDTaIUVq5NYMCGSA0Yx1m1CzYa6lj2WpJDxiO/8vqxRCuvfba6BvQLlkSEIVuxUI7No5YfMxeVs0zzzwzSq+tnurFDSYpkygJGfhyq58C8gYo6rTGGmtEp9HcelOAo63cHBJPrbXWWr1fyE+MhAIZIIyEzJMziIQ9nIZIoMNqpAVS7xvf+MbIqCRhARByVr8Qq2aSPtsVUZIJTwbELbfccqGl4VMAaP3ud7+LDEkp325hknIgSLilWFO7SoHDWveZ0q+1sCYyJK655pqRzrl1p0ASFEQzbL755rnCaEM2TAYIDVmIJkyDZ3UqJNSuIuSgcwQCqKP5Gyh2s9FGG0Vveqmj/U42upnehCBS/7ercKdwD4fEPffcc4H5wMVKq6DCIGC33Xbb9Uyk1W+0xExfmyrfD2ir1WB9mH5aaxxU6WumPGv/fu9734sAN98FzVj1DBCasQ6NmAXJ0gGVwrXuC01qWBKVw9+qnVCZDkAoYxMHYgAKqsiXvOQl8QKmMi9Kw5087P2/byRdNzWDoPnxK5DEqNV+zb6tAp70ui972ctiJUiSqoYeTDa0MAAAgNHNeVAyHM+LmMhtOBTgo8EnBLOzLtmZszudnW33j/OsCFb23xjOvqzSawYIVag1gmdTyJ8/MbJRXiqYjDj8ogrbodVaVdbm56fMISYVy7mOcXHcYvvGBFNRGRIwz3gMqxfjBjS+/e1vR6c8Wg7vSS/MqQ/40IANACdVymML1kjg/o+Nv7Ws7QiWttQQQr4AJjRqF9FB+wJoYTikVN7fwJFKgGmN/H+xWl+7gYEL2pxe9C416fxQWwo4H7IQ2t8qMfZbfXMmkZeJzQ/TzGMe85iZ9OmN/NYMEBq0LJhdqrKHUVxzzTVhww03HJk3tPGp/qF3zQWXQuLE2RcbezdfAhdfaimpSxFM+D+e+Z7D2Hfeeeco+ao7kAq0ABCYIuc70jFVo5Cn9ddffyEmmbQHzCCrrbZaBAHf+c53IkigxuWYZ84c/YCCm2++OWoMVl111fj/Lh7OUIBFAl769H9NSTtsLrzgOSnmREYNOpx9TgVYdY6lwVYNMUd8dCeku4EfAg2YzKC5jZcCGSCMl/4LRk8MDMPCKDFW0rKLBWMlXa+yyipD1SgAJSQe3vCkVxL/OeecEyUf4UfFJvc/h7iE8knmSdVfLBTk/3gnk2hJumL8gYuvfOUrYZ999oldcr5LKYaNBXiQgoGlN7/5zQvMHcYQXkdadoGg0QUXXBDnQYOA6QMEJ598cnR0kn7YvD2vuXxoMgAF86H9YKbwd3ngR6mt6bTtkn8AEJPm3ZAtmqfRJwVoEOxFUjHg14R91uenDP0196D7jraPgNBLEzb0Cc3wATJAaNAGoC7GcIuqZQeGhI3Rsr0n6X4Y08ZwhWhxrtpss82iajRFNLSqu9lWSe0uO0wNsGBzxZCTlKQ/NnNxzZ4hyfud1MC0DEkrganTGNAekPoBoeWXXz584QtfCG95y1sWAAQ08NxrX/vaqBGQ/x5tgIPkKe4ZYZNAwgc/+MFobigWgQEy/CTzBi9+fQBlTbi40UyqZCWfh+EoOox9k/vsTQFnV7SOvZ2jGrrTi2DkPgH8+03m1XtF8hNlKJABQhkqjeiZol2eJqGoqsfESL5U61UbBozxUsn3KiVsHDXqSda33XZbVL3TKLQ2B5j9mi8AUAEI7LrrrgvZtH0PU0ICDsL3MGwOcqSDxJA9x/cBGBEDDYyQIMyFOYE2QGN7F+f/n//5n3FM/XIAo7FIfdE8XHTRRbF/Wgagq9U80votnmmKBsHcmGTQv9e8q+6D/Pz4KADQCu1lZrBny/jujG+24x05adEAqeQ/NN4ZzdzRM0Bo4NpjmBjh1ltvHSVuTBU4oIrvlKPfO+eff35UyRV9CDBVfgTp/1qlZPb7L3/5y5GZYvDGAygwTX0lx79WMmHQJHERCammfdG0YD7ME9T6tBHJQUvfn/3sZ8N73/vehbo0nlA9ERTJrwFIetOb3hT7YJLgoIf5M28AOhICtStbnKIY0A2I6CaFJNMOENSUSzvXOWjgoaxhSvxLPvnJT4a99torJ6nqQU/aQUICoJydFWvYfH12kQFCn4Qb5muY62WXXRZe9apXRTs7RotxCgNs5+SEkV5++eVR1c7G7j0NM042+6Sd4L1PkwAoAB0c+rqVBu70naT7E044IdYMYDLYdtttFzwqGgKzp32gUuWRn5gvJi+WX5KkMo0/gvnKb99qXqEt8B2dPPF9Mxq0yymQxk703WKLLbIDWZkFyc8MRAEaMT45TEjZYbEzKYEpPkjMDFUqmw60OPnlRSiQAUIDNwUJUuheukQwSYeFOt9hafUH8PsbbrghrLvuuuG6666L6vXU2PNOO+20qNbnC6DmerKDsnXvtttufSF0jPXggw+OGoYiszd3PgzAAS98IIQ/QUr9y4wAPGy//fYLUZ6WIBUAAib0A/hwnPT/tAF1XxTJEVQEBUmlKRqEBm7JPKUaKQBYMxXmzKGdier8uyeYGfg6NTUsucZt0ciuMkBo5LKEKDGrTVB0aOL9z9tf+E8x175QP2p0Egkzg1DCTo19j1+AxmlKzoNhVVBMIY6S+qTiQe1MDC4D4ZVAjhTDHAe9S8XI9LDffvv1BWK6LS3gId1wyujYTcvQ0C2SpzWhFCAdf/7zn48ROnnfdV5Ego/EScyJOeR3PJs9A4Tx0L3nqDQBVPPFlKMYKWnXwSF9QNUYqWI9nOxcPPwASOzdGpBAiuHTQIMAhIzKg98c+Ve87nWv60mDYTxgfGYOP+hAK5NDqYZB6dxnNwqItEm+Qd3qZsxkKia/Ktk+3WmZTqPfDRkgjJ7mpUYURohxtYa6sbuz+WN0bO/U7/wIgAnPcvDrpSrnP8BkweRAba/PTs6IpSY7QQ/xjxCdQWsiz0DdKaUniBR5qmOkALB/7LHHRt+iXpFFY5zm2Ifmr8FvQ4h0twqlY5/olE4gA4SGLiz1v5/WBEUuFmGINAns/Gz3YqyZCtpVAPR5JGVRByndsWQttAa0DinBUS+tQ0PJlKeVKTCxFHD2zjjjjJjXI5sa2i8j3yM0WmeddRaYKSd2wSdw4hkgNHTRqP9PPPHEmAOgKN2n9Mc0CEnyYKd3wQgHamcqABBEM3Ae9HcZ3YZZzrmhJM3TyhRoFAWo0PkPkZA5D/fS/DVq8iOajPtOcjT3m/sua/xGRPj5w2SAMFp6lx7N5cEPQYpldvLUIGoxwoCAsMbUON3xSRiVL0HpD8kPZgpkCnSkAA0gR1l5OGj2cluUApyJJWLbZJNNsplhxBskA4QRE7zKcMAAoJDi/KFpiY9oA0QyyEyYW6ZAEyhgrzKJYXTZmaz8ijjTknkBCXJxNKVoWPkvGP6TaCQ6SxZKwlIWgoZP8zRCBgijo3WlkWgEONM5EA4IFE2jADDId5Czi1UiZ354yBSwL0nDnD/zBV6N2M66Coaymrb6HFXraXqfls8lgagMQEe3zhkgjI7WlUYCClwcbG6KJglfdIG4fLPmoBIpJ/pheS8+8pGPxKJV8knkNn4KyOXhfKaKoHXMKFU9ZWdPacnr6Hda+khFzHbccccsHI1wUTNAGCGx+x3K4cgOTP1Sb3LfAxAvvfTSsPbaa8f6FR/60Icm92OmZObMAbKB+pHhr67QO1lDlTkWbSSqIUvJi24YplVhjymV/JRsqUZ/RgYIjV6ePLmZTAFmJSp7zOJLX/pS2HPPPWcMOYBirUnAmCYPk2Lqk78AQKjTq56GkMaI+bDomDxjFr3Hh4rA+vjHPx7e//73ZzPWiDZFBggjInQeJlOgKgWKkSlHHXVUrGw5bY2qnoNjKiDm38J2pRrnnLveeuvVJqUPQjtrwQauPfnJT46F0+rSHhTnZQyZUhUmyw6Li66YpHD2isRJuQ2fAhkgDJ/GeYRMgYEp8OlPfzr853/+58D9DNIB5q31ckKkLqcBUBuk17Oyet54442xKiibvhTYHNIw4fPOOy865Mp42dpPKuaVVPGkb9oGdTw6jSl3iKyhtDLyjHCq1LwjcVgntb6xlBhnXuALpO6J+Q2jAUtMDeL+cwGxRSkMqB1zzDGxjkU2wwxjBy7cZwYIw6dxHiFTYGAKvPOd7wyHHnrowP20doD59WLi6R32cUxcWu9276RoG4wUs+Zs14uRcs674oorwnbbbRcvfJoDDBtzVKhHHhAZQoumBozeGCRsP5wGb7755visvP1FxuFZQMWfgAhgIERYqvEf//jHEchwDFx99dVjQrJ2TAeQ8KziYULtZCAdZpPxlBbBPLPD4qKUPuecc2JKeSG1uQ2XAhkgDJe+A/eebLGpIxdz2Qt94MH77KCspNln9zPuNfTcaaedwimnnFLbt0vzi1mS9jHgZEvvBBj8/6mnnhqT+bRGU/idGhf6kgtB6m9M1P8xEXST9DD6iy66KOyxxx6BNoHfBUaP8esHIFEzpAgQmCAkztlhhx3iN6hOCgAkJl98FijA1GkllA+Wa4AfAfNFqnNCapetDyihISg2509iMr9Xfh1jGnZDx1QrxXhZUl6Y4vYV7ZKCb03yURn2vhhH/xkgjIPqJcZ0CKRhTXUTXJQkJZemy13thE6plUt0P7RHMAvOXKS2LP3UQ2bM7+CDDw4f/vCHS3WIwUirjfGx1bYCysTIeeIDBgp2Ycj+X+6Ndhn9zAHzx0Ax7GLjPIZhY2aPe9zjorre8/pP6vtOE08A4Y1vfGP0UKdCJjmbM8mdScA+SowAw1aHxFyYJfweAydxcxoslgW2F4WIMs3IM0BTYF7e1ycgkpo9q8aJiJHEkM0FGKGdcB5HWYHU96n4iBat9C61Cab4IfsaWN5oo416aqimmAwj+bQMEEZC5mqDuNhcaMrBktaodDlEka7YQklaLjf/Ty0qxXKTmksf4+lUPKpJc52EubCvk5Jf+cpX9pwuNTjGLOMmQInRqudRbBikPWTvJEc74IAHPfC5yiqrLDKOvQcIyMEB/BWbC/uaa66J/gKJuXrWXmXv71YILAEEGhJMnu09MUTzZ4Lgg5DG1K9v85x6IgANMGSM1iyOvunAAw8M++67bwTbG264YRwDyOZkWAQTgMdxxx0XQQAwTjPBF8Bc0BNA2GyzzUYmsZqPEFdrBMC10rznRpjiB9yPP/vZzyKgbN3bU/zZY/m0DBDGQvbugzoAvJnXWGONtheDy4OalE2YxCYkKns8N3Aha5oSBrjMMsv0TJCFeV5wwQWRWWIq/n3YYYeF/fbbb6GZKBeu6ZNkrlgQpih8T4x5Su1dfImqHugrU07ce4nB0SaQyjs1AOHCCy8M66+/fgQD9nzSFpDg2f59S5oTDQBJ39ztfecEEMG8Mf1W4HLIIYfE/99qq60WmC2ABGGKrY2mgAMiQMAkASwxW5gXmq2wwgojBb1owydDJUPCQG4PUgBgZZoS7WEf5DYcCmSAMBy6DtyrC8rGJzmQhKhAqUWTtgCIIC1Sr2IInMGa7pswMFFmaAcf+9jHwnvf+96eX0/TQLJ6/vOfHxkqyV70Q+u7GB9GmzIBihxgCjj++OPD3nvv3VZKPuuss6I2gFq3bLvsssviO2uttVbHV2gAVC2lQTAv/gKpmb+wttVWW20BAHYWfCOQgHmTsp0TAKFVygZSACZmkQRSjOds6bO16VujXUEfWjpnCtCi8vcusNIuqqIsTao8Z/4cOJ1ta5q1CA9Sz96wB+xdmqvchkOBDBCGQ9eBey06+lF3XnXVVREtF6U7z5D+XKLUz60OVv1OQr8uaxKMC37Q0tDpUudhnp2Kqq0K2r3tbW8Lhx9+eM8X2awxNep3zeV57LHHhne9612LvFt0fk2Or+973/vCRz/60bbj8DGwF9j9yzZmMvsVc+vUaMHkeKAqpp0AWlKzDzkWAhjpm/wOEKJBo/4HkI3BFNfOmY+kyYyS9h2zBeZfNV258wBYMMM4c8ajuaNVGeaeBlaAM9kVc/2VhXcRU9nVV18dS2Xbm7nVT4EMEOqnae09Uol+5StfiYyiVUtAulHpzMVdlzOTg0dKo8YltQAI/WgnXPDpUmUfzlqO6lsDQxM9sPvuu/d8GeOiZWJuImHRPOy1116l1OIAwyc+8YmOmgpgAyNkMijbMFXvFJl+67vALzMBfwBOhq37jObMmK1+Nuab6pU4AwDEsL39jZkiLYCOVFCNr5B14mhZt6kvmRsBGtqVYYKRsuvalOeSg6r5tDMZNWWekzyPDBAavnpJS0Bd24lJsJ26YKla+2HkRRJgBCS/dBm5wDH2dhcf6ZaWodX2m/ojHfrhFd8aqtZwsjdmeuzfpNSinRXNAbhW1SpGee6550bPe454+++/f2ntj3dPPvnksOuuu4702zFdjBbja+f7UCZktkouh7o+zphoZu4YlX/T4A2DgQNan/vc54JcGN3AVl3fNin9oDmNDh+UrbfeOptghrBwGSAMgah1dukQuOypUqnS2jW2UZcVB6tOdsp0mFzCnmvXMHzOWJg6kwVGQx3brgZ7irTgPNUOIPg9s8iyyy67wBmuTrrMlL5ojqiXrStmyoxw5ZVXhje84Q1tQRtmZS+gf5VUwN457bTToi9Abs2jwA033BDBR7sIk+bNdnQzIsDwRXAPPfe5zx3dwDNkpAwQGr7QKaSHqnXNNddsO1vSJBWkQ9JOgtEHJyvMgyd2J1UsSUU4WHIqE0ZEVS1+vLUxe4gxV2WwXUt+DEcffXSUgDfZZJNoH0859xtO9sZMjxf+O97xjriukvWkcLu6J5gBQt0Urbc/6/Oe97wnmoGys+KDtHXPyLhJmCFADapBrXfVJr+3DBAavoa9AIKLgyMXr+yikyIGzrFs5513jhoBSJuzWDc7rfAu/gzUzFTbmBHzQCvoMKezzz47ho71Uql6luQLnGBwHCqpvqtItw1foqFOj1mJL8GZZ54ZdttttxhtUEezb6xdWr9xmRjq+JaZ0oeQR+vULWx0ptCi+J2/+93vYk4Efk4iTHKrjwIZINRHy6H0lKR/yWE22GCDhcZg/8T8mQaYDZINN9WWJ63zH+BYJa1sN3BgHGPQNNAy0Fjwmm5njsDsP/ShD0UNQpVmDNnxlC5u51lfpa+Z8qyUuzzxefnX6YTHdqu/lGjL2hxwwAFRQs2tmRSgzRNlYp3a+Ws0c9bDn5X7jubTfUjL2ktoGf6MpmeEDBAavpYubiFdpIdXv/rVMRMciZwqjX8AKR9DL4Zt8aimCWCvxJA5HPZiLiQTtm3P61/e+U6ZEIGSFOpVlXwOM6/vbqFvVfvMz1engH0l+RHnR1EqnN8yQKhOx1G/IZmVJqFUbg9SINUAcdfVFc2V6RtCBggN3wXJSVG2OUlqMHHAgKoZE6dWa0XMQguPOOKImEiGs2EZm2WS7nkESwbTLTuZanP9pn8FRJgaFPHJbfwUoDWiaWKCwnyE6uXWXAoA8HJbMD3VZW5q7teWn5l7JZXJ5jOVtQjladftyQwQ6qHj0HrBuIW1nXHGGVEt798prKuTQ45EMi574KCX5qB14hwVaSnkQOjUOEUKe6xq7zNvIZnyLLSaS4ZGwNxxTwowGV1++eURtGXfkJ7kGusDNHDyRsgLkbUICy+FSC9h2gBClXwdY13Qhg+eAULDF8j0+BAk58EmTJcUg8mXrcfOZMEUctNNN8WENsrq5njuJqxknsMkUoB/kHwXCktlLcKDKwjoAk/CroU85oiGwXd3BgiD03DoPdAIfPOb36yUB3/okyo5AK0B5yoAAcIvltMt2UV+LFMgU6BAAYyQhpCUnPMiPEiY5FdDIJG2O4OnwY9NBgiD03DoPXA6VNFP/vdJbKkITlVzxyR+a55zpsCwKZAcl0W4SGzVtHLvw/7+bv2L+KFFoKWsagId57ybOnYGCE1dmcK8SOAiGUQVZBvxBCxYnmKmwJApwKlUaB91ukynuc2jAO0BJ2hRXSKlMngabGdkgDAY/UbyNolBjC+bWo5/HgnJ8yCZAkOjQEoeNohGDSOUYlhE0Q477JC99gurxWeLSVZOhG7RWENb4CnqOAOECVrMFL0wQVPOU20IBTAUph4hr/06b6X8G/2+34sUiXEKURvmGL2igHrNc9Df0wied955YZttthnoO2U75dfD3t4pZ8mgc53E9+1TTpySw3GkHgSITeL31znnDBDqpGbuK1OgoRRQhEsuDaGvGErVpkgUgEGdLW9C3Y2fzdVXXx2uueaa8JrXvGZoGfEwVGG6G2+8ce2lmavQhNPuUkstNRBAEPsvb4moBjlScnuQArQIfBHWX3/97Kw4wMbIAGEA4uVXw4KcDJkWzacABy6SFe/ubbfdttKEL7300ggMlJgeVCIj4RUT2ZCoZdfknc9uLGqHh37dobDMdNdff32MqAEQpiGZjrwi0mZjhNk/6cEtTUt05JFHhi233DKmm8+tPwpkgNAf3fJbIcQaAaQ+dQJym24KcPzi8LXqqqsOxFhl+ZSme8UVV4wEAxZE6LClKywmS6jsjgqP1ZkyN5U7V9hss80265oIbJJWErhSzZBJ5qUvfekkTX3oc5WrBW1e9apXDQxqhz7Zhg6QAUJDF7tTckwAACAASURBVKYp06LGJNHJnFh0kKRuVspZal4SJRWxy4rkNyz7cVNoMhPncdFFF0XNAw3CIOv7xS9+MSb4UQhMU0GUN7604QCIPaQyn9LlyoPX1WgPSNuSfAkXHoaZpK65VukH8OGQR6XOzJC99h+knjtKynnAs1irpgp9Z/qzGSDM9B3Q4/uFV1L/cvhR1Cc12oPjjjsuvPOd74wRFtScLveVVlppIAaSl6N5FMCEzjrrrKjCJo31CxBoC/bee+/wqU99KgJJ/+YbgXHTQunXHpJT316rM3wvpStX8Gz55ZdvHpEHmJFyx2iIXu2qrw7Q9cS/KtLj9ttvzz4afa5kBgh9Em4mvEZ7wNGHM5WMbUXGADRIZ8qOSypzCKft4p0Ja1zmG0li55xzTpTCNtxwwzKvtH1GnY8zzzwzvPa1r43aCJopKn9OiUk7NQyAYP6cE/1sv/32pYqX9f2RY3gR0EJHPhs5U+nCC+AOU16eFiH7aFTfnBkgVKdZ494gwbtY1TnoV7pr91F33nlnlEye8YxnLCSZpAJSKVOZ8ak4qzgDudQUhZLwBdDIrbkUwGC/9rWvRamfD0K/7Ze//GX0MSDlUvHzRzj11FOjFio1+5gjIQ3Csssu2+9QC70HiAAmq6222tSWGXdOhT3KIJhj/x9cfneV/cQBdp111qllP82kTjJAmPDVZsN1AZIe2G3r8sx2sKjn9M35qbVkNKYxiDc7UME5DQjhUZ5bcylACvvud78bNUnKfPfbzj777HhJY2D2149//ONoMy8CRADBvuOg+LSnPa3foRZ6zxkRvbHLLrtMnfYgfSgfoCuuuCKCKubAOgWFWhZhjJ0Apfyldtttt7GGto6RBH0PnQFC36Qb/4tQcbLXKs9cp4OSi/pb3/pWtBMPA3m70G699dbILOp0Rhv/qkzfDJLjIIDQr1QPEBx00EHh7W9/e2T++jz88MPDW97yloWYtsv8tttui/sC4B202b+qiOrvOc95zqDdlXrfmMxuvnlUZYeNdeWVV0Yt4sorr5wzrraslGgrZq1BNGClFn/KHsoAoaELKvmJim1Csto1FwIJ3EWk/rnLu84mVpzjIbtz2bLOVcanOZDkZb311svSThXCjeHZxLTtsaKjapWpAASHHnpojHp57GMfG/ftMcccEwFDUdqlWbL3MdY6bMY0YJ/+9KfDAQccUHtehU7fT9XP+ZLDruifYmvNAZF+5/+1QTSATDbAkBDSDLoXXh33GXPW7rvvPrVapCrnseyzGSCUpdSInxM9cMMNN4RNN920rTTg4pN1jufyCiusUPvsfv3rX0ebpqx7ddd/cBn6PuFtW2+99cBz75SCWqQFECKEbia1QVNyMymkdMeYN6aN+ZBO+7Vv0xjRSK2++uqRaVp/oKFVqjcW8GCsOvadlMbs8wBCFbU7UOQMKIZUDIm0d9G3Uzpo3+Q9JrhW3xqg2LcBWUWTHf8dZ3nppZeOfhL9ggRjfuUrX4ln9oUvfGHf/UzjWUEbNJaSmgkmt3IUyAChHJ1G/pTQJRK8S+3lL3/5QuMn/4CUea7uuuf6Z3N20W2xxRa1f7tLlISFUTCNpGZcrXiR95KsHHwx+pyzUl/6ueuuu4Lsf8LyJN2ZKc23H3bYYTGcsB+Tk/clmHGZYtAAKhqLQLDP+s1uiDliui5ovitCZOVDaJ0jgJDGKgsQ7JEkmReZK2YsR4CcCxhv2eZ7L7nkkvgeYLTVVlvFPUkKBTbkaaD5Ah5aG1AqOQ9Vduu55CjJn8c+TXvcGaYJdBb8HXPvl8bmIuGUedIi1H0vlKVfU5+zry+77LKw6667VgKLTf2eUcwrA4RRULmPMTBRNkUeuB/4wAcW6sFFe9VVV8ULTNKXupv+XVou6qL0jXmQLjVSVfp3UcIqU3CH9sPFLWTOhe5bEyBRgS2pR13wn/nMZ6I0KUEPlW2rdCwKwqXNDJJs1jL1YXBi3mdaghS0PPnkk2M4X6t6u+w+scboKurApZpU5dah3wRDtGEYI/8DzPw973lP+MQnPrEAEGKYSVth3xmrF8ABAvVLGicxM0t4JzHfE044IY6J6fbSfBQLUemXtoOkyfEPkAFqhPbar0CMsyeKp9V5V7jv5ZdfHh3iWjUW9jKNWQKyxuSoCRAw36gRgda+vd8GZJx44olhk0026dsc1O/YTX+PFktGUHdFnTk2mv7dg8wvA4RBqDfEdzFCKWdd9gceeOBCI1H90zCQYNhzW1ti3FUr96VwRRKUS5IqNPWvT7HWLmAM3CHj+OPiTWlzXU4kGPHmgIu8+u0aG/NJJ50U9tlnnwg4aBOMyWtd6KNwSdKjrHs77bRTvDCpYWlUXNJvfvObF3SLFr7TPF3emMvxxx8fbd29GMwQl29sXVuDCy64IEq9rcyrdVJozyEQ8xPK2i5SxaUqFwbgIdqkX4BgvTm7YqqAn71z4403RmaZ0itbdxK2fWCPFZl9ce4pbTIHXRoOvgqte90+ss/Q4l3velfXeaPZaaedFpPpmMNHP/rRuDedBwAEaHUWgSaaCP8P5NJMtYJjGgf7X22E1oZxy1MgzBN4QFv1AvhhABY0D2hcVnPSbpOhzRlnnBHPnoiTQSKNxraJhzQw2iTT7aCVNIc0xcZ1mwFC45bkwQlhmi4Qnt6p2eTs6i6pdtoDl+1nP/vZePG67MpGIGAAAIDLENMVGrbGGmvEYdOF7E/I28VNzUpyx9z333//KBW6GAEXY7vk2mV10wemRDqlnfA+MEIl63c0I8stt1ys82D+KSSOvwJTgneod1Mj4VKl0hSYA0e4vfbaq2/pucHbodTUkpSEQXViDtZa2BdG7aLE6EiwnWzfaGzPsan3GwkggkGYofdpxUjnJOc0R2tvXvaQv5ubCpL2o3GLz9k7F198cQSB7Zgp4OPccEiTtbFVA9dKSH4KJHcgCQhIfitAKUdh5ivnDY2YSNDYc/ZmK0Bwbmiw2lXMdF7SufA973//++PZoY1wDuxxSaSq+Eq02xTAEQ0asDGINqLUhpuwh6wPwAvoVcnbMmGfWdt0M0CojZT1d4ThkQa22267BZdGkmpc5i7PYgMOOClRx6cKebLUVWkuZxcwAJDyEwAq1LXGky1R3y5gGgaqTJceicrh83/JDNBOgvVNtAwkHGBCCtzkmOU9UiHNCC0ARk8z4EKmkuZPwGxQZBa0Ci5YF7c5m9tMdtBif0ZTIKsdw0dLvhlAAWm2jEMcqUu/GHU/Whn7h1T++te/PoLHD37wg5FptwMwmDOmy/EWo7Sni5oE+4wKH0jspD3DaO1D+8K30qZ0auYm0x5NBM3FUUcdFU0KtBIAwrXXXhvBJy0D0GVOAK7m+VYHRloLP+20Z/amudvvQIz9D5howJAIBKahQZu+P/7xj4c99tgjM8EWYrp/0JpGaJC04YOu0aS8nwFCg1cKw4R2XTbJ0Y4Kk0QnHr0YY+1ZkhnJm5T9//7f/4sHAJNu5/yHUWDsrQwiaQtIcqRLDXNgk8V4eVpLZOOyg8BT2ButA0bSLs7YWKTFdOGT/syRpAVwpEs2AQTq5fPPPz+aF2gHkkQEKLVKbMYk2fl/yXAwgzrC4xq8LbpODUjDUNuFvbocATCMb6211opalqSa7ya1AowYZEqtXZU2mDz1OrBK6lZAp5g9sdgfydead6pMaP8zVzAbtM7Z99mHnGuF/tqjAKQ04Z2a72LusG/tUaYG/gMaOskgSRPGNJKqS2IwnrX/iyDY+N7xvZ3CDAEg58de33HHHRecP6Yza0PLUkfjOwHY+PYyILCOMSelD+YcPk8EnpnkwNzP+mSA0A/VRviOC0Wj5nSpcGTCMF3wxQYYyJfv0mE3JZ1QV7LJ8yAHJqgbXWj+j3MU5tzKSFxuEhj50yWbAAL7qEvRJemCZjctOgBiTJh1Ebi4MF3oDqS+ABIakNNPPz0mc9Efk0W66Ek+vpeql2rX5ZZU5r6rndOdb0tJl9hcOSoOqqId4fLWPpT9kVIZt+scE/KDVhi+CxIDwdgAC5qY1oYhYqT9ZujzLqdUa+7vGHe7CIBkPrPOnep62E+0asxuxXXWpz3PuZZpDBBhuvL/3cpGOwukSfsWKLYfk7MrmqQaFKJ5EhhAP3TyDUUtiP1uTPuxUxbI5B/kvcS4k20cndv5LvSzSZhogDJmln60Pv2MOSnv2BPuPzQSdjuT74tea5YBQi8Kjfn3Li/MmWSMadvYLrXkH2B6LibhO6ScZILYc8894+VFSndpkmhcfKQeqkzAoJ3K2OWW4r9TuFXKRkd1y4ZMqqIiLl48njEWoGIeKTyRJEPdjbm4YKl0fYO5ABWAC6Zhrg6uZ5KDGs2Ff3dLAuVdtl2XbLJrj3nJxjq8NUKHbo5u1gCt/aS4fqASwxJS28pQME507iTV9/rgVMwLQ7VPOQO2A3vmBfyaezvzgXEwYIwPQOYoa38wqdi3VPu+nZYrAVvf2C2CgcnC/IBdZrQ3vOENC77f/qTtAhqK5jwaByDM9xSZiz0IVNBiVElJnTQfwC4tXR1Nn/wvaEPagb46xpjUPqwTMEYQsq4zWePYaw0zQOhFoTH/3qXn4tp3330jQwUYMGn2VS05drk0lczFoPkFJGnHReHiBRIADAAhhVO1k6wwAhdcMT9BkQT6I1UVJar0ewcPQDGHVDyKRkCUQ5pvsS8XMxWw72IiwJjYnts9220ZfBeAkT22QwyNBR77iYG3bpiffVRsJGagtOgcWuVY2MO0Qxj1//zP/8S93E6qtU89Z+92Wkt7jEaKRoJZAJigsgciadmKYJIjYRq303xpJOxVe9H4NBdJsvd/mAjtQrHfCy+8MDLydk649iIQU4UpO1Nob67dtB1VaO5ZoM/ZAshyW5gC1tadSKuaNKWZRotSIAOEhu8KG/lzn/tcdNIDDjDUYnGjlBMBIwYMMNjWy9WlSgvhsuMzAGC4iNqp1lxSSaLqRBqSvQuzl2rOBc3sQALrxrB6Zadr+BI1anqcO2mbutUAKMb8Fyef7OIcXYugz94B/Khj+2k89O0XP3wM+MYMAuZSxIO97+/ARruQSGAX0+/myc+fx36mJXnlK1+5CDhtlxpZNA2A0AlEV6WRMQAwf9ZZu8H3cw6l7esV8lp1zpP+vH3DWRqA4jTaD6CedBqUmX8GCGWoNMZnXMxnnXVW2HbbbWMOAMy7NbyRhCY8kId/J3W8Z5gOAATSTSfm7uC4VOu4UNiEHTwqvF5gYowknqqhOXeyY3djiinZVesaYyiiU4oOhPYD6VarqtlJhLVvvUuFTovABDCq/ZAiajotMpBBA6ExT5Sx1zM7AAjt/Cj63UztHIn77asI7ggXfJH6raEx6Bya/D5zEJDAX6Tf8N0mf18dc8sAoQ4qDrEPlzl1KjUnuxlw0Hr5U5HyKxB+xYQgzLG1uYCSNFT35WyObMCttjzSGdtuRudD3CAtXQNltEPdJHT7RWtNesQ/AONrdbDrxWR7fR2AYB9INSyEsFdWw1791f17wMXeLQMOjM3XxvdMQo4BGkcaIBFAuS1MAfehyC/7m0N02fWfSXTMAKHhq23zumDZ/anCOnk5k/5oCDh/cRIcZaNxwJhImkwcyYY7SRfpKOk1zLHKMHMAIa1N0gowUZGoJNaqG0AyMQAsbL69tBvDpM1M7JuG5H3ve180NWQGuOgO4BRLg8Rhu1PkyUzcN+mbM0CYgNVPzJ92oKket8k5i9aA4xgPc38nLU6CpDUB26C2KQIRnFqtEdDJ6Y7ZaRhlw02ajd94wEG/uRRq+/gZ1pG1/sIXvhAdT+s0iUwLGQk3csbQusl+OYhvzLTQpPgdGSBMyKqWkQzH/SlUdnwmElggqULlKaTNYcwHcNyrNG982h6aKZoEWh8Od/0Wd+r1RfYuz/6U0KrX8/n39VJAois+SkI4c1uUAqK2mGKKCekyneZRIAOEvBNqpwCGkJyukrnBIfzYxz4W60Tk1gwKAGxAXTFpTzNmlmdRJwVESEhv/ZGPfKTvYlt1zqdpfaXQbRo0WrW6TWxN+94q88kAoQq18rN9UYAT4yc/+clYIa+swyKAwbTCbpq1Dn2RPb+UKRAp4PzJpSKMs13uhkymEJNtCSOXS6OpZtxxrFMGCOOg+gwbkypbmKUEPmXzwsuhcMghh4T99ttvQWw4pM98kTI8zjAy5s/NFOiLAim5lHoqwqVzW5QCtGmibBQwExKatQjzaJQBQj4tQ6UA6UXtBsl7irUbug2aHIck5klo3iUnUoKtsGwJ66F+WO48U2CCKMDEJ8fFAQcckKMZOqybu0VUg5Ti3VKVT9CyDzzVDBAGJmHuoBsFxJh/9atfjeV0u9VUKPYhu5maAqnioN/Js3DjjTfGZDZNi6PPOyBToOkUUHNCgidRK9nM0H61CDPnnXderDRbZ8rrpu+NbvPLAGGSV6/N3Nulhh3nJyrMxCTQWvmu05xoCsTLu8SKGgcmCuF42RN7nKuZx55UCqQiaZKtbbnllpP6GUOft8yKInwUcSprDh36pMY4QAYIYyR+3UMDB4rt9FtUZxjzUc2Ryq6s1O8b1AIQM5+q8qVyuDQLK620Ut3TzP1lCkw9BZwh4Y4XXHBBePOb35zNDB1WXGi2cuLq2pQ1iU7z5skAYcJWt1vOdmp4oYQHH3xwI75KTgRqTSWElXcu09SaACo4Cz3+8Y+Pr1D9qShYxcmxzFj5mUyBmUQBWjjVPp2tnDWw88pLW88kk32dspPiRN0P4pmVp8Vs29nzJaM59dRTw957792I7zJXUosEJGWzKXoHIJDZLxUTErlw7LHHRsknt0yBTIH+KACwM9/JbCnkMbf2FEAn981OO+0040MeswZhgk4JFbsDrtaChB6tDXO99NJLwy677NKIr/rZz34WDxhmX9aeB1AwRxRjkeVDkOTlQx/6UCO+K08iU2ASKUD7qO6AcMddd901J03qsog33HBDrE2iNPlMbhkgTNDqUxF+97vfjZUd2wGE22+/PVZuEzEw7IZpKy2cvKL5DnCAktec7wBzgMQjz372sxf4EvSakwtM9AKHxqIXMdMJgPDhD3+4Vxf595kCmQJdKKCgG+bH7Jc99TsTyv129NFHh9133710crdp3HgZIEzQqsqbTyqXH6BdnO6vfvWrcMstt3RFvXXUneflKxzIJaNS3wYbbBBTKwMwtBjMCdSYEo8ACpwmy8QV60O/spkBQalR+ckEt+eee/ZcLc+qTAi45JYpkCmwMAUwPiCcM162sXffHYQtWtuZbI7JAGGCbhAAQFbCDTfcsO2sewEE2QmZIGgfVlxxxdJq/+JgLpbjjjsuJj5SKviHP/xh7EujRdBkIcOo+UNwhpJeWb31YjEgzwIExTTK/u9LX/pSBB78FlLjgwA49MoCB5QcdthhYbnlluv57AQte55qpkBtFHDmmBho+3bccccFfj61DTBFHXGYJpjsscceM9YckwHChGxoB/u2224LN998c3jNa14TmWtrUSQaBnkH2gEIzPe6666LUj4GKs9A1ep9xvvmN78Zll9++QVRCeKrkzNhkZTGO+aYY2KyI2YGmg9JjvgicEL0byAigQvvAh/nnntuBBPeKQKEdFA7LRcQIXqD5mHnnXdeSGPRqRKm8ZdYYom+gNKEbJs8zUyBRSgAHLgnxPqnSKFMpkUp4A6jReAcLvJjJrYMECZk1RNAgP4xWfZ9tn7M2b+hXeE5ohtWXnnl6IFbbFKt0jAI3wEQWsOc9N+J2ad+aCAuv/zysPHGG/fMipgAgoP1vOc9b6G5MEMIx5SxjCYiNQybffS5z33uQn4L5mbeRcdFcwUovOPPSy65JH630sVFrQQw4kKUQpVmogg6fAsTSL4kJ+QQ5GnWQgFg+vrrr4+aPgA+t84UYGI455xzolNnO0Fo2mmXAcKErHBKFsTEwCbmcLdWORTmCEDwvC1GDXiXXR6TVB2R9mCZZZZZ6MtpH04//fTwzne+M2om2kUdiDBgVnjUox7Vs5gJgPDlL385XkBFgOD/zYVDpWRIxeqOKdsb8PLYxz6248oABLQhvlXzTUwSxmoNp/QtsqN59k1velN8Hp0ACr4cRV+HCdkKeZqZAgNRwJm46qqrYsZADs20aMNunbR4wx530P6BKY7h7sNVV1110O4m7v0MECZkyVImNE6IJPh2DeOTjpiKvdgw1GuuuSZqGJgnMNNWAMB+/8UvfjG87W1vixeHimatTbEk6jZaCu9j6BqwIp2yH5eNfwMCnBSZC57znOfE51LBJXN59atfvaBKYxrH79VteMpTnhJBRSfE7nuUZ6XR8KwaDS984QvDM57xjEXmnFI3f/3rXw9vfetbY+iSSAs0KPo5TMg2yNPMFKiFArRqt956a3QIThlLa+m4pRP3gDvDXeFeIBBMkiSe7qxvfOMbYfPNNy/lbD0MOo6rzwwQxkX5iuPaqCIGxDFvscUWbd92EEntmHxqDugdd9wRMEiqdJ7LJO7Wxr+BwyFm3uobUGTgtBByMRgLqND0RyOBWZP8XQIuA+YC2gp5EHhPGwMa50fRKacBLQWJn2mCtqJX830nnnhi1AbwjWht6Mbe6oDLQW98F6KLMZd07UXd/PtppQDJmBbBGRPxM4yzABQQWoRW0na6L9wv7oNhjDestXLX8UUgGL34xS8e1jCN7DcDhEYuy6KTwuiYF2zUHXbYoe2sSdaHHHJILOmKcZKWSf0kbYwdU2w1LaSO+DTwU8A8O6ndu6kJXQbGo31wAfAXADRICy4DJgwXkhznn/vc58JBBx1UC+XNCfMXmQGgtGu+neaF+cGFCLSUTdxUyyRzJ5kCDaNA0tY5m3yByoQhV/kE/bsLVHOVb8F9QGvhXnK/tBNSqvQ/ymeT9pZgs+66686ovAgZIIxypw0wlk1Ke0Aq32233dr2hEkrxkJSBhZECnAIJFmLXnBYqfyLzn6pI858GHqnlMjGBwC8285mmTQVxhCBUEwF7XfJyZDkctppp9WW7dG8qEpdQnwj2jXPoIc/674IB1jS/GqmwFgpQCj46U9/Gl70ohe1NSkOMjlSN6EAIE91WJxBzpHMgf0UQhqnHwPtB82mO8b8Z0rLAGFCVtrhYAIAEGT36sQI2ealYk62P6GM1HsYN0malN3v4WRaoCIsMn/zEkEBjJDK9d2t3jwQA+gAIsk3YUKWIE8zU2CqKIBhyy9Cq0hwqEurRtigjSRw0BYkc0LSWlDT01RWMTO4NxRxk5St1Tl7FIti7u445hLmzLK1ZUYxt2GOkQHCMKlbY982KBUXR8NutRYc+mF4JRtfBjaqfCjav4UA+T+1E6gMRR+UCRkkXdBoSKmcW6ZApsD4KMA3yVlWkr0YUTTIjEjbtHo0lxyXi42ZARBx9qs4K6rmKsnb+973vqHcb2W+l8mEkOa+aw3dLvP+JD6TAcKErFpytsOQW6MURvUJpAKOkpwe+RnQVPBv8Hcq/ioHflRzzuNkCmQKdKYAsyHfIAChDsBO0nc/+LOdvxNtI7OGCKKy5j53zNe+9rUohEgCNw4NAgrSyhLS0IzGpS5A1eT9mQFCk1enMLcmAAQHhOTPn4Dpgn3RIa9LNTkhS5GnmSkwNRRwpvkESTBG9T8o81VYja1+pZVWaivp03DKxvqyl72sVCZX957QbZpLAkk7/6lRLgYtAlPrk5/85JjQbdpbBggTssIOCqcfqrtiRsAJmX6eZqZApkBDKZCcFdnW+/FPKn4W4YGmsZN/kXvsjDPOiPlYir5MnUhD48DvSkr2MmHPwyax+QuV5mwtKqxquvphz6/u/jNAqJuiQ+wvpRdutesNccjcdaZApsCUU4BUf8QRR4TNNtssmgXKOg/SPng2Pe/ffAWkPO9mPlBvRT6WbtlSkRwzvvLKK2MCNBqEQbUbdS0j0CIagzP2tGdizQChrl2T+8kUyBTIFJhQCsglwqYu5LGsk7OQahlXmSa8I2pBUrJiAbZ25DAW5sqpuRsYSf3xjeAY2JQGuEjd7pvRq6wvRVPmX2UeGSBUoVZ+NlMgUyBTYAopINPpUUcdFV7/+tf3lOx9Pm3B2WefHc2dKVWzUGo+CHwFujUZVbVu2oqkPeAALe9A0/yc0IvjpLn1+t5J3i4ZIEzy6uW5ZwpkCmQK1EABDPmUU06JzoVC+HqZGZg71VShLWAqSDkO5CnoxcyFOUupLgyy07NCJWU/xXw7ZUit4bP77sL3XnvttTEfgoiMScoMWeWjM0CoQq38bKZApsCMoEAqRNYUu/coiM5Dn9lgu+2268nw+C1wHnzBC14QHRs57Smatuaaa/acKumbs7XICY3zNTW9HCoJmKjWKmyaP0NTw6dpSyRvUsti0upL9Fyk+Q9kgFCWUvm5TIFMgRlBgZQEjMp8ueWWmxHf7CN995FHHhlLQPdSm2PywhkxeaGHar54v4y0D0zIJ8B3gZ+BAnPSMa+33nqxqBsNg/7MIUVD9NJojGuRABngporvxrjm2s+4GSD0Q7X8TqZApsBUUyCVBefZP63q43YLePvtt8fiZ7QI3UwFkhcxE2DgQv2UUFf0qYyDI+2MXAhrrbVWjEzwbyYFmVmFXDIt0EqkIlJyrwAVHBU5NnqnKYCBFuGSSy6JRZya5EhZ1+HMAKEuSuZ+MgUyBaaGAuoJkGIxKhIy6VhrCmMaFqE5H5Lo+RJ0q6nCLMAkIcyPCUCGV6r2Mg0tpU1+1atetUjoIo2CREQ0CXwUaBOkZxZayATh/wAE80xFoMqMOcxnmFrMZ9VVV+3pfzHMeQyj7wwQhkHV3GemQKbAxFPApQ8okGwxKY3tXVy+0Ltp1SxIlXzRRRfFonCdtAhKz2P0KreSooGFKqmaL7vssrD++usv4l+gGBItAvNDa2IkYAGASOuSoifGvdHM6fzzz4+AZ9BEU+P+ltbxM0Bo2ork+WQKZAo0hgL8EEi0CpSRRS2OlQAAIABJREFUXKm6qdSVUWd3JsX28tpvzMeUnAgGfM4558RMgRIUtWukZswQQPj+978ffTWqpEHm0Mh/obUyLN8EFWnLREOU/JyRPKZCrT3Bj2KaWgYI07Sa+VsyBTIFaqXAXXfdFeuPsLUn8wKJmaQLLGCS7OLTBhKUhqdF2GGHHRapyIjACjz5biYGFSH5C1SJNpCOmQZCTYPUaGfkSEBX0RGT1MxdXgjFpKbJFyEDhEnahXmumQKZArVRoDVVcLuOPeOn1TEOc2MXp1rnrLfGGmtMlX8Cx0E1B6j1JUNq9b346le/GrULMikyv/AN0DwHLPXy1eBjAIQw16QGiKn0KA9DrzTMtW2CGjv61a9+FbUpHFunpWWAMC0rmb8jUyBToDQFMP2rr746SsHdQhkxSiCgk1McHwUAQZEidvNejLH0BBvwoEgFyZA437Xa+88888yYVInjIC2LKAbfTwPgPeYJv++kWfEMTUFyNAS40FEEA1v+JGpk7BWVJzlrlgn3bMAS95xCBgg9SZQfyBTIFJg2CmBO3/ve9+JFXpRiW78TIyMZeqaTAxrGIO0uyZdEPS0NKPLt/AW23HLLhUwI1OmyKNICpGgDNnglkJlg+BHQBvg7Z0SmhGLSKb8v/p+xmB2El8pMOKmNQytQtcUWW0wFWMwAYVJ3Yp53pkCmQN8U4HmOuXE+9NOp8TX44Q9/GJlct6gF5oaDDz44/kxT8R62dYweUFIOmoaEtH/55ZdHRk6lzjFPymH/nzQo/o7pJydPVR7RiPqdZgGNitoW60H7wAG0SjRE3xtgSC8Ci74V+OHAOektA4RJX8E8/0yBTIHKFKAWZ1/nUNatfDrm6MLfeeedu0qEGKK8CRL+TFv2RVJ9qotAk4LxU6UDCCRmpoUyJeiT3wZNgueLAIH/geRJoheAjUluwJRv2WijjSbSVFKkfQYIk7wT89wzBTIF+qKAssQYHWbeKftfsosDCezivRpfBYxzxx13nHjG0PqtTA18BIR2CmeU6Ajt0EgkQ5kMit3oB1ypayBqoko0RK81Gcfvk18KMxaz0yS3DBAmefXy3DMFMgX6ogAGR50tPK+TYyEAIWMg5vXSl7605zhU6Jz1qNyL8f09X5yAB9CCFoHJgMaA2YXjIm0ArcKgTJ3mhU8Ip9HUnzExWWYOf2eG8HfrxXekyY6MwCIQylnTPpvUlgHCpK5cnnemQKZAXxRINnRMXD2ATo09mZ8CRztScq/GZKGOAVt9N7+GXv009ffoQZsiYgNoYiaQr4C9fVBmDQAkfw9aCmYGkjhAwsQBGHCCxHgxXFqaJlfa9D1oZL7dylo3da3TvDJAaPoK5fllCmQK1EoBzIZ0ByB0cyTDENnYtSc+8Yk958D2zLu/U3Khnh1MwAOYNtp961vfiuaFrbfeuraaCPoDxgACmgOggzMj51BgwN/L+Do0hYyAlOJX9o5w0ElsGSBM4qrlOWcKZAr0TQFJejB+AKGbpI9JkVo911oXoN3gtA1qDHBonOZG1a+C4c9//vMoyVP3T1P+h7rWDuDhfAnwMJtMoqkhA4S6dkPuJ1MgU2AiKJCiDVza3SRSJgNMkHmhl08BrYSUw5zSpiVJTqfFpEXgL5CKKqHjwx/+8IlY+1FPEsiU84GPxtOf/vSJA1IZIIx6x+TxMgUyBcZKAYWGOMWts846Xe3YAALPfWWPu0l/NBIXXHBBTD3MKW1Qe/xYiVNicABB/gOgCG2kRZ6m3A8lSFDpEaYnmgRmhkmr9pgBQqWlzg9nCmQKTDoFRBqwD2+++eZdPyUlU+Kt3ymMj58CmzxJEThosuNcXesGGFx88cVRUyKb4rSWva6LXkwNnC35V/BHmCQ/igwQ6toFuZ9MgUyBxlMAQ1e+mRSsxkC3BiCQ/ACETmF8Ln8SotwA0645SLQChr74xS/GIk7d6i00fjOMcIL2G4dFmiggYVL2SgYII9wkeahMgUyB8VKA9Ivpk3p7eZZj/i524CA74T24bgDC8ccfH9Zee+2JTwQ0yt0IcN56661R81LG6XWUc+s0VgYITViFPIdMgUyBkVCAqhdAkO9/Er3KR0KkHoOI8RfdwZ6eaVhtRfirAJ6tqaar9TK6pzNAGB2t80iZApkCY6YA5zpSHP+DmeAvMGZy5+EnnAIZIEz4AubpZwpkCpSngEyAMvZJsTxo/YDyo+YnMwUmkwIZIEzmuuVZZwpkCvRBAepdjop8CrIGoQ8C5ldmFAUyQJjS5eZIJA94mRSxU0qC/FmZApkCmQKZAgNQIAOEAYjX1FdJSdSoF110Udh7772bOs2xzguNsmf6WJcgD54pkCnQcApkgNDwBepnepjf//3f/4VTTjklHHTQQf100eh3fB9Pagy+n3hi77JFq0I3KeFGjV6QPLlMgUyBqaRABghTuKzTDhCECsmnryRsPyYUNugTTjghrLHGGmGFFVaYwh2QPylTIFMgU2BwCmSAMDgNG9fDtAMEvhU/+MEPwuMe97jw/Oc/vzL90Ue63Sc96Ukx0UunLHmVO84vZApkCmQKTBEFMkDospgYST9t3LbtDBB6r9rPfvazWGVtlVVWiWlyc8sUyBTIFMgUWJgCGSAU6IGxUl+r4KYAy+9///sYElW2AQYKtsjxPs4CJhkg9F4x4OBb3/pWWHfddXum3O3dW34iUyBTIFNg+iiQAcL8NaW2vuyyy6L3v7Kt1NdKmFaJlQYQFHaRa7sf57m6tlcGCL0p+ec//zkcd9xxYbvttot12nPLFMgUyBTIFMgahIUowKNddbdzzjknvPKVrwzPec5zwqMe9agF4KCquQAwqPpO3ZuyX4CgMI35jxPclKHFoD4IxpAn4r//+7/DG9/4xvDsZz+7zLD5mUyBTIFMgRlFgRmtQVDZTVUy6uY999wzesRPQ/rVfgCCd0jVwA3tSZNbHQABMPzUpz4Vdthhh7DMMss0+XPz3DIFMgUyBcZCgRkJEDDDn//85+Gwww4LG2+8cdhwww2nAhikHdQPQBjL7utz0DoAAhqdeeaZ4UUvelF47nOfW8mU1Oe082uZApkCmQITRYEZBRBoDEjJ5557bvjjH/8Ydtppp/CsZz1r7CaBundMBgi9KYpGv/jFL6J56VWvelV4+MMf3vul/ESmQKbAWCnAadw9zgw6TkfwsRJhhIPPCIBw7733hrvuuit873vfC9/5znfCmmuuGVZfffXoZzCNDfO77bbbwpe//OXwoQ99aOo+sQ4NAqIAiUxMe+yxR86oOHW7JH/QtFDAfXbPPfdEYCBDrOijJZdcMuy66645h8mQF3nqAcLdd98dvvvd74abbropagte/vKXRxv7uB0Jh7yuMUTz8MMPDx/84AeHPdTI+68LIPzlL38JH/vYx8J73vOeHOo48lXMA04DBTDvf/7zn4GD88Me9rDapHr9poJzKTW6fy+//PIxRfoVV1wRVltttXxuh7yJphYg2GB///vfw/XXXx9uv/32sNZaa8XwxWkHBmm/YH5f+cpXwm677RbR9jS1DBAGW82UAGymnIXBqJXfbqWA/fO3v/0t3q+YN6mec/czn/nMKHyVSTzWbg8mUPCnP/0pagv88BV7/OMfH5ZbbrkYXWbP+v/TTz89bL/99lmDMOTtOZUAwaa98847oyoKul177bXD0572tCGTsv/uHQxmEFI/FO6QpXDJfi9xmpPLL788rLzyylFzMk2tLoCgnw9/+MNRg/CEJzxhmkjU9VvsM+mlXby5ZQpUoQBQcMcdd4Q//OEPUWtA+HDXLLXUUvGOlUeGCbdTc9cplOY573qHX4H96O5Lierc4csuu2xMh+654j3oTpezZquttqoy9fxsHxSYOoCQ1FHMCpxYgAPJi8bdzAsyVmSIPc0m1xwOqjMJmRwOh+8Zz3hGPCyegZx52VcFCvr6xje+EVE3Vdw0tboAgnV43/veF97//vfPKIBwySWXxEJXr3jFK6ZpW+RvGSIFMHb31y233BI1B7QFcsa4p/xOafmNNtooOoBvu+22XQECwU0tFe/KQeKe5g+msqo/3VmtoKDY4a233hrnIGttbsOlwFQBBBuVVzp/A+jzZS972Vi9080HADAf6Zsf/ehHR9TtByjQMH7o+bGPfWy0rX3605+OoGDFFVeMajzN79dff/2I0ss2arhkXqGKG3VrrWNRFeB0m29dAMHafOQjHwlve9vbGp/7oa71A1RPOumkuN8222yzurrN/UwxBZxlGtmbb7453lcEFjljillmMW0ZSWktN910067U0J/7yV50BoHVss27p512Wthkk01KmTLK9pufa0+BqQIIVKc8923QF7zgBWPNCMgHQEEgiBsqdqCgbigZw0+Hy58QtP/7xz/+EQ488MCIrN/97ndHQABYABgO0+abbx5/V6Z5/kc/+lG49NJLw/7771/mlYGfAXwknVLHwoXiEkiNRAAgvfjFL46pqF00/YKGugCCy4afBi2Ty63f+QxMuBF24EL+4Q9/GIGziz63TIFeFHCX8TNwft1j/mzNtuq+YWrwHLPmsJo7xZndeeedZ8R5HRYdy/Y7NQCBDf8LX/hCrM5HdTruyx44gHTZeQEWtrZeKYxpDA499NDo8COzo3dThkPlidnJ11tvvVJrm5JBnXXWWdHGXqZ5px+6eY9p5Kqrropghw8FwFP83qQ5kYcCkPNtTB/UlL3o0jr3OgHCV7/61fDUpz41Asp+vr0MXZv0jLWyFklz1aS55bk0jwJMlbQDAD4Bp1sq9muuuSaeo2H6trg7+DCIRstt+BSYCoDg0rvgggsCpLvjjjvWFmrTL/nNB0NnJ8MEmQ7KMEEAAch5zWteEw8aJqu50PlUMBm89a1vLT0t0RvszWyCNBfdGn+Hr3/969GOWLXJJ3DhhRdGZ8jnPe950YYI5BQZLsnVd/hG6yQvBVDB41mioiqtToBw5ZVXRqlIRsUya1RlnvnZTIFJpoB7LGlCaQW6paFnMr366qujKXSY58g9s9JKKzXa6XyS17x17hMPEDAejjEcaNjaezHCUSyeOR177LHRB+KFL3xhacmU09xnP/vZ8LrXvW6h+gBJLYyZ7bvvvqU/gcmCo6LD28veDMx8/OMfj4mVqhxwEsbXvva16NWM/mWSTyUbpO/VqCyrtDoBAqmHup3mqcp3V5lvfnbmUMDepm5vQtG2Qanu3mAupLnsFQXmbiLUEIaG1dyD0uO/4x3vyKnRh0Xkln4nGiA4jN/85jfDT37yk7DFFls0xhOddMxOxhwgsUfZRsL+xCc+sSAFdHqvXw2Ci0r2SJqHvfbaq+s0jOGQ84nYYIMNSk3ZO3wc+EjwmSjrH1Gq8y4P1QUQDCHc6uSTTw777bffVNXjGJTG+f1qFMC8aMQuvvjiGJrnDFVxKq422mieJjQwGzKRdgPPziO/FuGNwzTTMSOff/75XaMkRkOZmTPKRAMEDits9ttss02MWmhKk+P/29/+9gLnt7LzwtDPOOOMiMSp6pMjIyR/3XXXRS2Jby3bUswxBs700u3wepbfBM2H7IK9Gu3Ee9/73qiaf/3rXz/SZEx1AgR76C1veUv4/Oc/X0r70Ysu+ffjpUDyseAsi8ExdwlzZgbD5Ei4Re/7QWbrvGJa1N7O1ktf+tLYnTC+7bbbbuI1Us4Zp0PatU7N+WHeZRYddkI2Wkr+B5yKcxsNBSYaIHCegXCpz6H2pjQxvvIdOFhVSyeTQjDpN77xjQvyN3Ds4/D42te+NtrLqzTz4L/A1CG/QrfmAErPzKmx22Hnr3DAAQeEvffeOwKZUbc6AQKGcvbZZ8foiuzV33klk+ocI2yiKYYE7z7AsGiymBr9nV0cmHUOOC/TevEL6rS//V4rOuOlcGVjaICBcD71TpgRhSTrj3+NfACvfvWrG2HqHPRcOmeAlQy07RpwxLzonhtFojHaGb4QwzRjDEqzaXt/ogECqdrhV3ipKeo8lwmVvovGxVElxtfm8j7HQheaapMcg/RHKtlnn30q7z9SFDqJLlh33XW7vs8nwIVK6uqUDc38mBU0F+E4Wt0AgeaEKYbUV0cr5oAYpsq1jrn26sOeQG/nTBgbxitMtUmV9DBswBowkN9BY+bjKOxuEKXC2Q5Qdp4IEyussELbT5dHxbM89lMUET8b3vMACO2D32FSmGLSRpgDNbtnpyUxmXVH13a0sh9uvPHGqLkVIjwK0EjL96Y3valRe6/X+Zn0308sQHAJQ/EuBIy4KReWeXF8E4EA7fZjl4fMOeNg6A7niSeeGH0sejkKdUL5mD4txA477NB1vyZnSFLBO9/5zrbPeuYDH/hAOOigg8ZG8zoBgo8U7SF/hu8apNGsAHZohHH4U5QGRpIiUgbpf9B3U4KulHejV3/A5bXXXhu+//3vx3NGG0ZdL4NdmXz7vfofxu+dP5owYIDGoFjG29rY27L3dWLiQNANN9wQzU2EDmcRvTBBNOjECI1Jm8kE2IS1roO2aAE4r7rqqgvMb/aQ/5ffBUiilazLZNNtzgDY0UcfHXbfffepoW8dazTsPiYaIMjHTaIR9lLGe37YxEwagEEBgkuOxMK/wiXHp4GdvJ+GSZnPr371q1getVszrrFEhQAI7Q6+/t7+9reHz3zmM2Ojed0AgRr1v//7v6MfQr8NOKDlkZzKXqRyxmAxC5oWF+m4tQl8WIChVFSn114gTWN6u+yyS2VTWb90HPQ9QJjPDdU/TVix2bts6vZPnVK+ftnhaSumSf2dyivbtzSh/kx1bpg6aZJGAQ6sobmceeaZ0UFxWgDYoHt9FO9PLEBAHI6ALj1JM1ovg1EQr90YmKzQQgcHcOlHg6BfB/GII46IarxPfepTfScf0Q+A4GLcY489epIFs8QUAJN2l53LUD/mNi5QVjdAwNz5fJx66qk96dNpzamfVZhDm+QngvZALGmbA9uwnbh6TZ4EbR+wKfdiZEwL9h6JWSXUSWj2pjkvs8wyUdPRCsisB6DMV4DPSV1NCmL+CIDguEFgXd+U+qFBITQwu9gLtChMNqM26QIIfBBEVIwKlNRNy0nsb6IBAk9lHsSS+7gUmnA4AYTvfOc7sSAT00c/B0kfJL1TTjkl+jJsueWWMbKhn1YVILAtJp+FdsV8XMKSNdFuTAtAQCOqy+OOO64fEsc8E6nuRasZB1O2H9ZYY40F9vG+BqnhpSoAwdkSUiZCpZ89XMN0K3eBSVN/A0DtwBgmwxSAwfQCSGUHdz6FNHMgHjcALDvnSXwuaX84Eo/C32ESaTSMOU80QHA42RQxU9n4Uo7/OgmFWRedzsr0rYY5psDRr1fkQLE/jMoFRrXrMudz4CKTDpgDHeRetVUFCCmk0mXbziShv49+9KOxwNG4klLVrUHwTf/1X/8VCzf1AzLNB5ij/mz15qaRYdOeJICQwmMxPrVBJuFCtoaALae5TvdAMrEA292yAlY5YxIJEQaGWX+gynym+VkAr651m2Y61fltEw0QEILEy/YrPhZI4IDUzyXfyqjZMqkOqSQBEZckM4bxikWIiu+lSmdQLjuodzF1Nt9OdjOXsQsGIFDgiEnCD3DAGczFJwUy1bCQQrbTKpJ7VYCQkitR1fIYbm3JCVMRKdLloLTuZzMngMDLvI4wS9/0pS99KWy99dZ9hWuRtv/nf/4nHHLIIfFzUiy+PWNd+SWwiXfKGOn5OuiYUlkDbu2YelkNgj0g+Zg9rCjOJDSqcB73AFo7jQczkjvCnqkC2rt9O6lWiKzKgkVnyEmgV55jpkAZCkw8QPCRLofkULXhhhtG1X4/F64Llr2ND4FLmyQCFDj81JIYMwnbBdpOq2BMnt6kfkBCX6SWToAiLZDLnKe0i80F54fdOn2D0CmSivnJZ1DFr6EqQDAnIWLm3Sn+mfOdmhHmIkHKqCVMDpwYGGmxjsveWgJhaNUrFLQdYALeZKFM2SrtEZotDBmY4QVOwmyNtDEuoOVZGoYqWTfbHW7+DubCqbBdlEFZgICZ0lpZX8W0JqEB19aPjbwVjLsfhCACTvZMXfsVrZ0FQL6uPieB1nmOM4cCUwEQLBc0j2m46LWtttoqMtqyBxdT5M/gwLvMSf4kPuCgX69ZFxbm7oLqZqZIJZ8BkE7z1RfGg8mU/SZ06AcgJLNKp3H8ntScwieZIkbpJEoix1ils60rvFUuBE5QncI7i5oB5iPMZrnllov05X9A9Zky6aW4fGYaa8Yhrl2Fu+RUJ3xLWm41OPptwKPMlvavTJgpH0Cxv7IAAbMVpcLsMil2dYCc1g+di9K8s8dJl2YRmKxrv6CrNO8yiY5y7/e7P/J7mQL9UGBqAEJihrxtmQZc2i5n6F6VwXYJizA6ZgA+A6R9l3SK8Z4WW1c/AKHsRiIdY5aAAlU0abMfzU3Z8RKTpuHB0DkW1tWopz/4wQ+GI488smOX/EPkpBATL4KGLwbwSHuAARUzMdpbSXPUWtkyDWB/kmztVXt0nXXWqaQdKk6Ur4PS3uiCsQ8CEAAJYZ+f+9zn+gbHda1L2X7sc7H55p5CSkn4NHrWhUalX6DfaQ5MgwDUsPd8WRrk5zIF6qbAVAGERBzSFMndhS78zJ+8m1tb8maWWY3qkVRY9yVS94JV7W+YAMFcMEGaG9I3SZkfSBUNR9XvIXXLkGdd3/zmN1d9vePzpGa5JqS0btdomCRToiXwI3mQcDnlba+44opojulkkuk0KKbOvMAkxqTDpAUoVG3WWA4H9Oeox9QxCEDg9Av86HOYa1n1O3s9b28494QEmoIECqYF7Pf6/vz7TIG6KTCVAKFuIk1yf8MGCGhDWsbgSLCAmBTR/DCqSFb6IFEDHEwtnS51DIDGAhPolRmyyrqleZ933nmLvGZeRx11VDQpvPKVr4wg0vjvete7Yna3fgCC7+VXIveCDI4S7VCHK6pVpekHYKIJE5YqmQzn0n4Bgv5UuASU9t9//ypTyc9mCmQKTBkFMkCYsgVt/Zy6AALpjO1fEiCalnaqVcxbSB8/EF77wjzLqmBpfRSKoo1gDuL8KNFU0VnTtzFrSP9Kdcz+W1frBBBSXgsASARJYry+VegpL/Z+AEKqe8HhlGmBelx6YA6NVTQRPPPZ2CUzEi2T8tX3CxDsF8XGaEzMK7dMgUyBmUuBDBCmfO3rBAjs7upfcODkIJicKmkKAAhjaUw6HD4xeCaHMo5u3j355JOjil3o4jnnnBMlarkFZMVLmgp2ZeF3kkeV6bfb8hrT3P10Agg0GvIBcHgtFqcaBCAAHUwkTBZyL2gAEv8GwGfzzTcvpX3hkIhOfCJoNjjqlQEITGrCaNv55SQTDpNbFaAy5ccof16mwIykQAYIU77sdQGERCaMjCZB7gk2+BRzjlkJj0uNiYA0TItQNhMf7QFVuSgSEjBTAic+hao4nmGsNBQKCFHvD9L0xe8AMMBgmRFEEahDUWyc3oyJWRZzLgAvsudh0FU1CMAFFT6nzmJte7knSO7o1ilnQpqb+fOi9w0yiQJLvQACn4ekqZAsiP9Ea7O+J5xwQjTf9BPbn6o+JlA3yBrldzMFMgXGS4EMEMZL/6GPXjdAGOaEmQ9OOumkKA1jxuaOCVJ5AxrSaXMOpKGoozSzMESaDrb75z//+TGFtBoTyXci5UcAhDbeeOOFHFjN7Q1veEPMBwEsATCdSgi30owjIedEYYnFxuzAhwAYYaLp5iCIBnwPaHNSSuxeAAGAA66M7XuK4KQIAGlM5LyvkimTpoXvAr8K89Z/FR+UYe6r3HemQKZAfxTIAKE/uk3MW5gchkQ6JyFXycI46o8kvWK4khXxyMdgzB9AABRIpUCE31OBD9qSfwHb/yqrrBI1BUwayX5Pu0A7gGZF84JxvatWAZU8cJAiGnrNiablwx/+cNh3330XmE6KWgEhj4CLb+wkhRsLkwdSZPFLDp0AgBwI++yzT8e8C94TBkwrw2ehtSVA6fuE/fZqyamRZkIeApFBzE/tfCB69ZV/nymQKdAsCmSA0Kz1qH02KVsfxz5MV7x+U5u5qiSJyXAITBkjU5QE9T8/CEmwMDffQg0+iKSKIcrCqZYC2z8wQMVvTIyUiQOjZLdvbQDEbrvtFpkyZ8V3v/vdXUkLTPCzIJkbq11j6pD22RyAltbKdQAGJ1CmBSaCYn0OUrx3RZF0MlFwtmTiEGXSLqTXdwtz5A8hGqK1tkRxzqkWij5pDcyXD0muttfUE5bnlSlQjQIZIFSj10Q+jemwpYsNr6uK3bAIQXXOPr/NNtssxPx8Awnfj3BDPgCYO5BAtV8l/XRx7hii5EJqKZDqOUGKoMBEaS34BJhLu2b8j3/847Go1Wc/+9kIFLrl0eCYqGKksMZuzwEl/BEwf2YVjouaZE60Kd4FIFrBnm/xDDAzSD4P3w6oASGiI1Kl1KTRMZdUFtyz8jhIy5yBwbBORe43U2A8FMgAYTx0z6N2oAAg8MlPfjJKwUUzAtMCKZ2qXzpdDArDlfKZ7R0zFfZILY9RldEqYPBs8uzmnPa8izmT7gEFkjoHQB7/nZrxaQT4MgjJNL/WsWkOaClkXAQ++Dt0a0mr8dvf/jY+hiaYP+0GkEcT1E6jUeemoqmgrTEHmgKaGmPTUvgdAIJekkYJfc0tUyBTYPookAHC9K3pRH9RSvxDZc0xMflMUHvzT5DhLzFgzApQIDWzf9M+KOSEUZN6u9W/SFIwCXj11VePTpFs/wCC+H++B3LsK/7VC2xg6DQ0l156adQ8kOyTg5//F5nBJk/zQfIvk53Q3Jkw+BVwXtSEJTId1FlPoNtm8S0AENqaA6BgbGuCNswJTfZpmeiDkCefKdAACmSA0IBFyFNYmAIY/vHHHx9TBmO0JHDOdaRZJaZbGwaNgXHeI936E3P1XrdG0yDUkIYA01aTg6+Gf3PqFMbYLldAuz6NxRYPyJgDqV+fGCgTASmb5mMS1fDoCxz40zeR5qHDAAAQh0lEQVTRHpQBOXlfZwpkCkw2BTJAmOz1m8rZS2PMts/pD1MFDNj4DzrooFIMGzPz06vRDJCIk4aAyULKY4x+v/32qxTml8YCFGg2UhImjFSUQWaovVYj/z5TIFOgaRTIAKFpK5LnE+sccPh7z3veE1Xzhx56aIxc6KeQURVyMlco9wyYcLzLLVMgUyBTYCZTIAOEmbz6Df32IkCgkmdqkLwnt0yBTIFMgUyB0VEgA4TR0TqPVJICRYDAvCACQFRDbpkCmQKZApkCo6NABgijo3UeqSQFEkBQbljCHnkG+CLklimQKZApIMKHj4+fTmXhM5XqoUAGCPXQMfdSIwUSQFAb4eCDDw7HHHNMjb3nrjIFMgUmkQKAQQq55QwsWZrooJzWe3irmQHC8Gibe+6TAgkgSCUsjwANQm6ZApkCM5MCgIE7QfjwL37xixhCDBiIPgIYFHfLbTgUyABhOHTNvQ5AAReBkEbqQ5EMKdXwAF3mVzMFMgWGQAHMu1cisX6H1bfkZ8KOZUvVJCFTH4QGQd4SkUfSgec2HApkgDAcuuZeB6CAPAIHHnhgzECodsGoMgcOMOX8aqbAjKEA1f4vf/nLKNXL7yHniMylxcJhgxADMMD4aQskPJNsDDBQRyblEyFEfPWrX43ZVpteX2YQWoz73QwQxr0CefxFKOCC+Na3vhUvCeWMJzH7YF7WTIFpowBmjWmri5IyasqqCdADCSqsKn3eb0s+Bqqo0hgowPb0pz899lkUEjwn06kia5tttlm/w+X3SlAgA4QSRMqPjJ4CPJRdBBkcjJ72ecRMgSIFMH/hxn4U7fKjWJiaJ6nCpxooKq1uuummsR7Jr3/96wgcSPecCLtlEnXOgQ51ULy71FJLxf5pJJZccslFFsMzZ5xxRix8lqObhrtXM0AYLn1z75kCEegMy06byZspMEwKMCeQ1NU6Iclj9u0KdAEDn//858Mqq6wSC3l5hp8AJ0KAQjG01romSWPwne98J2oIAALPYPqdioB5RyE1zzEv5DZcCmSAMFz65t5nKAVcZC5VFyQpyMWatSEzdDNM6GeLFvjBD34QAe4KK6wQmXInoCva6LTTTgs777xzZPbJJEAzQLtAI6A8eLEBFfwIlC/XN2DR64zwS2J+VJK9nXZhQknd2GlngNDYpckTmyQKuET9qCTJ89pF5wJTntmfbLW5ZQpMCgXsZZqDO++8M6y88so9y3ozQ1x77bXhFa94xYJP1IfqqEDyGmusETUJxeb3fA26AY/i8wCLnCjbbbddNi2MaCNlgDAiQudhppMCfCVISb/5zW+i7dRll8IySVvpZzq/Pn9VvxSwb1I5cvZ5P00yQ3FIvOmmm8Laa6/dU6pPNPA9RQ0ArQJfhP/4j/8YOJkRMHH66aeHl7zkJVGbkdtoKJABwmjonEeZEgokTQGJibd10hI85SlPmZIvzJ9RFwXsFa2YGph26eKLL44e+vJ8YKhAJU1TU+L5gZcvf/nLsf6JeVZtgAJg4HzQPtQRhijnAcCy9dZbZ21c1QUZ4PkMEAYgXn51ZlDABe/S83PHHXeEf/7zn/FyJxk1SeqbGatR7StTCB5nO1IxRqxZN2YftvJuHva9RsNMjZFqAyRQYK+QoH/84x9Hk1MCAZjli170ooVU9p678sorG1OQ7Pbbbw+33XZb1B5Uab5dfgKMXB+vfe1r+wIYrWMyQ6jJwrSQk6ZVWZHBn80AYXAa5h4KFJgmj31aApc/5iIpDCbA0aqszTRvjPFSQDjcj370oxg6B9DZm9aSTZyvCGbz/Oc/PzrQsY9XBQr2w09/+tMIGu+6664IHAEOUnfSLD3rWc+K9vJOfZsTgCDEb8MNNxwvweaPrrT6xhtvHB7zmMeUmo8zgp5AEXDAIfdlL3tZLeDZGRS1IB8C00L25Sm1JLU9lAFCbaScuR255FyOfvxdiBJ7fC+P5KZSzIVHasFMXHy+xaWXvaabumLt53XjjTeGZZdddiGHNgyHJgFowNh56TMPydQn0U+V6oCc5k455ZTomGecfrRJ9hhwYGz1BZrQjj766LDNNtt09RtIIYpoSWsgcRE6CnPsFKLYz7dJzASErb766gu0P/30k9/pjwIZIPRHt/zWfAqQGng6k7BdFkkd78IjbVeVysZF2CRduuxIhiRCkh8pc1K+YVy0a+q4559/fgyHSw2AlezH2mLMAB+mLmMnrcJzn/vcsOKKK1aSUr///e9HDUS/PijOzjnnnBPe8IY3VBp3mDQHnKRSZg5Bn6QxA5z9JC0h5o12gM1qq61WO4C2Rt/4xjeiKc990g8AGyadZkLfGSA0dJWTLdP0mnowMFLqUZecy8RFYd4uDvHKSX3bUBLHaZlvYhjJnEC1qiBMbpNNgW9/+9tR1a0BByRRGgTaAhqhlAWQQx2gi9kDtd4ZBSg0JgYIiL7whS9sFLEBBEDBmaBB09AuNVoCZ97ch6UplD/BugFfWXs3nu2RAcJ8JtEERpyYFSlHc0m5RDBikuzTnva0xoAFczVPqngSVNFeac7in10uHLJaM6iNZ6svPCqakn5SXfnkTZ5TtzZhdeqZA22QdMDMCWzjzhAtQasd215mLsAAL7300sisl19++Xom0aUXGjf2fuXMq5g2hj6xwgDo4ow7L/wrgIVRCSyAuzFb8yeM8vtn+lgZIISwoHIYNdm4mlh6nr8uKczKwXAQHUyHVFY+f5eOVMrTUR3SdvRwoZorFaD5tDvALhUZz5qmHgQIAAPzA8DMXQa3fsK5xrVX8rjlKeDM/O///m8ECauuumpPaZep4eyzzw677LLL0KuInnvuuRGISEOcW6ZAEymQAUII4bvf/W6sOf7yl7985KqsFDNsfIyKlNOaltclx8ZPne85Uu4LXvCCsYCE5HVN9QccdGOszAw0CcKlxh2ehM5UluiIzlSWpEuq0nGCrSZeCtM0J8CAL4Kqf2VAoP1N7c/pkOf8sJp5HXHEEeGtb31rY7UHw/r23O/kUCADhBBirDIVH+ZByhhVoxnARKlCmQ8Ag26qRtoFMdW33HJLBAnU96OwlSZ6uDyNT/ruVGmtSDtMWYU3TcKUYsnWUdGYmQMw4CcBGPgBDMYxl1F9cx7nQQrwh8GMq0jptHmEhnXXXXdopGTKoAkE9HPLFGgqBTJACCGmySVRXn311TFT1ygak4FkJLQDpBXSTRlJNmkTOFQBFOylo7BfJnAAzHQyK7SjG00DL+0NNthgkWItw6JziqQApIQpcjzjJ0FbkIHBsKjezH4vuuiisN5661WyY9uzxx9/fNh7772H8lGAPt+DHXbYoTGRC0P50NzpxFMgA4QQoqMahv3Nb34zbLTRRkNfVBKN1KEAARt9VaaVMpYpjrLMMstEO2bdmgRAgPTF+ZCkw2GIhgWzZbcvA2YSIZlGXIhvectbKn9rlcVIoYrXXXddvHhTDLy/jwJEVZlrfnY0FDj00EMjo69yxtwFJPytttpqKJNUBImzX7+hkUOZVO40U6ANBTJAmE8UDneSpgjNG6bXLLOCpCIa9eIgjB0TJyGttNJKYbnllqvEtLudBoz2+uuvjwBBelNSOOctUngKeapymvR36623xhz0bK6DfHO7cfXPhAAw0cRwNhU5wdmzCpCp8k352cmggHLCa665ZqVIGmCYKc2ZqrvZq+edd17YdNNNs/agbuLm/mqnQAYI80lK7YeJUS9KljKMlgr80Fhg6nU0IOHCCy+M2dyo/utgiCQoGg5SF1DAhk9zUCb1asrf0DoP/8/X4/LLL6/FMYupBT35cEinC7jIttbEkMo61jn30R8FMHoSO5BQ5mzYp0ceeWQMPSzj1Fh1VgQEYNt5KjOfqv3n5zMF6qRABgjzqZni+qVn3WKLLeqkcewLM5OohYNfnY6QyTeAdM48Qm056MUDdEiSgtm2y3PQiTgp/BEAkoO+tfk9v4CrrroqbLvtttFh8P+3dy85jSthGIaXwoAFMEFCSMwYsWI2ghgxg4W0nkilE+WQ2CYXJfJbEmpaqY7tt6pdX/23GumcU8C3c9Xlj3vpe/kTRSwxAg9rEdglIEjVMcFvb2+bUr2HivqYY+KCLOBKBtcisHYCCYStGSA/XvCfgLpTNgumymSio09lOdi+Py82u/z39/fNISvH+jbFGnCDeKGqliYYck6zO1KQhkCxm9/XLOxMvxZ3B7CIDxg/3A+eZwgC7MbvrBpe3qwF/p3Mj1oEpghwkQlAlvWjQubuwUzmF6sZ14KaCQ5NOld1wKl77fMIXBOBBMLWaHiR2OU/PDycLKiNKVyWBPEh1e9cbVgS7M7VcyAS/uLrt8iLPVAlkaVjScwBa8PX19dmN6+c7aHmOhZ8vDXWCteSaTCOVmbJ8LvmM1XwuDxqEVhKgNWJ+CdECcsRtErMmmPmuz7Pz88n+7+/9B7rH4FrI5BA2BoR2QVM1yNy/9jBsmgz1dvdEx1/WbCX3IPrESJqD8iOYOafe7LayIywQ7fDt8gvyR13nwSWF60aDUtOphvHxbq237kdvMB9xzkDRpewre/tEzDHzbGRXkwcjGqlI+PlWPfc7VPqCSLwH4EEwtZssJOwq5WWJ+jvmDbM/hZsO99LHjbClSELgTmVJWEqIMpunpXDn+6TS8F939/fL0LANeFnThGlRV9c5whEIAIRuDiBBMIW8hFkRyQcU0VtpN1ZZJkz7cYvvTPhUxUQOHbkSh0TCiMfnOvDborflb9VP4LC7p8l4C8CQaoht8BvAYoXn9ldMAIRiEAEjiKQQNjBZ9GUOmfX/9eUuZFHbcHlrji3a2HfDGAR8TxcHATBdgqie+J+GKcYEg+jEQjcDBb63ZPvDs027hTWCwGEtQhEIAIRuG0CCYSd8VMwSRyCxVTU89I2UgSl8PGhX0M0tGcRgOVHuiVrBoHgHomgXeuGYENWFJ/PtQa4hkwNVoRSxJbOmvpHIAIRuD4CCYSdMbHQjXS6pcc/W1jt1vnxiYNbLe/L3SDimzXg9fV11qzFTfaD0yaXcpt1gTpFIAIRiMBFCSQQfsFtFyxoT/wAn/ycpgKj4EbiQCreEtP8nO+/ZJ+x2HNPPD4+zrr0KKdMIDw9Pc36N3WKQAQiEIHrJZBA+GVs+O4/Pz83fnvpiVONOPj5+dmk5MkauAa3wtQ9T33OHSEdTLEkhzVNNQJhVDd8eXmZ6t7nEYhABCJw5QQSCHsGyO6ZT92Cr5rgvqZ2gmI/fPpK/l46W+Fc88uCL9iSSJpjRdFf9UVWlGMyQM71PH1vBCIQgQgsI5BA2MPLgqcqoKA+VQF3Cw75XMyBEyAJCIVW1txG7AYXw6Eyy2tm1LNHIAIRuCUCCYQDo8XV8PHxsdlFi+Yfp7v5u5Q+cQpOfhTtv/aG1ff39+Y0TEdm1yIQgQhE4LYJJBAmxo8Y4GoQY8CNMA4TEsB4d3d326Pf3UcgAhGIQAT2EEggNDUiEIEIRCACEfgfgQRCkyICEYhABCIQgQRCcyACEYhABCIQgWkCWRCmGdUjAhGIQAQisDoCCYTVDXkPHIEIRCACEZgmkECYZlSPCEQgAhGIwOoIJBBWN+Q9cAQiEIEIRGCaQAJhmlE9IhCBCEQgAqsjkEBY3ZD3wBGIQAQiEIFpAgmEaUb1iEAEIhCBCKyOwD+NuBH5DrejZgAAAABJRU5ErkJggg==;" parent="1" vertex="1">
          <mxGeometry x="610" y="90" width="741" height="570" as="geometry" />
        </mxCell>
        <mxCell id="qlqJOS4uyU8F7BAGSJQI-47" style="edgeStyle=orthogonalEdgeStyle;rounded=0;orthogonalLoop=1;jettySize=auto;html=1;exitX=0;exitY=0.5;exitDx=0;exitDy=0;entryX=1;entryY=0.5;entryDx=0;entryDy=0;" edge="1" parent="1" source="3SCOILTZdXTUn76-UnPr-37" target="3SCOILTZdXTUn76-UnPr-15">
          <mxGeometry relative="1" as="geometry" />
        </mxCell>
        <mxCell id="qlqJOS4uyU8F7BAGSJQI-49" style="edgeStyle=orthogonalEdgeStyle;rounded=0;orthogonalLoop=1;jettySize=auto;html=1;exitX=0;exitY=0.5;exitDx=0;exitDy=0;entryX=1;entryY=0.5;entryDx=0;entryDy=0;" edge="1" parent="1" source="3SCOILTZdXTUn76-UnPr-11" target="3SCOILTZdXTUn76-UnPr-41">
          <mxGeometry relative="1" as="geometry">
            <Array as="points">
              <mxPoint x="160" y="575" />
              <mxPoint x="160" y="580" />
              <mxPoint x="-10" y="580" />
            </Array>
          </mxGeometry>
        </mxCell>
        <mxCell id="qlqJOS4uyU8F7BAGSJQI-52" style="edgeStyle=orthogonalEdgeStyle;rounded=0;orthogonalLoop=1;jettySize=auto;html=1;exitX=0;exitY=0.5;exitDx=0;exitDy=0;entryX=1;entryY=0.5;entryDx=0;entryDy=0;" edge="1" parent="1" source="qlqJOS4uyU8F7BAGSJQI-1" target="3SCOILTZdXTUn76-UnPr-41">
          <mxGeometry relative="1" as="geometry" />
        </mxCell>
        <mxCell id="qlqJOS4uyU8F7BAGSJQI-54" style="edgeStyle=orthogonalEdgeStyle;rounded=0;orthogonalLoop=1;jettySize=auto;html=1;exitX=0;exitY=0.5;exitDx=0;exitDy=0;entryX=1;entryY=0.5;entryDx=0;entryDy=0;" edge="1" parent="1" source="qlqJOS4uyU8F7BAGSJQI-35" target="3SCOILTZdXTUn76-UnPr-41">
          <mxGeometry relative="1" as="geometry" />
        </mxCell>
        <mxCell id="qlqJOS4uyU8F7BAGSJQI-69" style="edgeStyle=orthogonalEdgeStyle;rounded=0;orthogonalLoop=1;jettySize=auto;html=1;exitX=0;exitY=0.5;exitDx=0;exitDy=0;entryX=-0.023;entryY=0.737;entryDx=0;entryDy=0;entryPerimeter=0;" edge="1" parent="1" source="qlqJOS4uyU8F7BAGSJQI-55" target="3SCOILTZdXTUn76-UnPr-2">
          <mxGeometry relative="1" as="geometry" />
        </mxCell>
        <mxCell id="qlqJOS4uyU8F7BAGSJQI-55" value="BestellungenArt" style="shape=table;startSize=30;container=1;collapsible=1;childLayout=tableLayout;fixedRows=1;rowLines=0;fontStyle=1;align=center;resizeLast=1;html=1;" vertex="1" parent="1">
          <mxGeometry x="230" y="140" width="180" height="150" as="geometry" />
        </mxCell>
        <mxCell id="qlqJOS4uyU8F7BAGSJQI-56" value="" style="shape=tableRow;horizontal=0;startSize=0;swimlaneHead=0;swimlaneBody=0;fillColor=none;collapsible=0;dropTarget=0;points=[[0,0.5],[1,0.5]];portConstraint=eastwest;top=0;left=0;right=0;bottom=1;" vertex="1" parent="qlqJOS4uyU8F7BAGSJQI-55">
          <mxGeometry y="30" width="180" height="30" as="geometry" />
        </mxCell>
        <mxCell id="qlqJOS4uyU8F7BAGSJQI-57" value="FK, PK" style="shape=partialRectangle;connectable=0;fillColor=none;top=0;left=0;bottom=0;right=0;fontStyle=1;overflow=hidden;whiteSpace=wrap;html=1;" vertex="1" parent="qlqJOS4uyU8F7BAGSJQI-56">
          <mxGeometry width="50" height="30" as="geometry">
            <mxRectangle width="50" height="30" as="alternateBounds" />
          </mxGeometry>
        </mxCell>
        <mxCell id="qlqJOS4uyU8F7BAGSJQI-58" value="Be" style="shape=partialRectangle;connectable=0;fillColor=none;top=0;left=0;bottom=0;right=0;align=left;spacingLeft=6;fontStyle=5;overflow=hidden;whiteSpace=wrap;html=1;" vertex="1" parent="qlqJOS4uyU8F7BAGSJQI-56">
          <mxGeometry x="50" width="130" height="30" as="geometry">
            <mxRectangle width="130" height="30" as="alternateBounds" />
          </mxGeometry>
        </mxCell>
        <mxCell id="qlqJOS4uyU8F7BAGSJQI-59" value="" style="shape=tableRow;horizontal=0;startSize=0;swimlaneHead=0;swimlaneBody=0;fillColor=none;collapsible=0;dropTarget=0;points=[[0,0.5],[1,0.5]];portConstraint=eastwest;top=0;left=0;right=0;bottom=0;" vertex="1" parent="qlqJOS4uyU8F7BAGSJQI-55">
          <mxGeometry y="60" width="180" height="30" as="geometry" />
        </mxCell>
        <mxCell id="qlqJOS4uyU8F7BAGSJQI-60" value="FK,PK" style="shape=partialRectangle;connectable=0;fillColor=none;top=0;left=0;bottom=0;right=0;editable=1;overflow=hidden;whiteSpace=wrap;html=1;" vertex="1" parent="qlqJOS4uyU8F7BAGSJQI-59">
          <mxGeometry width="50" height="30" as="geometry">
            <mxRectangle width="50" height="30" as="alternateBounds" />
          </mxGeometry>
        </mxCell>
        <mxCell id="qlqJOS4uyU8F7BAGSJQI-61" value="AID" style="shape=partialRectangle;connectable=0;fillColor=none;top=0;left=0;bottom=0;right=0;align=left;spacingLeft=6;overflow=hidden;whiteSpace=wrap;html=1;" vertex="1" parent="qlqJOS4uyU8F7BAGSJQI-59">
          <mxGeometry x="50" width="130" height="30" as="geometry">
            <mxRectangle width="130" height="30" as="alternateBounds" />
          </mxGeometry>
        </mxCell>
        <mxCell id="qlqJOS4uyU8F7BAGSJQI-62" value="" style="shape=tableRow;horizontal=0;startSize=0;swimlaneHead=0;swimlaneBody=0;fillColor=none;collapsible=0;dropTarget=0;points=[[0,0.5],[1,0.5]];portConstraint=eastwest;top=0;left=0;right=0;bottom=0;" vertex="1" parent="qlqJOS4uyU8F7BAGSJQI-55">
          <mxGeometry y="90" width="180" height="30" as="geometry" />
        </mxCell>
        <mxCell id="qlqJOS4uyU8F7BAGSJQI-63" value="" style="shape=partialRectangle;connectable=0;fillColor=none;top=0;left=0;bottom=0;right=0;editable=1;overflow=hidden;whiteSpace=wrap;html=1;" vertex="1" parent="qlqJOS4uyU8F7BAGSJQI-62">
          <mxGeometry width="50" height="30" as="geometry">
            <mxRectangle width="50" height="30" as="alternateBounds" />
          </mxGeometry>
        </mxCell>
        <mxCell id="qlqJOS4uyU8F7BAGSJQI-64" value="Anzahl" style="shape=partialRectangle;connectable=0;fillColor=none;top=0;left=0;bottom=0;right=0;align=left;spacingLeft=6;overflow=hidden;whiteSpace=wrap;html=1;" vertex="1" parent="qlqJOS4uyU8F7BAGSJQI-62">
          <mxGeometry x="50" width="130" height="30" as="geometry">
            <mxRectangle width="130" height="30" as="alternateBounds" />
          </mxGeometry>
        </mxCell>
        <mxCell id="qlqJOS4uyU8F7BAGSJQI-65" value="" style="shape=tableRow;horizontal=0;startSize=0;swimlaneHead=0;swimlaneBody=0;fillColor=none;collapsible=0;dropTarget=0;points=[[0,0.5],[1,0.5]];portConstraint=eastwest;top=0;left=0;right=0;bottom=0;" vertex="1" parent="qlqJOS4uyU8F7BAGSJQI-55">
          <mxGeometry y="120" width="180" height="30" as="geometry" />
        </mxCell>
        <mxCell id="qlqJOS4uyU8F7BAGSJQI-66" value="" style="shape=partialRectangle;connectable=0;fillColor=none;top=0;left=0;bottom=0;right=0;editable=1;overflow=hidden;whiteSpace=wrap;html=1;" vertex="1" parent="qlqJOS4uyU8F7BAGSJQI-65">
          <mxGeometry width="50" height="30" as="geometry">
            <mxRectangle width="50" height="30" as="alternateBounds" />
          </mxGeometry>
        </mxCell>
        <mxCell id="qlqJOS4uyU8F7BAGSJQI-67" value="" style="shape=partialRectangle;connectable=0;fillColor=none;top=0;left=0;bottom=0;right=0;align=left;spacingLeft=6;overflow=hidden;whiteSpace=wrap;html=1;" vertex="1" parent="qlqJOS4uyU8F7BAGSJQI-65">
          <mxGeometry x="50" width="130" height="30" as="geometry">
            <mxRectangle width="130" height="30" as="alternateBounds" />
          </mxGeometry>
        </mxCell>
        <mxCell id="qlqJOS4uyU8F7BAGSJQI-68" style="edgeStyle=orthogonalEdgeStyle;rounded=0;orthogonalLoop=1;jettySize=auto;html=1;exitX=0;exitY=0.5;exitDx=0;exitDy=0;entryX=1;entryY=0.5;entryDx=0;entryDy=0;" edge="1" parent="1" source="qlqJOS4uyU8F7BAGSJQI-56" target="3SCOILTZdXTUn76-UnPr-28">
          <mxGeometry relative="1" as="geometry" />
        </mxCell>
      </root>
    </mxGraphModel>
  </diagram>
</mxfile>
